<svg width="311" height="131" viewBox="0 0 311 131" fill="none" xmlns="http://www.w3.org/2000/svg">
<path d="M304.007 47.6246L304.905 48.0638L304.007 47.6246ZM6.00683 91.6245L5.30475 90.9124L5.30476 90.9124L6.00683 91.6245ZM23.4708 126.851C23.621 127.382 23.312 127.935 22.7805 128.085L14.1198 130.533C13.5883 130.683 13.0357 130.374 12.8855 129.843C12.7353 129.311 13.0443 128.759 13.5758 128.608L21.2742 126.433L19.0983 118.734C18.9481 118.203 19.2572 117.65 19.7887 117.5C20.3201 117.35 20.8727 117.659 21.023 118.19L23.4708 126.851ZM288.694 3.04158C289.757 1.55281 291.123 0.616093 292.678 0.253401C294.221 -0.106292 295.859 0.119038 297.454 0.786375C300.625 2.11291 303.772 5.23777 306.132 9.58391C310.876 18.3212 312.617 32.2889 304.905 48.0638L303.108 47.1854C310.552 31.9603 308.793 18.6769 304.374 10.5383C302.152 6.4464 299.301 3.72706 296.682 2.63141C295.383 2.08764 294.178 1.95739 293.133 2.20114C292.1 2.4419 291.133 3.06767 290.322 4.20397L288.694 3.04158ZM304.905 48.0638C296.423 65.4124 275.431 74.479 248.682 79.0401C221.865 83.6129 188.887 83.718 155.917 82.8117C122.9 81.9041 89.9174 79.9843 62.9233 80.4759C49.4331 80.7216 37.4938 81.5698 27.8401 83.4355C18.1532 85.3076 10.9293 88.1757 6.70891 92.3366L5.30476 90.9124C9.95933 86.3234 17.6729 83.3634 27.4606 81.4718C37.2813 79.5738 49.3538 78.7227 62.8869 78.4763C89.9396 77.9835 123.051 79.9075 155.972 80.8124C188.939 81.7187 221.742 81.605 248.346 77.0685C275.02 72.5202 295.09 63.5868 303.108 47.1854L304.905 48.0638ZM6.70892 92.3366C2.67477 96.314 1.711 100.301 2.39701 104.063C3.09761 107.905 5.54563 111.649 8.61778 114.981C11.6765 118.299 15.2703 121.118 18.114 123.115C19.533 124.111 20.7585 124.898 21.6275 125.434C22.0619 125.702 22.4068 125.908 22.6419 126.045C22.7594 126.114 22.8495 126.166 22.9095 126.201C22.9394 126.218 22.9619 126.23 22.9766 126.239C22.9839 126.243 22.9892 126.246 22.9926 126.248C22.9943 126.249 22.9955 126.249 22.9961 126.25C22.9965 126.25 22.9966 126.25 22.9968 126.25C22.9968 126.25 22.9966 126.25 22.5085 127.123C22.0204 127.996 22.02 127.995 22.0195 127.995C22.0191 127.995 22.0185 127.995 22.0178 127.994C22.0165 127.993 22.0146 127.992 22.0122 127.991C22.0075 127.988 22.0007 127.985 21.992 127.98C21.9746 127.97 21.9493 127.955 21.9164 127.937C21.8506 127.899 21.7546 127.844 21.6309 127.771C21.3835 127.626 21.0253 127.413 20.5768 127.136C19.6801 126.582 18.4211 125.774 16.9649 124.752C14.0583 122.711 10.3391 119.799 7.14736 116.337C3.96906 112.89 1.22914 108.807 0.429452 104.422C-0.384831 99.9563 0.838764 95.3156 5.30475 90.9124L6.70892 92.3366Z" fill="url(#paint0_linear_426_933)"/>
<defs>
<linearGradient id="paint0_linear_426_933" x1="401.521" y1="-29.0232" x2="405.517" y2="144.714" gradientUnits="userSpaceOnUse">
<stop offset="0.0405605" stop-color="#E8B283"/>
<stop offset="1" stop-color="#428AFF"/>
</linearGradient>
</defs>
</svg>
