<svg width="380" height="129" viewBox="0 0 380 129" fill="none" xmlns="http://www.w3.org/2000/svg">
<path d="M373.007 48L373.905 48.4392L373.007 48ZM8.00676 91.9999L7.30468 91.2878L7.30468 91.2878L8.00676 91.9999ZM12.5074 127.453C12.5322 128.005 12.1051 128.472 11.5534 128.497L2.56245 128.902C2.01072 128.926 1.54334 128.499 1.51853 127.948C1.49371 127.396 1.92086 126.928 2.47259 126.904L10.4645 126.544L10.1051 118.552C10.0802 118.001 10.5074 117.533 11.0591 117.508C11.6108 117.484 12.0782 117.911 12.103 118.462L12.5074 127.453ZM357.694 3.41696C358.757 1.9282 360.123 0.991475 361.678 0.628783C363.221 0.26909 364.859 0.49442 366.454 1.16176C369.625 2.48829 372.772 5.61315 375.132 9.95929C379.876 18.6966 381.617 32.6643 373.905 48.4392L372.108 47.5608C379.552 32.3357 377.793 19.0523 373.374 10.9136C371.152 6.82178 368.301 4.10244 365.682 3.00679C364.383 2.46302 363.178 2.33277 362.133 2.57652C361.1 2.81728 360.133 3.44305 359.322 4.57935L357.694 3.41696ZM373.905 48.4392C369.634 57.1755 361.15 63.7748 349.703 68.752C338.25 73.7321 323.721 77.137 307.182 79.4203C274.103 83.987 232.766 84.0935 191.422 83.1872C150.039 82.2801 108.67 80.3596 75.3886 80.8514C58.7521 81.0972 44.1866 81.946 32.6897 83.8161C21.1302 85.6963 12.9024 88.5775 8.70884 92.712L7.30468 91.2878C11.9861 86.6724 20.7895 83.7254 32.3686 81.842C44.0103 79.9484 58.6908 79.0979 75.359 78.8516C108.687 78.3591 150.161 80.2823 191.466 81.1877C232.81 82.094 274.004 81.9817 306.909 77.4391C323.362 75.1677 337.689 71.7952 348.906 66.9179C360.129 62.0378 368.129 55.6995 372.108 47.5608L373.905 48.4392ZM8.70884 92.712C4.60738 96.7558 2.81605 100.863 2.37548 104.731C1.93274 108.617 2.84482 112.349 4.29693 115.63C5.7491 118.911 7.72314 121.7 9.34366 123.674C10.1521 124.659 10.868 125.436 11.3794 125.965C11.6349 126.229 11.8391 126.431 11.9778 126.565C12.0472 126.632 12.1001 126.683 12.1349 126.715C12.1523 126.732 12.1652 126.744 12.1733 126.751C12.1773 126.755 12.1802 126.757 12.1818 126.759C12.1826 126.76 12.1832 126.76 12.1834 126.76C12.1835 126.76 12.1834 126.76 12.1834 126.76C12.1833 126.76 12.1831 126.76 11.5084 127.498C10.8338 128.236 10.8334 128.236 10.833 128.236C10.8327 128.235 10.8322 128.235 10.8316 128.234C10.8306 128.233 10.8292 128.232 10.8276 128.231C10.8243 128.228 10.8197 128.223 10.814 128.218C10.8025 128.208 10.7862 128.192 10.7654 128.173C10.7236 128.133 10.6635 128.076 10.5868 128.002C10.4335 127.854 10.2138 127.637 9.94202 127.356C9.39863 126.794 8.64559 125.976 7.7976 124.943C6.10526 122.881 4.01633 119.938 2.46805 116.439C0.919713 112.941 -0.106148 108.845 0.38833 104.504C0.884966 100.145 2.906 95.6247 7.30468 91.2878L8.70884 92.712Z" fill="url(#paint0_linear_426_932)"/>
<defs>
<linearGradient id="paint0_linear_426_932" x1="485.31" y1="-39.2869" x2="484.211" y2="173.508" gradientUnits="userSpaceOnUse">
<stop offset="0.0405605" stop-color="#E8B283"/>
<stop offset="1" stop-color="#428AFF"/>
</linearGradient>
</defs>
</svg>
