<svg width="34" height="12" viewBox="0 0 34 12" fill="none" xmlns="http://www.w3.org/2000/svg">
<path d="M32.0315 10.8376L32.7355 10.1274L32.7386 10.1305L32.0315 10.8376ZM33.1192 10.9253C33.1192 11.4776 32.6715 11.9253 32.1192 11.9253L23.1192 11.9253C22.5669 11.9253 22.1192 11.4776 22.1192 10.9253C22.1192 10.373 22.5669 9.9253 23.1192 9.9253L31.1192 9.9253V1.9253C31.1192 1.37301 31.5669 0.925297 32.1192 0.925297C32.6715 0.925297 33.1192 1.37301 33.1192 1.9253L33.1192 10.9253ZM0.299641 10.218C4.6006 5.91966 10.4323 3.49465 16.5085 3.47744L16.5141 5.47743C10.9666 5.49315 5.641 7.70746 1.71342 11.6326L0.299641 10.218ZM16.5085 3.47744C22.5847 3.46023 28.4228 5.85265 32.7355 10.1274L31.3276 11.5478C27.3911 7.64603 22.0615 5.46172 16.5141 5.47743L16.5085 3.47744ZM32.7386 10.1305L32.8263 10.2182L31.4121 11.6324L31.3244 11.5447L32.7386 10.1305Z" fill="url(#paint0_linear_426_877)"/>
<defs>
<linearGradient id="paint0_linear_426_877" x1="38.3598" y1="6.86462" x2="35.1806" y2="22.6652" gradientUnits="userSpaceOnUse">
<stop offset="0.0405605" stop-color="#E8B283"/>
<stop offset="1" stop-color="#428AFF"/>
</linearGradient>
</defs>
</svg>
