<svg width="35" height="34" viewBox="0 0 35 34" fill="none" xmlns="http://www.w3.org/2000/svg">
<path d="M2.2218 16.7365C1.86307 16.7365 1.55063 16.7365 1.23819 16.7365C0.474448 16.7133 0 16.2157 0 15.4636C0 12.9525 0 10.4298 0 7.91868C0 7.13179 0.486019 6.64577 1.28448 6.64577C2.9624 6.64577 4.62876 6.64577 6.30668 6.64577C6.4224 6.64577 6.54969 6.64577 6.65384 6.64577C6.51498 6.13661 6.35297 5.66216 6.26039 5.17614C5.84381 2.82705 7.52173 0.477955 9.87082 0.0960829C11.8959 -0.22793 13.6201 0.454812 15.1129 1.80872C16.0039 2.61876 16.6751 3.59079 17.2653 4.65541C17.5777 4.18096 17.8554 3.71809 18.1563 3.27835C19.0936 1.95916 20.2392 0.894544 21.8014 0.362236C23.2942 -0.146927 24.7754 -0.181643 26.1756 0.663106C28.1313 1.83187 28.8834 4.27354 27.9577 6.35648C27.923 6.43748 27.8883 6.51848 27.8304 6.6342C27.9924 6.6342 28.1081 6.6342 28.2238 6.6342C29.8786 6.6342 31.5218 6.6342 33.1766 6.6342C34.0329 6.6342 34.4958 7.10865 34.5074 7.97654C34.5074 10.4529 34.5074 12.9177 34.5074 15.3941C34.5074 16.262 34.0329 16.7365 33.1535 16.748C32.8989 16.748 32.6443 16.748 32.3434 16.748C32.3434 16.91 32.3434 17.0373 32.3434 17.1762C32.3434 22.0364 32.3434 26.9082 32.3434 31.7684C32.3434 31.9767 32.3319 32.1965 32.274 32.4048C32.1583 32.8561 31.7417 33.1801 31.2673 33.2148C31.1284 33.2148 31.0011 33.2148 30.8622 33.2148C21.8014 33.2148 12.7291 33.2148 3.66829 33.2148C3.47157 33.2148 3.26327 33.2148 3.06655 33.1686C2.55739 33.0413 2.2218 32.6015 2.21023 32.0461C2.21023 30.993 2.21023 29.94 2.21023 28.8754C2.21023 24.9757 2.21023 21.0759 2.21023 17.1878C2.21023 17.0605 2.21023 16.9216 2.21023 16.7365H2.2218ZM4.59404 30.831H16.0849V16.7712H4.59404V30.831ZM29.9596 30.831V16.7596H18.4919V30.831H29.9596ZM16.0734 14.3642V9.02958H2.38381V14.3642H16.0618H16.0734ZM32.1467 9.02958H18.4919V14.3527H32.1236C32.1236 14.2832 32.1467 14.2254 32.1467 14.1675C32.1467 12.4664 32.1467 10.7538 32.1467 9.01801V9.02958ZM18.9432 6.56477C19.0473 6.62263 19.0589 6.6342 19.0821 6.6342C20.7253 6.6342 22.3569 6.65735 24.0001 6.6342C24.868 6.61106 25.516 6.14818 25.8285 5.32658C26.1525 4.50497 26.0136 3.72966 25.4119 3.08163C24.706 2.32946 23.8265 2.2716 22.9008 2.51461C21.6857 2.82705 20.8178 3.63708 20.1235 4.62069C19.6838 5.234 19.3482 5.91675 18.9548 6.56477H18.9432ZM15.5758 6.6342C15.0666 5.46544 14.4417 4.43554 13.5391 3.59079C12.7638 2.85019 11.838 2.38732 10.7387 2.38732C9.56995 2.38732 8.62106 3.27835 8.5632 4.42397C8.50534 5.58116 9.35009 6.57634 10.5536 6.62263C12.2083 6.66892 13.8747 6.6342 15.5758 6.6342Z" fill="#00FF75"/>
</svg>
