<svg width="62" height="48" viewBox="0 0 62 48" fill="none" xmlns="http://www.w3.org/2000/svg">
<g clip-path="url(#clip0_426_1132)">
<path d="M0 14.439V10H7.53113V34.4837H3.07938V14.439H0Z" fill="#F1F2F2"/>
<path d="M9.53906 39.9475V28.9258H13.4027V39.9475H9.53906Z" fill="#F1F2F2"/>
<path d="M15.4072 14.9749L26.5112 10H49.2061V14.439H27.3428L19.859 17.6579V18.6825H49.2061V34.5342H15.4072V14.9749ZM44.7543 30.0952V23.1215H19.859V30.0952H44.7543Z" fill="#F1F2F2"/>
<path d="M51.163 14.439V10H58.6942V34.4837H54.2424V14.439H51.1597H51.163Z" fill="#F1F2F2"/>
<path d="M54.5076 25.5417L32.7868 29.3607C29.3139 29.9713 26.995 33.2736 27.6073 36.7365C28.2197 40.1995 31.5314 42.5118 35.0043 41.9012L56.7252 38.0822C60.1981 37.4715 62.517 34.1693 61.9046 30.7063C61.2923 27.2433 57.9805 24.9311 54.5076 25.5417Z" fill="url(#paint0_linear_426_1132)"/>
<path d="M32.2777 37.7734L32.6022 37.1498C32.9537 37.3082 33.3086 37.2981 33.6805 37.2341C34.0827 37.1633 34.3937 36.9172 34.343 36.6408C34.3058 36.4251 34.0793 36.3577 33.7278 36.3375L33.3999 36.3139C32.8286 36.2903 32.3757 36.1049 32.281 35.5825C32.1391 34.7837 32.7948 34.0657 33.7312 33.9006C34.3396 33.7927 34.8365 33.8534 35.2252 34.0489L34.8669 34.7297C34.5796 34.605 34.245 34.5949 33.9306 34.6522C33.5385 34.723 33.2072 34.9421 33.2546 35.2117C33.2884 35.4106 33.4945 35.4477 33.7954 35.4847L34.1199 35.5218C34.7148 35.5859 35.2117 35.778 35.3131 36.3341C35.4618 37.1768 34.7655 37.8273 33.7988 37.9992C33.1768 38.107 32.6461 38.0261 32.2743 37.7734H32.2777Z" fill="#F1F2F2"/>
<path d="M38.3015 33.9849L37.4801 34.1299V37.278L36.5032 37.4499V34.3018L35.6987 34.4433V33.6277L36.5032 33.4861V32.3233L37.4767 32.1514V33.3142L38.3049 33.1693V33.9849H38.3015Z" fill="#F1F2F2"/>
<path d="M42.0195 32.5151L42.0128 36.4823L41.0832 36.6474L41.0629 36.1216C40.8094 36.5632 40.3936 36.8429 39.9441 36.9204C39.2139 37.0485 38.6832 36.7216 38.5785 36.1149C38.4162 35.2015 39.1599 34.5644 40.1401 34.3925C40.4342 34.342 40.7486 34.3217 41.046 34.3352V33.4757L38.7948 33.8735L38.8015 33.0848L42.0229 32.5185L42.0195 32.5151ZM41.0426 35.0026V34.979C40.7959 34.979 40.5559 34.9992 40.3767 35.0296C39.8528 35.1206 39.4911 35.4509 39.5621 35.8419C39.606 36.0913 39.7987 36.2261 40.13 36.1688C40.5863 36.0879 41.0156 35.6228 41.046 34.9992L41.0426 35.0026Z" fill="#F1F2F2"/>
<path d="M43.0029 32.3399L43.9393 32.1747V32.6836C44.2367 32.2354 44.7201 31.9657 45.3522 31.8545L45.3454 32.7747C44.5443 32.9162 43.9832 33.4488 43.9764 34.0386V36.1351L43.0063 36.307V32.3399H43.0029Z" fill="#F1F2F2"/>
<path d="M48.1819 32.2491L47.3605 32.394V35.5421L46.3836 35.714V32.5659L45.5791 32.7075V31.8918L46.3836 31.7503V30.5874L47.3571 30.4155V31.5784L48.1853 31.4334V32.2491H48.1819Z" fill="#F1F2F2"/>
<path d="M48.7126 34.0015C48.6957 33.9004 48.6855 33.7993 48.6855 33.6914V31.3455L49.6557 31.1736V33.5061C49.659 33.5802 49.6658 33.6442 49.676 33.7083C49.7469 34.0993 50.0444 34.2846 50.4804 34.2071C50.974 34.1195 51.3154 33.7083 51.312 33.2364V30.8804L52.2889 30.7085V33.1286C52.2889 34.1229 51.5925 34.8711 50.5413 35.0531C49.5543 35.2284 48.8512 34.797 48.7092 33.9982L48.7126 34.0015Z" fill="#F1F2F2"/>
<path d="M57.2745 31.4199C57.501 32.704 56.7438 33.9646 55.5269 34.177C54.9117 34.2848 54.4723 34.0961 54.185 33.7219V35.9566L53.2148 36.1285V30.5435L54.1545 30.3784L54.1681 30.921C54.4317 30.4862 54.8407 30.1862 55.4086 30.0851C56.3449 29.92 57.1021 30.4357 57.2745 31.4199ZM56.2976 31.7401C56.1962 31.1704 55.7906 30.8738 55.2092 30.9749C54.594 31.0828 54.1917 31.6389 54.1816 32.34V32.3602C54.185 32.4411 54.1917 32.5153 54.2019 32.5861C54.3067 33.1793 54.7123 33.459 55.2835 33.3613C56.0204 33.2332 56.4261 32.4681 56.2942 31.7401H56.2976Z" fill="#F1F2F2"/>
</g>
<defs>
<linearGradient id="paint0_linear_426_1132" x1="27.7032" y1="32.8727" x2="62.3048" y2="34.6125" gradientUnits="userSpaceOnUse">
<stop stop-color="#E8B282"/>
<stop offset="0.12" stop-color="#CAA78E"/>
<stop offset="0.31" stop-color="#A19AA0"/>
<stop offset="0.5" stop-color="#808FAE"/>
<stop offset="0.68" stop-color="#6987B8"/>
<stop offset="0.85" stop-color="#5B82BE"/>
<stop offset="1" stop-color="#5781C1"/>
</linearGradient>
<clipPath id="clip0_426_1132">
<rect width="62" height="34" fill="white" transform="translate(0 8)"/>
</clipPath>
</defs>
</svg>
