<svg width="133" height="80" viewBox="0 0 133 80" fill="none" xmlns="http://www.w3.org/2000/svg">
<g clip-path="url(#clip0_118_727)">
<path d="M0 10.1123V0H17.0654V55.775H6.98549V10.1123H0Z" fill="#F1F2F2"/>
<path d="M21.6152 68.2216V43.106H30.3701V68.2139H21.6152V68.2216Z" fill="#F1F2F2"/>
<path d="M34.9121 11.3331L60.0736 0H111.5V10.1123H61.9579L44.9997 17.445V19.7792H111.5V55.8902H34.9121V11.3331ZM101.412 45.7779V29.8915H44.9997V45.7779H101.412Z" fill="#F1F2F2"/>
<path d="M115.935 10.1123V0H133V55.775H122.912V10.1123H115.927H115.935Z" fill="#F1F2F2"/>
<path d="M111.432 44.0898L57.9057 53.725C50.7234 55.0178 45.9462 61.9009 47.2355 69.0987C48.5249 76.2964 55.3925 81.0833 62.5748 79.7905L116.101 70.1553C123.284 68.8624 128.061 61.9794 126.771 54.7816C125.482 47.5838 118.614 42.7969 111.432 44.0898Z" fill="url(#paint0_linear_118_727)"/>
<path d="M60.0737 71.0472L60.7784 69.6727C61.552 70.0183 62.3256 69.9952 63.1375 69.8493C64.0184 69.6881 64.6924 69.1506 64.5852 68.5364C64.5009 68.068 64.003 67.9144 63.2371 67.8683L62.5171 67.8223C61.2609 67.7762 60.2652 67.3693 60.066 66.2252C59.752 64.4669 61.1843 62.8775 63.2371 62.5089C64.5698 62.2709 65.6575 62.3937 66.5154 62.8237L65.7341 64.3287C65.106 64.0522 64.3707 64.0369 63.6813 64.1597C62.8235 64.3133 62.0958 64.797 62.203 65.3959C62.2796 65.8336 62.7316 65.9181 63.3903 65.9948L64.1026 66.0793C65.4047 66.2175 66.5 66.6398 66.7222 67.8607C67.0515 69.7111 65.5349 71.1546 63.4209 71.5386C62.0575 71.7843 60.8933 71.6 60.0814 71.0548L60.0737 71.0472Z" fill="#F1F2F2"/>
<path d="M73.2404 62.6624L71.4404 62.9849L71.4557 69.9184L69.3264 70.3023L69.311 63.3688L67.5417 63.6913L67.5264 61.8946L69.2957 61.5721V59.0153L71.4174 58.6313V61.1882L73.2404 60.8581V62.6624Z" fill="#F1F2F2"/>
<path d="M81.3672 59.3989L81.3825 68.1368L79.3451 68.5054L79.2991 67.3459C78.7477 68.3211 77.8362 68.9353 76.8481 69.1119C75.2472 69.4037 74.0907 68.682 73.8456 67.3536C73.4856 65.3419 75.1094 63.9291 77.254 63.5452C77.8974 63.43 78.5868 63.3839 79.2379 63.4147V61.5181L74.3051 62.4088L74.3204 60.6735L81.3749 59.4066L81.3672 59.3989ZM79.2455 64.8889V64.8351C78.7017 64.8351 78.1808 64.8812 77.7826 64.9503C76.6413 65.1576 75.8447 65.8794 76.0055 66.747C76.1051 67.2999 76.5264 67.5917 77.2464 67.4611C78.2498 67.2845 79.1842 66.2556 79.2455 64.8812V64.8889Z" fill="#F1F2F2"/>
<path d="M83.5118 59.0153L85.5646 58.6467V59.7677C86.2156 58.7772 87.2726 58.1783 88.6514 57.9326V59.9597C86.8897 60.2745 85.6565 61.4493 85.6488 62.7546L85.6641 67.3692L83.5348 67.7531L83.5042 59.0153H83.5118Z" fill="#F1F2F2"/>
<path d="M94.8556 58.7772L93.0556 59.0997L93.0709 66.0332L90.9416 66.4171L90.9263 59.4836L89.1569 59.8061L89.1416 58.0094L90.911 57.6869V55.13L93.0326 54.7461V57.303L94.8556 56.9728V58.7695V58.7772Z" fill="#F1F2F2"/>
<path d="M102.982 55.5063L102.998 64.2442L100.96 64.6128L100.914 63.4534C100.363 64.4285 99.4513 65.0428 98.4632 65.2194C96.8624 65.5111 95.7058 64.7894 95.4607 63.461C95.1007 61.4493 96.7245 60.0365 98.8692 59.6526C99.5126 59.5374 100.202 59.4914 100.853 59.5221V57.6256L95.9202 58.5162L95.9356 56.7809L102.99 55.514L102.982 55.5063ZM100.861 60.9963V60.9426C100.317 60.9426 99.7883 60.9886 99.3977 61.0577C98.2564 61.2651 97.4598 61.9868 97.6207 62.8545C97.7202 63.4073 98.1415 63.6991 98.8615 63.5685C99.8649 63.3843 100.799 62.3631 100.861 60.9886V60.9963Z" fill="#F1F2F2"/>
<path d="M114.027 57.0264C114.533 59.852 112.878 62.6316 110.221 63.1076C108.872 63.3533 107.907 62.9387 107.279 62.1171L107.302 67.0389L105.173 67.4228L105.135 55.1222L107.187 54.7537L107.226 55.9438C107.8 54.984 108.696 54.316 109.937 54.0933C111.99 53.7248 113.644 54.8535 114.035 57.0188L114.027 57.0264ZM111.89 57.7328C111.668 56.4736 110.772 55.8286 109.501 56.059C108.153 56.3047 107.272 57.5332 107.256 59.0689V59.1149C107.264 59.2915 107.279 59.4528 107.302 59.6063C107.54 60.9117 108.421 61.5259 109.677 61.3032C111.293 61.0115 112.166 59.3299 111.883 57.7252L111.89 57.7328Z" fill="#F1F2F2"/>
</g>
<defs>
<linearGradient id="paint0_linear_118_727" x1="136.224" y1="75.4414" x2="137.055" y2="52.6892" gradientUnits="userSpaceOnUse">
<stop offset="0.0405605" stop-color="#E8B283"/>
<stop offset="1" stop-color="#428AFF"/>
</linearGradient>
<clipPath id="clip0_118_727">
<rect width="133" height="80" fill="white"/>
</clipPath>
</defs>
</svg>
