<svg width="100" height="52" viewBox="0 0 100 52" fill="none" xmlns="http://www.w3.org/2000/svg">
<g clip-path="url(#clip0_196_49)">
<path d="M0 7.2134V0H12.147V39.786H4.96674V7.2134H0Z" fill="#F1F2F2"/>
<path d="M15.3855 48.6644V30.7542H21.6171V48.6644H15.3855Z" fill="#F1F2F2"/>
<path d="M24.8501 8.08426L42.7598 0H79.3643V7.2134H44.101L32.0303 12.4441V14.1091H79.3643V39.8681H24.8501V8.08426ZM72.1841 32.6547V21.3225H32.0303V32.6547H72.1841Z" fill="#F1F2F2"/>
<path d="M82.5211 7.2134V0H94.6681V39.786H87.4878V7.2134H82.5156H82.5211Z" fill="#F1F2F2"/>
<path d="M87.9152 25.2554L52.8816 31.4613C47.2801 32.4536 43.5399 37.8198 44.5276 43.4471C45.5153 49.0744 50.8568 52.8319 56.4583 51.8396L91.4919 45.6337C97.0934 44.6415 100.834 39.2753 99.8459 33.6479C98.8582 28.0206 93.5166 24.2632 87.9152 25.2554Z" fill="url(#paint0_linear_196_49)"/>
<path d="M52.0609 45.1317L52.5843 44.1184C53.1513 44.3758 53.7237 44.3594 54.3234 44.2553C54.9722 44.1403 55.4738 43.7405 55.392 43.2913C55.3321 42.9408 54.9668 42.8313 54.3998 42.7984L53.8709 42.7601C52.9496 42.7217 52.219 42.4205 52.0663 41.5715C51.8374 40.2734 52.895 39.1068 54.4052 38.8384C55.3866 38.6632 56.188 38.7617 56.815 39.0794L56.2371 40.1858C55.7737 39.9831 55.2339 39.9667 54.7269 40.0598C54.0945 40.1748 53.5602 40.5309 53.6365 40.969C53.691 41.2922 54.0236 41.3524 54.5088 41.4127L55.0322 41.4729C55.9918 41.577 56.7932 41.8892 56.9568 42.7929C57.1966 44.1622 56.0735 45.2193 54.5143 45.4986C53.5111 45.6739 52.6551 45.5424 52.0554 45.1317H52.0609Z" fill="#F1F2F2"/>
<path d="M61.7761 38.9754L60.4513 39.2109V44.3265L58.8757 44.6059V39.4902L57.5781 39.7202V38.3948L58.8757 38.1647V36.2751L60.4459 35.9958V37.8854L61.7816 37.6499V38.9754H61.7761Z" fill="#F1F2F2"/>
<path d="M67.7733 36.5873L67.7624 43.0339L66.2631 43.3023L66.2304 42.4479C65.8215 43.1654 65.1509 43.62 64.4258 43.7459C63.2482 43.9541 62.3922 43.4228 62.2232 42.4369C61.9615 40.9526 63.161 39.9174 64.742 39.6381C65.2164 39.5559 65.7234 39.5231 66.2032 39.545V38.1483L62.5722 38.7946L62.5831 37.513L67.7788 36.5928L67.7733 36.5873ZM66.1977 40.6294V40.5911C65.7997 40.5911 65.4126 40.624 65.1237 40.6733C64.2786 40.8211 63.6953 41.3579 63.8098 41.9933C63.8806 42.3986 64.1914 42.6177 64.7257 42.5245C65.4617 42.3931 66.1541 41.6372 66.2032 40.624L66.1977 40.6294Z" fill="#F1F2F2"/>
<path d="M69.3599 36.3025L70.8701 36.0341V36.8612C71.3498 36.1327 72.1295 35.6945 73.149 35.5138L73.1381 37.0091C71.846 37.2391 70.9409 38.1045 70.93 39.063V42.4698L69.3653 42.7491V36.3025H69.3599Z" fill="#F1F2F2"/>
<path d="M77.7124 36.1546L76.3876 36.3901V41.5058L74.812 41.7851V36.6695L73.5144 36.8995V35.574L74.812 35.344V33.4544L76.3821 33.1751V35.0647L77.7179 34.8292V36.1546H77.7124Z" fill="#F1F2F2"/>
<path d="M78.5683 39.0027C78.541 38.8384 78.5247 38.6741 78.5247 38.4988V34.6868L80.0894 34.4074V38.1976C80.0948 38.3181 80.1057 38.4222 80.1221 38.5262C80.2366 39.1616 80.7163 39.4628 81.4197 39.3368C82.2156 39.1944 82.7663 38.5262 82.7608 37.7594V33.9309L84.3365 33.6516V37.5842C84.3365 39.1999 83.2134 40.4158 81.5178 40.7116C79.9258 40.9964 78.7918 40.2953 78.5628 38.9973L78.5683 39.0027Z" fill="#F1F2F2"/>
<path d="M92.3781 34.8072C92.7434 36.894 91.5222 38.9425 89.5595 39.2876C88.5672 39.4628 87.8585 39.1561 87.395 38.5481V42.1795L85.8303 42.4588V33.3832L87.346 33.1148L87.3678 33.9966C87.793 33.2901 88.4527 32.8026 89.3687 32.6383C90.8788 32.3699 92.1001 33.2079 92.3781 34.8072ZM90.8025 35.3276C90.639 34.4019 89.9847 33.9199 89.047 34.0843C88.0547 34.2595 87.4059 35.1633 87.3896 36.3025V36.3354C87.395 36.4668 87.4059 36.5873 87.4223 36.7023C87.5913 37.6663 88.2455 38.1209 89.1669 37.9621C90.3555 37.7539 91.0097 36.5106 90.7971 35.3276H90.8025Z" fill="#F1F2F2"/>
</g>
<defs>
<linearGradient id="paint0_linear_196_49" x1="44.6823" y1="37.1684" x2="100.493" y2="39.9537" gradientUnits="userSpaceOnUse">
<stop stop-color="#E8B282"/>
<stop offset="0.12" stop-color="#CAA78E"/>
<stop offset="0.31" stop-color="#A19AA0"/>
<stop offset="0.5" stop-color="#808FAE"/>
<stop offset="0.68" stop-color="#6987B8"/>
<stop offset="0.85" stop-color="#5B82BE"/>
<stop offset="1" stop-color="#5781C1"/>
</linearGradient>
<clipPath id="clip0_196_49">
<rect width="100" height="52" fill="white"/>
</clipPath>
</defs>
</svg>
