<svg width="200" height="120" viewBox="0 0 200 120" fill="none" xmlns="http://www.w3.org/2000/svg">
<g clip-path="url(#clip0_118_822)">
<path d="M0 15.1684V0H25.6623V83.6625H10.5045V15.1684H0Z" fill="#F1F2F2"/>
<path d="M32.5039 102.333V64.6592H45.6691V102.321H32.5039V102.333Z" fill="#F1F2F2"/>
<path d="M52.4995 16.9997L90.3364 0H167.669V15.1684H93.1699L67.6688 26.1676V29.6689H167.669V83.8353H52.4995V16.9997ZM152.499 68.6668V44.8373H67.6688V68.6668H152.499Z" fill="#F1F2F2"/>
<path d="M174.338 15.1684V0H200V83.6625H184.831V15.1684H174.326H174.338Z" fill="#F1F2F2"/>
<path d="M167.567 66.1344L87.0762 80.5872C76.2757 82.5265 69.092 92.8511 71.0309 103.648C72.9697 114.444 83.2969 121.625 94.0974 119.685L174.588 105.233C185.389 103.293 192.573 92.9688 190.634 82.1721C188.695 71.3755 178.368 64.1951 167.567 66.1344Z" fill="url(#paint0_linear_118_822)"/>
<path d="M90.3363 106.571L91.3959 104.509C92.5593 105.028 93.7226 104.993 94.9435 104.774C96.2681 104.532 97.2817 103.726 97.1204 102.805C96.9937 102.102 96.245 101.872 95.0932 101.803L94.0105 101.734C92.1216 101.665 90.6242 101.054 90.3247 99.338C89.8525 96.7005 92.0064 94.3164 95.0932 93.7636C97.0974 93.4066 98.7329 93.5908 100.023 94.2358L98.8481 96.4932C97.9036 96.0786 96.7979 96.0556 95.7613 96.2398C94.4713 96.4702 93.377 97.1958 93.5383 98.0942C93.6535 98.7506 94.333 98.8773 95.3236 98.9925L96.3948 99.1192C98.3529 99.3265 99.9999 99.96 100.334 101.791C100.829 104.567 98.5487 106.732 95.3697 107.308C93.3195 107.677 91.5687 107.4 90.3478 106.582L90.3363 106.571Z" fill="#F1F2F2"/>
<path d="M110.136 93.9939L107.429 94.4776L107.452 104.878L104.25 105.454L104.227 95.0535L101.566 95.5372L101.543 92.8422L104.204 92.3584V88.5231L107.395 87.9473V91.7826L110.136 91.2873V93.9939Z" fill="#F1F2F2"/>
<path d="M122.357 89.0986L122.38 102.205L119.316 102.758L119.247 101.019C118.417 102.482 117.047 103.403 115.561 103.668C113.154 104.106 111.414 103.023 111.046 101.031C110.505 98.0131 112.946 95.8939 116.171 95.318C117.139 95.1453 118.176 95.0762 119.155 95.1222V92.2774L111.737 93.6135L111.76 91.0105L122.368 89.1102L122.357 89.0986ZM119.166 97.3336V97.253C118.348 97.253 117.565 97.3221 116.966 97.4257C115.25 97.7367 114.052 98.8193 114.294 100.121C114.444 100.95 115.077 101.388 116.16 101.192C117.669 100.927 119.074 99.3837 119.166 97.3221V97.3336Z" fill="#F1F2F2"/>
<path d="M125.582 88.5234L128.668 87.9705V89.6521C129.647 88.1663 131.237 87.268 133.31 86.8994V89.94C130.661 90.4122 128.807 92.1744 128.795 94.1324L128.818 101.054L125.616 101.63L125.57 88.5234H125.582Z" fill="#F1F2F2"/>
<path d="M142.64 88.1658L139.933 88.6495L139.956 99.0497L136.754 99.6256L136.731 89.2254L134.07 89.7091L134.047 87.014L136.708 86.5303V82.695L139.899 82.1191V85.9544L142.64 85.4592V88.1543V88.1658Z" fill="#F1F2F2"/>
<path d="M154.861 83.2598L154.884 96.3666L151.82 96.9194L151.751 95.1803C150.921 96.643 149.551 97.5644 148.065 97.8293C145.658 98.267 143.918 97.1843 143.55 95.1918C143.008 92.1742 145.45 90.055 148.675 89.4792C149.643 89.3064 150.679 89.2373 151.659 89.2834V86.4386L144.241 87.7746L144.264 85.1717L154.872 83.2713L154.861 83.2598ZM151.67 91.4947V91.4141C150.852 91.4141 150.058 91.4832 149.47 91.5869C147.754 91.8978 146.556 92.9805 146.798 94.2819C146.948 95.1112 147.581 95.5489 148.664 95.3531C150.173 95.0766 151.578 93.5448 151.67 91.4832V91.4947Z" fill="#F1F2F2"/>
<path d="M171.47 85.5402C172.23 89.7786 169.742 93.9479 165.745 94.662C163.718 95.0305 162.267 94.4086 161.322 93.1762L161.357 100.559L158.155 101.135L158.097 82.6838L161.184 82.131L161.242 83.9162C162.105 82.4765 163.453 81.4745 165.319 81.1405C168.406 80.5877 170.894 82.2807 171.481 85.5286L171.47 85.5402ZM168.256 86.5998C167.922 84.7109 166.574 83.7434 164.662 84.089C162.635 84.4575 161.311 86.3003 161.288 88.6038V88.6729C161.299 88.9378 161.322 89.1797 161.357 89.41C161.714 91.368 163.038 92.2894 164.927 91.9554C167.358 91.5177 168.671 88.9954 168.245 86.5882L168.256 86.5998Z" fill="#F1F2F2"/>
</g>
<defs>
<linearGradient id="paint0_linear_118_822" x1="204.849" y1="113.162" x2="206.091" y2="79.0333" gradientUnits="userSpaceOnUse">
<stop offset="0.0405605" stop-color="#E8B283"/>
<stop offset="1" stop-color="#428AFF"/>
</linearGradient>
<clipPath id="clip0_118_822">
<rect width="200" height="120" fill="white"/>
</clipPath>
</defs>
</svg>
