<svg width="62" height="34" viewBox="0 0 62 34" fill="none" xmlns="http://www.w3.org/2000/svg">
<g clip-path="url(#clip0_426_685)">
<path d="M0 6.43901V2H7.53113V26.4837H3.07938V6.43901H0Z" fill="#F1F2F2"/>
<path d="M9.53906 31.9473V20.9256H13.4027V31.9473H9.53906Z" fill="#F1F2F2"/>
<path d="M15.4072 6.97493L26.5112 2H49.2061V6.43901H27.3428L19.859 9.65789V10.6825H49.2061V26.5342H15.4072V6.97493ZM44.7543 22.0952V15.1215H19.859V22.0952H44.7543Z" fill="#F1F2F2"/>
<path d="M51.163 6.43901V2H58.6942V26.4837H54.2424V6.43901H51.1597H51.163Z" fill="#F1F2F2"/>
<path d="M54.5076 17.5418L32.7868 21.3608C29.3139 21.9714 26.995 25.2737 27.6073 28.7367C28.2197 32.1996 31.5314 34.5119 35.0043 33.9013L56.7252 30.0823C60.1981 29.4717 62.517 26.1694 61.9046 22.7064C61.2923 19.2435 57.9805 16.9312 54.5076 17.5418Z" fill="url(#paint0_linear_426_685)"/>
<path d="M32.2777 29.7733L32.6022 29.1498C32.9537 29.3082 33.3086 29.2981 33.6805 29.234C34.0827 29.1633 34.3937 28.9172 34.343 28.6408C34.3058 28.4251 34.0793 28.3577 33.7278 28.3375L33.3999 28.3139C32.8286 28.2903 32.3757 28.1049 32.281 27.5825C32.1391 26.7837 32.7948 26.0657 33.7312 25.9006C34.3396 25.7927 34.8365 25.8534 35.2252 26.0489L34.8669 26.7297C34.5796 26.605 34.245 26.5949 33.9306 26.6522C33.5385 26.723 33.2072 26.9421 33.2546 27.2117C33.2884 27.4106 33.4945 27.4477 33.7954 27.4847L34.1199 27.5218C34.7148 27.5858 35.2117 27.778 35.3131 28.3341C35.4618 29.1767 34.7655 29.8273 33.7988 29.9992C33.1768 30.107 32.6461 30.0261 32.2743 29.7733H32.2777Z" fill="#F1F2F2"/>
<path d="M38.3015 25.9848L37.4801 26.1298V29.2779L36.5032 29.4498V26.3017L35.6987 26.4432V25.6276L36.5032 25.486V24.3232L37.4767 24.1513V25.3141L38.3049 25.1692V25.9848H38.3015Z" fill="#F1F2F2"/>
<path d="M42.0195 24.5153L42.0128 28.4824L41.0832 28.6476L41.0629 28.1218C40.8094 28.5633 40.3936 28.8431 39.9441 28.9206C39.2139 29.0487 38.6832 28.7217 38.5785 28.115C38.4162 27.2016 39.1599 26.5646 40.1401 26.3927C40.4342 26.3421 40.7486 26.3219 41.046 26.3354V25.4759L38.7948 25.8736L38.8015 25.0849L42.0229 24.5186L42.0195 24.5153ZM41.0426 27.0027V26.9791C40.7959 26.9791 40.5559 26.9994 40.3767 27.0297C39.8528 27.1207 39.4911 27.451 39.5621 27.842C39.606 28.0914 39.7987 28.2262 40.13 28.1689C40.5863 28.0881 41.0156 27.6229 41.046 26.9994L41.0426 27.0027Z" fill="#F1F2F2"/>
<path d="M43.0029 24.34L43.9393 24.1748V24.6838C44.2367 24.2355 44.7201 23.9659 45.3522 23.8546L45.3454 24.7748C44.5443 24.9164 43.9832 25.4489 43.9764 26.0388V28.1352L43.0063 28.3071V24.34H43.0029Z" fill="#F1F2F2"/>
<path d="M48.1819 24.249L47.3605 24.3939V27.542L46.3836 27.7139V24.5658L45.5791 24.7074V23.8917L46.3836 23.7502V22.5873L47.3571 22.4154V23.5783L48.1853 23.4333V24.249H48.1819Z" fill="#F1F2F2"/>
<path d="M48.7126 26.0017C48.6957 25.9006 48.6855 25.7995 48.6855 25.6916V23.3457L49.6557 23.1738V25.5062C49.659 25.5804 49.6658 25.6444 49.676 25.7084C49.7469 26.0994 50.0444 26.2848 50.4804 26.2073C50.974 26.1197 51.3154 25.7084 51.312 25.2366V22.8806L52.2889 22.7087V25.1287C52.2889 26.123 51.5925 26.8713 50.5413 27.0533C49.5543 27.2286 48.8512 26.7971 48.7092 25.9983L48.7126 26.0017Z" fill="#F1F2F2"/>
<path d="M57.2745 23.4198C57.501 24.704 56.7438 25.9646 55.5269 26.177C54.9117 26.2848 54.4723 26.0961 54.185 25.7219V27.9566L53.2148 28.1285V22.5435L54.1545 22.3783L54.1681 22.921C54.4317 22.4862 54.8407 22.1862 55.4086 22.0851C56.3449 21.9199 57.1021 22.4356 57.2745 23.4198ZM56.2976 23.74C56.1962 23.1704 55.7906 22.8738 55.2092 22.9749C54.594 23.0828 54.1917 23.6389 54.1816 24.34V24.3602C54.185 24.4411 54.1917 24.5153 54.2019 24.5861C54.3067 25.1793 54.7123 25.459 55.2835 25.3613C56.0204 25.2332 56.4261 24.4681 56.2942 23.74H56.2976Z" fill="#F1F2F2"/>
</g>
<defs>
<linearGradient id="paint0_linear_426_685" x1="27.7032" y1="24.8729" x2="62.3048" y2="26.6126" gradientUnits="userSpaceOnUse">
<stop stop-color="#E8B282"/>
<stop offset="0.12" stop-color="#CAA78E"/>
<stop offset="0.31" stop-color="#A19AA0"/>
<stop offset="0.5" stop-color="#808FAE"/>
<stop offset="0.68" stop-color="#6987B8"/>
<stop offset="0.85" stop-color="#5B82BE"/>
<stop offset="1" stop-color="#5781C1"/>
</linearGradient>
<clipPath id="clip0_426_685">
<rect width="62" height="34" fill="white"/>
</clipPath>
</defs>
</svg>
