<svg width="178" height="92" viewBox="0 0 178 92" fill="none" xmlns="http://www.w3.org/2000/svg">
<g clip-path="url(#clip0_257_167)">
<path d="M0 12.7622V0H21.6216V70.3906H8.8408V12.7622H0Z" fill="#1D1D1E"/>
<path d="M27.3862 86.0985V54.4111H38.4785V86.0985H27.3862Z" fill="#1D1D1E"/>
<path d="M44.2332 14.3029L76.1124 0H141.268V12.7622H78.4998L57.014 22.0164V24.9623H141.268V70.5359H44.2332V14.3029ZM128.488 57.7738V37.7245H57.014V57.7738H128.488Z" fill="#1D1D1E"/>
<path d="M146.887 12.7622V0H168.509V70.3906H155.728V12.7622H146.878H146.887Z" fill="#1D1D1E"/>
<path d="M156.489 44.6828L94.129 55.6624C84.1584 57.4179 77.5009 66.912 79.259 76.868C81.017 86.824 90.525 93.4718 100.496 91.7163L162.855 80.7366C172.826 78.9811 179.484 69.4871 177.725 59.5311C175.967 49.5751 166.459 42.9272 156.489 44.6828Z" fill="url(#paint0_linear_257_167)"/>
<path d="M92.6683 79.8484L93.6 78.0557C94.6092 78.5111 95.6282 78.482 96.6957 78.2979C97.8506 78.0944 98.7434 77.387 98.5978 76.5924C98.4911 75.9722 97.8408 75.7784 96.8316 75.7203L95.8902 75.6525C94.2502 75.5846 92.9498 75.0517 92.6781 73.5497C92.2705 71.2531 94.1531 69.189 96.8413 68.7142C98.5881 68.4041 100.015 68.5785 101.131 69.1406L100.102 71.098C99.2771 70.7395 98.3164 70.7104 97.4139 70.8751C96.2881 71.0786 95.3371 71.7085 95.4729 72.4837C95.57 73.0555 96.162 73.1621 97.0257 73.2686L97.9573 73.3752C99.6653 73.5594 101.092 74.1117 101.383 75.7106C101.81 78.1332 99.8109 80.0034 97.0354 80.4976C95.2497 80.8077 93.7261 80.5752 92.6586 79.8484H92.6683Z" fill="#1D1D1E"/>
<path d="M109.962 68.9564L107.604 69.373V78.4238L104.799 78.918V69.8672L102.489 70.2742V67.9292L104.799 67.5222V64.179L107.594 63.6848V67.028L109.971 66.6113V68.9564H109.962Z" fill="#1D1D1E"/>
<path d="M120.637 64.7314L120.617 76.137L117.948 76.6118L117.89 75.1001C117.162 76.3695 115.969 77.1738 114.678 77.3967C112.582 77.7649 111.058 76.825 110.757 75.0807C110.292 72.4546 112.427 70.6232 115.241 70.129C116.085 69.9836 116.988 69.9255 117.842 69.9642V67.4932L111.378 68.6366L111.398 66.3691L120.646 64.7411L120.637 64.7314ZM117.832 71.8829V71.8151C117.124 71.8151 116.435 71.8732 115.92 71.9604C114.416 72.2221 113.378 73.1717 113.581 74.2958C113.708 75.0129 114.261 75.4005 115.212 75.2358C116.522 75.0032 117.754 73.6659 117.842 71.8732L117.832 71.8829Z" fill="#1D1D1E"/>
<path d="M123.461 64.2274L126.149 63.7526V65.2159C127.003 63.927 128.391 63.1518 130.205 62.832L130.186 65.4775C127.886 65.8845 126.275 67.4156 126.256 69.1114V75.1388L123.47 75.633V64.2274H123.461Z" fill="#1D1D1E"/>
<path d="M138.328 63.9659L135.97 64.3826V73.4333L133.165 73.9275V64.8768L130.855 65.2838V62.9387L133.165 62.5317V59.1885L135.96 58.6943V62.0375L138.338 61.6208V63.9659H138.328Z" fill="#1D1D1E"/>
<path d="M139.852 69.0048C139.803 68.7141 139.774 68.4234 139.774 68.1133V61.3688L142.559 60.8746V67.5803C142.569 67.7935 142.588 67.9776 142.617 68.1617C142.821 69.2858 143.675 69.8188 144.927 69.5959C146.344 69.344 147.324 68.1618 147.314 66.8051V60.0316L150.119 59.5374V66.495C150.119 69.3537 148.12 71.5049 145.102 72.0282C142.268 72.5321 140.249 71.2917 139.842 68.9951L139.852 69.0048Z" fill="#1D1D1E"/>
<path d="M164.433 61.5821C165.083 65.2741 162.91 68.8983 159.416 69.5088C157.65 69.8189 156.388 69.2762 155.563 68.2006V74.6253L152.778 75.1195V59.0626L155.476 58.5878L155.515 60.1479C156.272 58.8979 157.446 58.0354 159.076 57.7447C161.764 57.2699 163.938 58.7525 164.433 61.5821ZM161.629 62.5027C161.337 60.865 160.173 60.0123 158.504 60.303C156.738 60.6131 155.583 62.212 155.554 64.2276V64.2857C155.563 64.5183 155.583 64.7315 155.612 64.935C155.913 66.6405 157.077 67.4448 158.717 67.1637C160.833 66.7955 161.997 64.5958 161.619 62.5027H161.629Z" fill="#1D1D1E"/>
</g>
<defs>
<linearGradient id="paint0_linear_257_167" x1="79.5343" y1="65.7596" x2="178.875" y2="70.7474" gradientUnits="userSpaceOnUse">
<stop stop-color="#E8B282"/>
<stop offset="0.12" stop-color="#CAA78E"/>
<stop offset="0.31" stop-color="#A19AA0"/>
<stop offset="0.5" stop-color="#808FAE"/>
<stop offset="0.68" stop-color="#6987B8"/>
<stop offset="0.85" stop-color="#5B82BE"/>
<stop offset="1" stop-color="#5781C1"/>
</linearGradient>
<clipPath id="clip0_257_167">
<rect width="178" height="92" fill="white"/>
</clipPath>
</defs>
</svg>
