<svg width="110" height="60" viewBox="0 0 110 60" fill="none" xmlns="http://www.w3.org/2000/svg">
<g clip-path="url(#clip0_426_771)">
<path d="M0 11.363V3.52942H13.3617V46.7359H5.46342V11.363H0Z" fill="#1D1D1E"/>
<path d="M16.9241 56.3777V36.9276H23.7789V56.3777H16.9241Z" fill="#1D1D1E"/>
<path d="M27.3354 12.3087L47.0361 3.52942H87.301V11.363H48.5114L35.2337 17.0433V18.8515H87.301V46.8251H27.3354V12.3087ZM79.4028 38.9916V26.6851H35.2337V38.9916H79.4028Z" fill="#1D1D1E"/>
<path d="M90.7731 11.363V3.52942H104.135V46.7359H96.2366V11.363H90.7672H90.7731Z" fill="#1D1D1E"/>
<path d="M96.7071 30.9561L58.1701 37.6955C52.0085 38.7731 47.8943 44.6006 48.9807 50.7117C50.0672 56.8228 55.9429 60.9033 62.1045 59.8258L100.641 53.0863C106.803 52.0088 110.917 46.1812 109.831 40.0701C108.744 33.959 102.869 29.8785 96.7071 30.9561Z" fill="url(#paint0_linear_426_771)"/>
<path d="M57.2668 52.5412L57.8426 51.4408C58.4663 51.7204 59.096 51.7025 59.7556 51.5895C60.4693 51.4646 61.021 51.0304 60.9311 50.5427C60.8651 50.162 60.4633 50.043 59.8396 50.0074L59.2579 49.9657C58.2444 49.9241 57.4407 49.5969 57.2728 48.675C57.0209 47.2653 58.1844 45.9984 59.8456 45.7069C60.9251 45.5166 61.8067 45.6237 62.4964 45.9686L61.8607 47.1702C61.3509 46.9501 60.7572 46.9322 60.1994 47.0333C59.5038 47.1583 58.916 47.5449 59 48.0207C59.06 48.3717 59.4258 48.4371 59.9596 48.5025L60.5353 48.5679C61.5908 48.6809 62.4724 49.02 62.6523 50.0014C62.9162 51.4884 61.6807 52.6364 59.9655 52.9397C58.8621 53.1301 57.9205 52.9873 57.2608 52.5412H57.2668Z" fill="#1D1D1E"/>
<path d="M67.9542 45.8556L66.4969 46.1114V51.6668L64.7637 51.9702V46.4147L63.3364 46.6645V45.2251L64.7637 44.9753V42.9232L66.4909 42.6199V44.6719L67.9602 44.4162V45.8556H67.9542Z" fill="#1D1D1E"/>
<path d="M74.5507 43.2622L74.5388 50.263L72.8895 50.5545L72.8536 49.6266C72.4038 50.4058 71.6661 50.8995 70.8685 51.0363C69.5731 51.2623 68.6315 50.6853 68.4456 49.6147C68.1578 48.0028 69.4771 46.8786 71.2163 46.5753C71.7381 46.486 72.2958 46.4503 72.8236 46.4741V44.9574L68.8295 45.6593L68.8414 44.2674L74.5567 43.2682L74.5507 43.2622ZM72.8176 47.6519V47.6102C72.3798 47.6102 71.954 47.6459 71.6361 47.6994C70.7066 47.86 70.0649 48.4429 70.1908 49.1329C70.2688 49.5731 70.6106 49.811 71.1983 49.7099C72.008 49.5671 72.7696 48.7463 72.8236 47.6459L72.8176 47.6519Z" fill="#1D1D1E"/>
<path d="M76.2955 42.953L77.9567 42.6615V43.5597C78.4845 42.7686 79.3421 42.2927 80.4636 42.0964L80.4516 43.7202C79.0302 43.9701 78.0347 44.9099 78.0227 45.9508V49.6504L76.3015 49.9538V42.953H76.2955Z" fill="#1D1D1E"/>
<path d="M85.484 42.7924L84.0267 43.0481V48.6036L82.2935 48.9069V43.3515L80.8661 43.6013V42.1619L82.2935 41.9121V39.86L84.0207 39.5566V41.6087L85.49 41.3529V42.7924H85.484Z" fill="#1D1D1E"/>
<path d="M86.4255 45.8853C86.3956 45.7069 86.3776 45.5284 86.3776 45.3381V41.1983L88.0987 40.8949V45.011C88.1047 45.1418 88.1167 45.2548 88.1347 45.3678C88.2607 46.0578 88.7884 46.385 89.5621 46.2482C90.4376 46.0935 91.0434 45.3678 91.0374 44.5351V40.3774L92.7705 40.0741V44.3448C92.7705 46.0995 91.5351 47.4199 89.67 47.7411C87.9188 48.0504 86.6714 47.2891 86.4195 45.8794L86.4255 45.8853Z" fill="#1D1D1E"/>
<path d="M101.616 41.3292C102.018 43.5954 100.674 45.8199 98.5155 46.1947C97.424 46.385 96.6444 46.0519 96.1346 45.3917V49.3352L94.4135 49.6386V39.7827L96.0807 39.4912L96.1047 40.4489C96.5724 39.6816 97.2981 39.1522 98.3056 38.9738C99.9668 38.6823 101.31 39.5924 101.616 41.3292ZM99.8829 41.8942C99.703 40.889 98.9833 40.3656 97.9518 40.544C96.8603 40.7344 96.1466 41.7158 96.1286 42.953V42.9887C96.1346 43.1314 96.1466 43.2623 96.1646 43.3872C96.3505 44.434 97.0702 44.9277 98.0837 44.7552C99.3911 44.5292 100.111 43.179 99.8769 41.8942H99.8829Z" fill="#1D1D1E"/>
</g>
<defs>
<linearGradient id="paint0_linear_426_771" x1="49.1509" y1="43.8933" x2="110.539" y2="46.9964" gradientUnits="userSpaceOnUse">
<stop stop-color="#E8B282"/>
<stop offset="0.12" stop-color="#CAA78E"/>
<stop offset="0.31" stop-color="#A19AA0"/>
<stop offset="0.5" stop-color="#808FAE"/>
<stop offset="0.68" stop-color="#6987B8"/>
<stop offset="0.85" stop-color="#5B82BE"/>
<stop offset="1" stop-color="#5781C1"/>
</linearGradient>
<clipPath id="clip0_426_771">
<rect width="110" height="60" fill="white"/>
</clipPath>
</defs>
</svg>
