<svg width="36" height="48" viewBox="0 0 36 48" fill="none" xmlns="http://www.w3.org/2000/svg">
<path d="M17.4923 0.078733L17.3891 0L6.74389 5.22353L0 13.1566L3.50769 35.9213L18.2959 48L30.7385 37.7864L35.2643 13.705L17.4923 0.078733Z" fill="#F1F2F2"/>
<path d="M10.0099 22.6227C8.38094 21.8517 7.38999 21.3223 7.38999 20.4616C7.38999 18.9874 8.64972 18.4662 9.73027 18.4662C10.8841 18.4662 11.6253 19.0092 11.9511 19.3159V20.3721H13.8135V18.9549L13.6289 18.3983C13.5746 18.325 12.2633 16.6064 9.73027 16.6064C7.19723 16.6064 5.52755 18.23 5.52755 20.4644C5.52755 22.5657 7.48502 23.4915 9.21171 24.306C11.1447 25.2209 12.3203 25.8725 12.3203 27.1974C12.3203 27.792 12.3203 29.3639 9.72212 29.3639C8.37009 29.3639 7.49859 28.7693 7.15651 28.2915V27.1268H5.29407V28.5467L5.39181 28.9594C5.94837 30.0861 7.50674 31.2264 9.72212 31.2264C12.5131 31.2264 14.18 29.7196 14.18 27.1974C14.18 24.6752 11.8669 23.4997 10.0072 22.6227H10.0099Z" fill="#1D1D1E"/>
<path d="M19.8815 20.3706H16.8625V22.233H18.019V29.1398H16.8625V31.0023H21.1304V29.1398H19.8815V20.3706Z" fill="#1D1D1E"/>
<path d="M24.695 17.0229L23.1882 17.3189V17.9542H23.7665V22.0184H23.1882V22.9496H25.3221V22.0184H24.695V17.0229Z" fill="#1D1D1E"/>
<path d="M29.3946 21.0872V17.1099H27.8172L26.3973 21.0872V22.0185H28.4606V22.9497H29.3918V22.0185H30.0651V21.0872H29.3918H29.3946ZM28.4633 21.0872H27.3882L28.4633 18.0709V21.0872Z" fill="#1D1D1E"/>
<path d="M18.752 18.8584C19.3764 18.8584 19.8787 18.3534 19.8787 17.7317C19.8787 17.11 19.3737 16.605 18.752 16.605C18.1303 16.605 17.6253 17.11 17.6253 17.7317C17.6253 18.3534 18.1303 18.8584 18.752 18.8584Z" fill="#1D1D1E"/>
</svg>
