<svg width="72" height="99" viewBox="0 0 72 99" fill="none" xmlns="http://www.w3.org/2000/svg">
<path d="M35.7145 0.957626L35.5039 0.796875L13.7692 11.4619L0 27.659L7.16175 74.1383L37.3553 98.7998L62.7596 77.9465L72 28.7787L35.7145 0.957626Z" fill="#F1F2F2"/>
<path d="M20.4377 46.9877C17.1118 45.4135 15.0885 44.3326 15.0885 42.5754C15.0885 39.5654 17.6605 38.5012 19.8667 38.5012C22.2226 38.5012 23.7358 39.6098 24.401 40.2362V42.3925H28.2036V39.4989L27.8267 38.3626C27.7158 38.2129 25.0385 34.7041 19.8667 34.7041C14.695 34.7041 11.2859 38.0189 11.2859 42.5809C11.2859 46.8713 15.2825 48.7615 18.808 50.4245C22.7547 52.2925 25.1549 53.6229 25.1549 56.3279C25.1549 57.5419 25.1549 60.7514 19.8501 60.7514C17.0896 60.7514 15.3102 59.5374 14.6118 58.5618V56.1838H10.8092V59.0829L11.0088 59.9254C12.1451 62.2259 15.3269 64.554 19.8501 64.554C25.5484 64.554 28.9519 61.4775 28.9519 56.3279C28.9519 51.1784 24.2292 48.7782 20.4321 46.9877H20.4377Z" fill="#1D1D1E"/>
<path d="M40.5926 42.3872H34.4286V46.1898H36.79V60.2916H34.4286V64.0942H43.1424V60.2916H40.5926V42.3872Z" fill="#1D1D1E"/>
<path d="M50.4204 35.5527L47.344 36.1569V37.454H48.5247V45.7521H47.344V47.6534H51.7009V45.7521H50.4204V35.5527Z" fill="#1D1D1E"/>
<path d="M60.0156 43.8507V35.73H56.7951L53.896 43.8507V45.752H58.1088V47.6533H60.0101V45.752H61.3848V43.8507H60.0101H60.0156ZM58.1143 43.8507H55.9192L58.1143 37.6923V43.8507Z" fill="#1D1D1E"/>
<path d="M38.2865 39.2995C39.5614 39.2995 40.5869 38.2685 40.5869 36.9991C40.5869 35.7298 39.5559 34.6987 38.2865 34.6987C37.0171 34.6987 35.9861 35.7298 35.9861 36.9991C35.9861 38.2685 37.0171 39.2995 38.2865 39.2995Z" fill="#1D1D1E"/>
</svg>
