<svg width="1309" height="499" viewBox="0 0 1309 499" fill="none" xmlns="http://www.w3.org/2000/svg">
<path d="M85.8 153.09H127.47L147.9 162.18V177.48H107.76L93.99 183.42V190.08H147.9V198.18H85.8V178.11L106.14 169.38H139.71V167.13L125.94 161.19H85.8V153.09ZM151.542 189V161.91L171.522 153H192.492L212.472 161.91V189L192.492 197.91H171.522L151.542 189ZM159.552 183.78L173.052 189.9H190.962L204.462 183.78V166.86L190.962 161.01H173.052L159.552 166.86V183.78ZM216.054 189V161.91L236.034 153H257.004L276.984 161.91V189L257.004 197.91H236.034L216.054 189ZM224.064 183.78L237.564 189.9H255.474L268.974 183.78V166.86L255.474 161.01H237.564L224.064 166.86V183.78ZM280.566 181.98V170.82H290.016V161.28H301.176V170.82H310.266V181.98H301.176V190.98H290.016V181.98H280.566Z" fill="white"/>
<path d="M305.9 327.09V335.19H251.99V341.76L265.76 347.7H305.9V363.09L285.47 372.18H243.8V364.08H283.94L297.71 357.78V355.89H264.14L243.8 346.8V327.09H305.9ZM309.542 363V335.91L329.522 327H350.492L370.472 335.91V363L350.492 371.91H329.522L309.542 363ZM317.552 357.78L331.052 363.9H348.962L362.462 357.78V340.86L348.962 335.01H331.052L317.552 340.86V357.78ZM374.054 355.98V344.82H383.504V335.28H394.664V344.82H403.754V355.98H394.664V364.98H383.504V355.98H374.054Z" fill="white"/>
<path d="M981.8 177.12V168.93H1035.8V167.04L1021.94 161.1H981.8V152.91H1023.56L1043.9 162V198.09H981.8V189.99H1035.8V177.12H981.8ZM1109.64 153.09V161.19H1055.73V167.76L1069.5 173.7H1109.64V189.09L1089.21 198.18H1047.54V190.08H1087.68L1101.45 183.78V181.89H1067.88L1047.54 172.8V153.09H1109.64ZM1113.28 189V161.91L1133.26 153H1154.23L1174.21 161.91V189L1154.23 197.91H1133.26L1113.28 189ZM1121.29 183.78L1134.79 189.9H1152.7L1166.2 183.78V166.86L1152.7 161.01H1134.79L1121.29 166.86V183.78ZM1177.8 181.98V170.82H1187.25V161.28H1198.41V170.82H1207.5V181.98H1198.41V190.98H1187.25V181.98H1177.8Z" fill="white"/>
<path d="M922.9 335.09V343.19H868.99V349.76L882.76 355.7H922.9V371.09L902.47 380.18H860.8V372.08H900.94L914.71 365.78V363.89H881.14L860.8 354.8V335.09H922.9ZM926.542 371V343.91L946.522 335H967.492L987.472 343.91V371L967.492 379.91H946.522L926.542 371ZM934.552 365.78L948.052 371.9H965.962L979.462 365.78V348.86L965.962 343.01H948.052L934.552 348.86V365.78ZM991.054 363.98V352.82H1000.5V343.28H1011.66V352.82H1020.75V363.98H1011.66V372.98H1000.5V363.98H991.054Z" fill="white"/>
<path d="M467.8 52.82H491.74V46.97H497.95V52.82H508.84V46.97H516.85V60.83H497.95V69.47H508.84L528.91 78.47V97.82H497.95V104.03H491.74V97.82H467.8V89.81H491.74V77.48H467.8V52.82ZM520.81 89.81V83.69L507.31 77.48H497.95V89.81H520.81ZM475.81 60.83V69.47H491.74V60.83H475.81ZM532.488 53.09H574.158L594.588 62.18V77.48H554.447L540.678 83.42V90.08H594.588V98.18H532.488V78.11L552.828 69.38H586.398V67.13L572.628 61.19H532.488V53.09ZM598.23 89V61.91L618.21 53H639.18L659.16 61.91V89L639.18 97.91H618.21L598.23 89ZM606.24 83.78L619.74 89.9H637.65L651.15 83.78V66.86L637.65 61.01H619.74L606.24 66.86V83.78ZM662.741 89V61.91L682.721 53H703.691L723.671 61.91V89L703.691 97.91H682.721L662.741 89ZM670.751 83.78L684.251 89.9H702.161L715.661 83.78V66.86L702.161 61.01H684.251L670.751 66.86V83.78ZM748.753 98V81.96L757.633 78H772.313L781.193 81.96V98H777.633V84.16L771.633 81.56H766.673V98H763.273V81.56H758.353L752.313 84.16V98H748.753ZM782.777 94.52H785.377V82.04L794.337 78.04H812.577V98.08H809.017V81.6H795.137L788.977 84.24V98.08H782.777V94.52ZM814.261 98V77.96H817.821V87.72L823.181 85.36H832.541L837.901 87.72V77.96H841.501V98H837.901V91.56L831.861 88.96H823.901L817.821 91.56V98H814.261Z" fill="white"/>
<path d="M532.23 123V111.192H541.974V123H539.91V112.872H534.294V123H532.23ZM556.444 117.072C556.444 118.928 555.956 120.432 554.98 121.584C554.004 122.736 552.756 123.312 551.236 123.312C549.46 123.312 548.156 122.68 547.324 121.416V127.32H545.26V111.192H547.204V113.016C548.084 111.592 549.428 110.88 551.236 110.88C552.756 110.88 554.004 111.456 554.98 112.608C555.956 113.76 556.444 115.248 556.444 117.072ZM553.396 120.312C554.02 119.496 554.332 118.416 554.332 117.072C554.332 115.728 554.02 114.656 553.396 113.856C552.788 113.04 551.964 112.632 550.924 112.632C549.82 112.632 548.932 113.032 548.26 113.832C547.588 114.632 547.252 115.712 547.252 117.072C547.252 118.448 547.588 119.536 548.26 120.336C548.932 121.136 549.82 121.536 550.924 121.536C551.948 121.536 552.772 121.128 553.396 120.312ZM567.131 111.192H569.363V123H567.419V118.152C567.419 116.2 567.443 114.568 567.491 113.256C566.499 114.904 565.587 116.36 564.755 117.624L561.251 123H559.043V111.192H560.987V116.424C560.987 117.976 560.963 119.448 560.915 120.84C562.163 118.824 563.067 117.4 563.627 116.568L567.131 111.192ZM582.907 119.688C582.907 120.696 582.555 121.504 581.851 122.112C581.147 122.704 580.179 123 578.947 123H572.683V111.192H578.659C579.843 111.192 580.795 111.472 581.515 112.032C582.235 112.576 582.595 113.328 582.595 114.288C582.595 114.912 582.411 115.456 582.043 115.92C581.691 116.384 581.203 116.712 580.579 116.904C581.299 117.08 581.867 117.416 582.283 117.912C582.699 118.392 582.907 118.984 582.907 119.688ZM574.723 112.824V116.232H578.371C579.091 116.232 579.635 116.08 580.003 115.776C580.371 115.456 580.555 115.016 580.555 114.456C580.555 113.368 579.827 112.824 578.371 112.824H574.723ZM580.843 119.568C580.843 118.992 580.627 118.544 580.195 118.224C579.779 117.888 579.163 117.72 578.347 117.72H574.723V121.344H578.395C580.027 121.344 580.843 120.752 580.843 119.568ZM583.904 122.976L584.12 121.272C584.44 121.32 584.744 121.344 585.032 121.344C585.736 121.28 586.168 121 586.328 120.504C586.504 119.992 586.616 118.728 586.664 116.712L586.712 111.192H595.448V123H593.384V112.872H588.584L588.536 116.784C588.488 119.312 588.264 120.984 587.864 121.8C587.464 122.616 586.592 123.056 585.248 123.12C584.736 123.12 584.288 123.072 583.904 122.976ZM607.769 119.64L608.993 120.888C608.145 121.784 607.329 122.416 606.545 122.784C605.761 123.152 604.865 123.336 603.857 123.336C602.081 123.336 600.657 122.776 599.585 121.656C598.529 120.52 598.001 119.024 598.001 117.168C598.001 115.312 598.513 113.8 599.537 112.632C600.577 111.448 601.945 110.856 603.641 110.856C605.321 110.856 606.625 111.36 607.553 112.368C608.497 113.376 608.969 114.768 608.969 116.544C608.969 116.768 608.953 117.072 608.921 117.456H600.065C600.129 118.704 600.489 119.712 601.145 120.48C601.801 121.232 602.713 121.608 603.881 121.608C604.617 121.608 605.249 121.464 605.777 121.176C606.305 120.904 606.969 120.392 607.769 119.64ZM600.113 115.92H606.929C606.881 114.864 606.561 114.032 605.969 113.424C605.393 112.816 604.609 112.512 603.617 112.512C602.657 112.512 601.873 112.808 601.265 113.4C600.657 113.992 600.273 114.832 600.113 115.92ZM618.478 111.192H620.542V123H618.478V118.224C617.614 118.624 616.55 118.824 615.286 118.824C613.782 118.824 612.686 118.528 611.998 117.936C611.31 117.328 610.966 116.4 610.966 115.152V111.192H613.03V115.056C613.03 115.76 613.222 116.28 613.606 116.616C614.006 116.952 614.654 117.12 615.55 117.12C616.702 117.12 617.678 116.928 618.478 116.544V111.192ZM632.847 119.64L634.071 120.888C633.223 121.784 632.407 122.416 631.623 122.784C630.839 123.152 629.943 123.336 628.935 123.336C627.159 123.336 625.735 122.776 624.663 121.656C623.607 120.52 623.079 119.024 623.079 117.168C623.079 115.312 623.591 113.8 624.615 112.632C625.655 111.448 627.023 110.856 628.719 110.856C630.399 110.856 631.703 111.36 632.631 112.368C633.575 113.376 634.047 114.768 634.047 116.544C634.047 116.768 634.031 117.072 633.999 117.456H625.143C625.207 118.704 625.567 119.712 626.223 120.48C626.879 121.232 627.791 121.608 628.959 121.608C629.695 121.608 630.327 121.464 630.855 121.176C631.383 120.904 632.047 120.392 632.847 119.64ZM625.191 115.92H632.007C631.959 114.864 631.639 114.032 631.047 113.424C630.471 112.816 629.687 112.512 628.695 112.512C627.735 112.512 626.951 112.808 626.343 113.4C625.735 113.992 625.351 114.832 625.191 115.92ZM646.532 123H644.468V117.744H638.732V123H636.668V111.192H638.732V116.04H644.468V111.192H646.532V123ZM659.151 112.608C660.239 113.76 660.783 115.256 660.783 117.096C660.783 118.936 660.239 120.44 659.151 121.608C658.063 122.76 656.663 123.336 654.951 123.336C653.239 123.336 651.831 122.76 650.727 121.608C649.639 120.44 649.095 118.936 649.095 117.096C649.095 115.256 649.639 113.76 650.727 112.608C651.831 111.44 653.239 110.856 654.951 110.856C656.663 110.856 658.063 111.44 659.151 112.608ZM652.215 113.832C651.543 114.664 651.207 115.752 651.207 117.096C651.207 118.44 651.543 119.528 652.215 120.36C652.903 121.192 653.815 121.608 654.951 121.608C656.087 121.608 656.991 121.2 657.663 120.384C658.335 119.552 658.671 118.456 658.671 117.096C658.671 115.736 658.335 114.648 657.663 113.832C656.991 113 656.087 112.584 654.951 112.584C653.815 112.584 652.903 113 652.215 113.832ZM678.978 119.688C678.978 120.696 678.626 121.504 677.922 122.112C677.218 122.704 676.25 123 675.018 123H668.754V111.192H674.73C675.914 111.192 676.866 111.472 677.586 112.032C678.306 112.576 678.666 113.328 678.666 114.288C678.666 114.912 678.482 115.456 678.114 115.92C677.762 116.384 677.274 116.712 676.65 116.904C677.37 117.08 677.938 117.416 678.354 117.912C678.77 118.392 678.978 118.984 678.978 119.688ZM670.794 112.824V116.232H674.442C675.162 116.232 675.706 116.08 676.074 115.776C676.442 115.456 676.626 115.016 676.626 114.456C676.626 113.368 675.898 112.824 674.442 112.824H670.794ZM676.914 119.568C676.914 118.992 676.698 118.544 676.266 118.224C675.85 117.888 675.234 117.72 674.418 117.72H670.794V121.344H674.466C676.098 121.344 676.914 120.752 676.914 119.568ZM687.129 123V111.192H696.873V123H694.809V112.872H689.193V123H687.129ZM711.343 117.072C711.343 118.928 710.855 120.432 709.879 121.584C708.903 122.736 707.655 123.312 706.135 123.312C704.359 123.312 703.055 122.68 702.223 121.416V127.32H700.159V111.192H702.103V113.016C702.983 111.592 704.327 110.88 706.135 110.88C707.655 110.88 708.903 111.456 709.879 112.608C710.855 113.76 711.343 115.248 711.343 117.072ZM708.295 120.312C708.919 119.496 709.231 118.416 709.231 117.072C709.231 115.728 708.919 114.656 708.295 113.856C707.687 113.04 706.863 112.632 705.823 112.632C704.719 112.632 703.831 113.032 703.159 113.832C702.487 114.632 702.151 115.712 702.151 117.072C702.151 118.448 702.487 119.536 703.159 120.336C703.831 121.136 704.719 121.536 705.823 121.536C706.847 121.536 707.671 121.128 708.295 120.312ZM723.229 112.608C724.317 113.76 724.861 115.256 724.861 117.096C724.861 118.936 724.317 120.44 723.229 121.608C722.141 122.76 720.741 123.336 719.029 123.336C717.317 123.336 715.909 122.76 714.805 121.608C713.717 120.44 713.173 118.936 713.173 117.096C713.173 115.256 713.717 113.76 714.805 112.608C715.909 111.44 717.317 110.856 719.029 110.856C720.741 110.856 722.141 111.44 723.229 112.608ZM716.293 113.832C715.621 114.664 715.285 115.752 715.285 117.096C715.285 118.44 715.621 119.528 716.293 120.36C716.981 121.192 717.893 121.608 719.029 121.608C720.165 121.608 721.069 121.2 721.741 120.384C722.413 119.552 722.749 118.456 722.749 117.096C722.749 115.736 722.413 114.648 721.741 113.832C721.069 113 720.165 112.584 719.029 112.584C717.893 112.584 716.981 113 716.293 113.832ZM736.394 119.64L737.618 120.888C736.77 121.784 735.954 122.416 735.17 122.784C734.386 123.152 733.49 123.336 732.482 123.336C730.706 123.336 729.282 122.776 728.21 121.656C727.154 120.52 726.626 119.024 726.626 117.168C726.626 115.312 727.138 113.8 728.162 112.632C729.202 111.448 730.57 110.856 732.266 110.856C733.946 110.856 735.25 111.36 736.178 112.368C737.122 113.376 737.594 114.768 737.594 116.544C737.594 116.768 737.578 117.072 737.546 117.456H728.69C728.754 118.704 729.114 119.712 729.77 120.48C730.426 121.232 731.338 121.608 732.506 121.608C733.242 121.608 733.874 121.464 734.402 121.176C734.93 120.904 735.594 120.392 736.394 119.64ZM728.738 115.92H735.554C735.506 114.864 735.186 114.032 734.594 113.424C734.018 112.816 733.234 112.512 732.242 112.512C731.282 112.512 730.498 112.808 729.89 113.4C729.282 113.992 728.898 114.832 728.738 115.92ZM748.279 123L744.463 117.744H742.279V123H740.215V111.192H742.279V116.04H744.463L748.015 111.192H750.247L746.095 116.808L750.607 123H748.279ZM761.186 112.872H757.25V123H755.186V112.872H751.226V111.192H761.186V112.872ZM763.324 123V111.192H765.388V115.152H768.748C770.076 115.152 771.14 115.512 771.94 116.232C772.756 116.936 773.164 117.888 773.164 119.088C773.164 120.288 772.756 121.24 771.94 121.944C771.14 122.648 770.076 123 768.748 123H763.324ZM765.388 121.296H768.412C770.172 121.296 771.052 120.56 771.052 119.088C771.052 117.6 770.172 116.856 768.412 116.856H765.388V121.296ZM776.764 111.192V123H774.7V111.192H776.764Z" fill="white"/>
<rect x="464.735" y="187.534" width="348.561" height="96.7488" rx="30" transform="rotate(7.13602 464.735 187.534)" fill="url(#paint0_linear_480_155)"/>
<path d="M775.938 228C773.995 225.245 773.198 221.847 770.48 219.516C767.919 217.323 765.257 215.464 762 214.316C765.235 213.03 768.099 211.388 770.536 208.909C772.928 206.475 774.478 203.57 775.949 200C777.578 203.433 778.982 206.371 781.318 208.713C783.587 210.986 786.158 212.766 789 213.856C788.921 214.786 788.528 215.131 788.09 215.246C785.833 215.82 784.013 217.105 782.418 218.77C781.037 220.205 779.577 221.56 778.488 223.27C777.769 224.395 777.387 225.658 776.983 226.909C776.792 227.506 776.556 227.92 775.949 228H775.938Z" fill="#00FF75"/>
<path d="M485.776 297C484.552 295.229 484.05 293.044 482.339 291.546C480.727 290.137 479.051 288.941 477 288.203C479.037 287.376 480.84 286.321 482.374 284.727C483.881 283.162 484.856 281.295 485.783 279C486.808 281.207 487.692 283.096 489.163 284.601C490.592 286.063 492.211 287.207 494 287.908C493.95 288.506 493.703 288.727 493.427 288.801C492.006 289.17 490.86 289.996 489.856 291.066C488.986 291.989 488.067 292.86 487.381 293.959C486.928 294.683 486.688 295.494 486.433 296.299C486.313 296.683 486.165 296.948 485.783 297H485.776Z" fill="#00FF75"/>
<path d="M455.295 295C451.769 289.883 450.322 283.572 445.389 279.244C440.742 275.172 435.911 271.718 430 269.586C435.87 267.198 441.068 264.15 445.491 259.544C449.832 255.025 452.645 249.631 455.315 243C458.271 249.375 460.819 254.833 465.058 259.182C469.176 263.403 473.843 266.708 479 268.733C478.857 270.46 478.144 271.1 477.349 271.313C473.252 272.379 469.95 274.767 467.056 277.859C464.549 280.524 461.899 283.039 459.922 286.216C458.617 288.305 457.924 290.651 457.191 292.975C456.844 294.083 456.416 294.851 455.315 295H455.295Z" fill="#00FF75"/>
<path d="M92.5453 216.584C91.4253 216.584 90.5453 217.024 89.9053 217.904C89.2653 218.768 88.9453 219.832 88.9453 221.096C88.9453 222.344 89.2573 223.408 89.8813 224.288C90.5213 225.152 91.4173 225.584 92.5693 225.584C93.2093 225.584 93.7853 225.448 94.2973 225.176C94.8253 224.888 95.4253 224.368 96.0973 223.616L97.4653 224.768C96.7133 225.712 95.9613 226.376 95.2093 226.76C94.4573 227.144 93.5773 227.336 92.5693 227.336C90.8413 227.336 89.4493 226.768 88.3933 225.632C87.3533 224.496 86.8333 222.984 86.8333 221.096C86.8333 219.224 87.3613 217.72 88.4173 216.584C89.4893 215.432 90.8733 214.856 92.5693 214.856C93.5453 214.856 94.3933 215.024 95.1133 215.36C95.8493 215.696 96.5773 216.272 97.2973 217.088L95.9533 218.36C95.3453 217.704 94.7773 217.248 94.2493 216.992C93.7373 216.72 93.1693 216.584 92.5453 216.584ZM108.362 216.872H104.426V227H102.362V216.872H98.4019V215.192H108.362V216.872ZM119.653 218.792V227H117.781V225.536C116.949 226.768 115.613 227.384 113.773 227.384C112.477 227.384 111.445 227.104 110.677 226.544C109.925 225.984 109.549 225.16 109.549 224.072C109.549 222.808 110.021 221.888 110.965 221.312C111.941 220.72 113.301 220.272 115.045 219.968L117.685 219.488V218.888C117.685 218.168 117.429 217.6 116.917 217.184C116.421 216.768 115.757 216.56 114.925 216.56C114.205 216.56 113.557 216.712 112.981 217.016C112.421 217.304 111.773 217.816 111.037 218.552L109.717 217.376C111.141 215.696 112.853 214.856 114.853 214.856C116.357 214.856 117.533 215.216 118.381 215.936C119.229 216.64 119.653 217.592 119.653 218.792ZM117.685 222.584V221.024L115.525 221.456C114.053 221.76 113.037 222.072 112.477 222.392C111.933 222.712 111.629 223.248 111.565 224C111.565 224.544 111.773 224.96 112.189 225.248C112.621 225.536 113.221 225.68 113.989 225.68C115.061 225.68 115.941 225.4 116.629 224.84C117.333 224.264 117.685 223.512 117.685 222.584ZM134.034 221.072C134.034 222.928 133.546 224.432 132.57 225.584C131.594 226.736 130.346 227.312 128.826 227.312C127.05 227.312 125.746 226.68 124.914 225.416V231.32H122.85V215.192H124.794V217.016C125.674 215.592 127.018 214.88 128.826 214.88C130.346 214.88 131.594 215.456 132.57 216.608C133.546 217.76 134.034 219.248 134.034 221.072ZM130.986 224.312C131.61 223.496 131.922 222.416 131.922 221.072C131.922 219.728 131.61 218.656 130.986 217.856C130.378 217.04 129.554 216.632 128.514 216.632C127.41 216.632 126.522 217.032 125.85 217.832C125.178 218.632 124.842 219.712 124.842 221.072C124.842 222.448 125.178 223.536 125.85 224.336C126.522 225.136 127.41 225.536 128.514 225.536C129.538 225.536 130.362 225.128 130.986 224.312ZM144.901 216.872H140.965V227H138.901V216.872H134.941V215.192H144.901V216.872ZM156.192 218.792V227H154.32V225.536C153.488 226.768 152.152 227.384 150.312 227.384C149.016 227.384 147.984 227.104 147.216 226.544C146.464 225.984 146.088 225.16 146.088 224.072C146.088 222.808 146.56 221.888 147.504 221.312C148.48 220.72 149.84 220.272 151.584 219.968L154.224 219.488V218.888C154.224 218.168 153.968 217.6 153.456 217.184C152.96 216.768 152.296 216.56 151.464 216.56C150.744 216.56 150.096 216.712 149.52 217.016C148.96 217.304 148.312 217.816 147.576 218.552L146.256 217.376C147.68 215.696 149.392 214.856 151.392 214.856C152.896 214.856 154.072 215.216 154.92 215.936C155.768 216.64 156.192 217.592 156.192 218.792ZM154.224 222.584V221.024L152.064 221.456C150.592 221.76 149.576 222.072 149.016 222.392C148.472 222.712 148.168 223.248 148.104 224C148.104 224.544 148.312 224.96 148.728 225.248C149.16 225.536 149.76 225.68 150.528 225.68C151.6 225.68 152.48 225.4 153.168 224.84C153.872 224.264 154.224 223.512 154.224 222.584ZM159.437 227V215.192H169.181V227H167.117V216.872H161.501V227H159.437ZM181.803 216.608C182.891 217.76 183.435 219.256 183.435 221.096C183.435 222.936 182.891 224.44 181.803 225.608C180.715 226.76 179.315 227.336 177.603 227.336C175.891 227.336 174.483 226.76 173.379 225.608C172.291 224.44 171.747 222.936 171.747 221.096C171.747 219.256 172.291 217.76 173.379 216.608C174.483 215.44 175.891 214.856 177.603 214.856C179.315 214.856 180.715 215.44 181.803 216.608ZM174.867 217.832C174.195 218.664 173.859 219.752 173.859 221.096C173.859 222.44 174.195 223.528 174.867 224.36C175.555 225.192 176.467 225.608 177.603 225.608C178.739 225.608 179.643 225.2 180.315 224.384C180.987 223.552 181.323 222.456 181.323 221.096C181.323 219.736 180.987 218.648 180.315 217.832C179.643 217 178.739 216.584 177.603 216.584C176.467 216.584 175.555 217 174.867 217.832ZM196.193 223.688C196.193 224.696 195.841 225.504 195.137 226.112C194.433 226.704 193.465 227 192.233 227H185.969V215.192H191.945C193.129 215.192 194.081 215.472 194.801 216.032C195.521 216.576 195.881 217.328 195.881 218.288C195.881 218.912 195.697 219.456 195.329 219.92C194.977 220.384 194.489 220.712 193.865 220.904C194.585 221.08 195.153 221.416 195.569 221.912C195.985 222.392 196.193 222.984 196.193 223.688ZM188.009 216.824V220.232H191.657C192.377 220.232 192.921 220.08 193.289 219.776C193.657 219.456 193.841 219.016 193.841 218.456C193.841 217.368 193.113 216.824 191.657 216.824H188.009ZM194.129 223.568C194.129 222.992 193.913 222.544 193.481 222.224C193.065 221.888 192.449 221.72 191.633 221.72H188.009V225.344H191.681C193.313 225.344 194.129 224.752 194.129 223.568ZM204.344 227V215.192H214.088V227H212.024V216.872H206.408V227H204.344ZM226.71 216.608C227.798 217.76 228.342 219.256 228.342 221.096C228.342 222.936 227.798 224.44 226.71 225.608C225.622 226.76 224.222 227.336 222.51 227.336C220.798 227.336 219.39 226.76 218.286 225.608C217.198 224.44 216.654 222.936 216.654 221.096C216.654 219.256 217.198 217.76 218.286 216.608C219.39 215.44 220.798 214.856 222.51 214.856C224.222 214.856 225.622 215.44 226.71 216.608ZM219.774 217.832C219.102 218.664 218.766 219.752 218.766 221.096C218.766 222.44 219.102 223.528 219.774 224.36C220.462 225.192 221.374 225.608 222.51 225.608C223.646 225.608 224.55 225.2 225.222 224.384C225.894 223.552 226.23 222.456 226.23 221.096C226.23 219.736 225.894 218.648 225.222 217.832C224.55 217 223.646 216.584 222.51 216.584C221.374 216.584 220.462 217 219.774 217.832ZM228.971 226.976L229.187 225.272C229.507 225.32 229.811 225.344 230.099 225.344C230.803 225.28 231.235 225 231.395 224.504C231.571 223.992 231.683 222.728 231.73 220.712L231.779 215.192H240.515V227H238.451V216.872H233.651L233.603 220.784C233.555 223.312 233.331 224.984 232.931 225.8C232.531 226.616 231.659 227.056 230.315 227.12C229.803 227.12 229.355 227.072 228.971 226.976ZM251.276 215.192H253.364L248.636 228.632C248.236 229.752 247.788 230.528 247.292 230.96C246.796 231.408 246.06 231.632 245.084 231.632C244.396 231.632 243.788 231.552 243.26 231.392L243.62 229.808C244.052 229.904 244.476 229.952 244.892 229.952C245.388 229.952 245.78 229.816 246.068 229.544C246.372 229.272 246.644 228.784 246.884 228.08L247.028 227.624L242.588 215.192H244.772L246.092 219.104C246.444 220.128 247.028 221.872 247.844 224.336L248.036 224.936L248.756 222.752L249.956 219.056L251.276 215.192ZM262.442 215.192H264.506V227H262.442V222.224C261.578 222.624 260.514 222.824 259.25 222.824C257.746 222.824 256.65 222.528 255.962 221.936C255.274 221.328 254.93 220.4 254.93 219.152V215.192H256.994V219.056C256.994 219.76 257.186 220.28 257.57 220.616C257.97 220.952 258.618 221.12 259.514 221.12C260.666 221.12 261.642 220.928 262.442 220.544V215.192ZM275.9 215.192H278.132V227H276.188V222.152C276.188 220.2 276.212 218.568 276.26 217.256C275.268 218.904 274.356 220.36 273.524 221.624L270.02 227H267.812V215.192H269.756V220.424C269.756 221.976 269.732 223.448 269.684 224.84C270.932 222.824 271.836 221.4 272.396 220.568L275.9 215.192ZM280.205 226.976L280.421 225.272C280.741 225.32 281.045 225.344 281.333 225.344C282.037 225.28 282.469 225 282.629 224.504C282.805 223.992 282.917 222.728 282.965 220.712L283.013 215.192H291.749V227H289.685V216.872H284.885L284.837 220.784C284.789 223.312 284.565 224.984 284.165 225.8C283.765 226.616 282.893 227.056 281.549 227.12C281.037 227.12 280.589 227.072 280.205 226.976ZM303.158 215.192H305.39V227H303.446V222.152C303.446 220.2 303.47 218.568 303.518 217.256C302.526 218.904 301.614 220.36 300.782 221.624L297.278 227H295.07V215.192H297.014V220.424C297.014 221.976 296.99 223.448 296.942 224.84C298.19 222.824 299.094 221.4 299.654 220.568L303.158 215.192ZM110.005 238.96H111.997V243.856C113.997 243.936 115.605 244.528 116.821 245.632C118.053 246.72 118.669 248.208 118.669 250.096C118.669 252 118.053 253.504 116.821 254.608C115.605 255.696 113.997 256.28 111.997 256.36V260.32H110.005V256.36C108.005 256.28 106.389 255.696 105.157 254.608C103.941 253.504 103.333 252 103.333 250.096C103.333 248.208 103.941 246.72 105.157 245.632C106.389 244.528 108.005 243.936 110.005 243.856V238.96ZM110.077 254.68V245.536C108.653 245.584 107.525 246.008 106.693 246.808C105.861 247.592 105.445 248.688 105.445 250.096C105.445 251.52 105.853 252.624 106.669 253.408C107.485 254.192 108.621 254.616 110.077 254.68ZM111.949 245.536V254.68C113.373 254.616 114.493 254.192 115.309 253.408C116.141 252.608 116.557 251.504 116.557 250.096C116.557 248.688 116.141 247.592 115.309 246.808C114.493 246.008 113.373 245.584 111.949 245.536ZM129.299 244.192H131.531V256H129.587V251.152C129.587 249.2 129.611 247.568 129.659 246.256C128.667 247.904 127.755 249.36 126.923 250.624L123.419 256H121.211V244.192H123.155V249.424C123.155 250.976 123.131 252.448 123.083 253.84C124.331 251.824 125.235 250.4 125.795 249.568L129.299 244.192ZM144.715 256H142.651V250.744H136.915V256H134.851V244.192H136.915V249.04H142.651V244.192H144.715V256ZM157.575 247.792V256H155.703V254.536C154.871 255.768 153.535 256.384 151.695 256.384C150.399 256.384 149.367 256.104 148.599 255.544C147.847 254.984 147.471 254.16 147.471 253.072C147.471 251.808 147.943 250.888 148.887 250.312C149.863 249.72 151.223 249.272 152.967 248.968L155.607 248.488V247.888C155.607 247.168 155.351 246.6 154.839 246.184C154.343 245.768 153.679 245.56 152.847 245.56C152.127 245.56 151.479 245.712 150.903 246.016C150.343 246.304 149.695 246.816 148.959 247.552L147.639 246.376C149.063 244.696 150.775 243.856 152.775 243.856C154.279 243.856 155.455 244.216 156.303 244.936C157.151 245.64 157.575 246.592 157.575 247.792ZM155.607 251.584V250.024L153.447 250.456C151.975 250.76 150.959 251.072 150.399 251.392C149.855 251.712 149.551 252.248 149.487 253C149.487 253.544 149.695 253.96 150.111 254.248C150.543 254.536 151.143 254.68 151.911 254.68C152.983 254.68 153.863 254.4 154.551 253.84C155.255 253.264 155.607 252.512 155.607 251.584ZM170.684 256H168.62V250.744H162.884V256H160.82V244.192H162.884V249.04H168.62V244.192H170.684V256ZM178.959 245.584C177.839 245.584 176.959 246.024 176.319 246.904C175.679 247.768 175.359 248.832 175.359 250.096C175.359 251.344 175.671 252.408 176.295 253.288C176.935 254.152 177.831 254.584 178.983 254.584C179.623 254.584 180.199 254.448 180.711 254.176C181.239 253.888 181.839 253.368 182.511 252.616L183.879 253.768C183.127 254.712 182.375 255.376 181.623 255.76C180.871 256.144 179.991 256.336 178.983 256.336C177.255 256.336 175.863 255.768 174.807 254.632C173.767 253.496 173.247 251.984 173.247 250.096C173.247 248.224 173.775 246.72 174.831 245.584C175.903 244.432 177.287 243.856 178.983 243.856C179.959 243.856 180.807 244.024 181.527 244.36C182.263 244.696 182.991 245.272 183.711 246.088L182.367 247.36C181.759 246.704 181.191 246.248 180.663 245.992C180.151 245.72 179.583 245.584 178.959 245.584ZM194.103 244.192H196.335V256H194.391V251.152C194.391 249.2 194.415 247.568 194.463 246.256C193.471 247.904 192.559 249.36 191.727 250.624L188.223 256H186.015V244.192H187.959V249.424C187.959 250.976 187.935 252.448 187.887 253.84C189.135 251.824 190.039 250.4 190.599 249.568L194.103 244.192ZM210.792 250.072C210.792 251.928 210.304 253.432 209.328 254.584C208.352 255.736 207.104 256.312 205.584 256.312C203.808 256.312 202.504 255.68 201.672 254.416V260.32H199.608V244.192H201.552V246.016C202.432 244.592 203.776 243.88 205.584 243.88C207.104 243.88 208.352 244.456 209.328 245.608C210.304 246.76 210.792 248.248 210.792 250.072ZM207.744 253.312C208.368 252.496 208.68 251.416 208.68 250.072C208.68 248.728 208.368 247.656 207.744 246.856C207.136 246.04 206.312 245.632 205.272 245.632C204.168 245.632 203.28 246.032 202.608 246.832C201.936 247.632 201.6 248.712 201.6 250.072C201.6 251.448 201.936 252.536 202.608 253.336C203.28 254.136 204.168 254.536 205.272 254.536C206.296 254.536 207.12 254.128 207.744 253.312ZM222.678 245.608C223.766 246.76 224.31 248.256 224.31 250.096C224.31 251.936 223.766 253.44 222.678 254.608C221.59 255.76 220.19 256.336 218.478 256.336C216.766 256.336 215.358 255.76 214.254 254.608C213.166 253.44 212.622 251.936 212.622 250.096C212.622 248.256 213.166 246.76 214.254 245.608C215.358 244.44 216.766 243.856 218.478 243.856C220.19 243.856 221.59 244.44 222.678 245.608ZM215.742 246.832C215.07 247.664 214.734 248.752 214.734 250.096C214.734 251.44 215.07 252.528 215.742 253.36C216.43 254.192 217.342 254.608 218.478 254.608C219.614 254.608 220.518 254.2 221.19 253.384C221.862 252.552 222.198 251.456 222.198 250.096C222.198 248.736 221.862 247.648 221.19 246.832C220.518 246 219.614 245.584 218.478 245.584C217.342 245.584 216.43 246 215.742 246.832ZM237.068 252.688C237.068 253.696 236.716 254.504 236.012 255.112C235.308 255.704 234.34 256 233.108 256H226.844V244.192H232.82C234.004 244.192 234.956 244.472 235.676 245.032C236.396 245.576 236.756 246.328 236.756 247.288C236.756 247.912 236.572 248.456 236.204 248.92C235.852 249.384 235.364 249.712 234.74 249.904C235.46 250.08 236.028 250.416 236.444 250.912C236.86 251.392 237.068 251.984 237.068 252.688ZM228.884 245.824V249.232H232.532C233.252 249.232 233.796 249.08 234.164 248.776C234.532 248.456 234.716 248.016 234.716 247.456C234.716 246.368 233.988 245.824 232.532 245.824H228.884ZM235.004 252.568C235.004 251.992 234.788 251.544 234.356 251.224C233.94 250.888 233.324 250.72 232.508 250.72H228.884V254.344H232.556C234.188 254.344 235.004 253.752 235.004 252.568ZM249.309 247.792V256H247.437V254.536C246.605 255.768 245.269 256.384 243.429 256.384C242.133 256.384 241.101 256.104 240.333 255.544C239.581 254.984 239.205 254.16 239.205 253.072C239.205 251.808 239.677 250.888 240.621 250.312C241.597 249.72 242.957 249.272 244.701 248.968L247.341 248.488V247.888C247.341 247.168 247.085 246.6 246.573 246.184C246.077 245.768 245.413 245.56 244.581 245.56C243.861 245.56 243.213 245.712 242.637 246.016C242.077 246.304 241.429 246.816 240.693 247.552L239.373 246.376C240.797 244.696 242.509 243.856 244.509 243.856C246.013 243.856 247.189 244.216 248.037 244.936C248.885 245.64 249.309 246.592 249.309 247.792ZM247.341 251.584V250.024L245.181 250.456C243.709 250.76 242.693 251.072 242.133 251.392C241.589 251.712 241.285 252.248 241.221 253C241.221 253.544 241.429 253.96 241.845 254.248C242.277 254.536 242.877 254.68 243.645 254.68C244.717 254.68 245.597 254.4 246.285 253.84C246.989 253.264 247.341 252.512 247.341 251.584ZM262.418 256H260.354V250.744H254.618V256H252.554V244.192H254.618V249.04H260.354V244.192H262.418V256ZM273.838 244.192H276.07V256H274.126V251.152C274.126 249.2 274.15 247.568 274.198 246.256C273.206 247.904 272.294 249.36 271.462 250.624L267.958 256H265.75V244.192H267.694V249.424C267.694 250.976 267.67 252.448 267.622 253.84C268.87 251.824 269.774 250.4 270.334 249.568L273.838 244.192ZM288.39 252.64L289.614 253.888C288.766 254.784 287.95 255.416 287.166 255.784C286.382 256.152 285.486 256.336 284.478 256.336C282.702 256.336 281.278 255.776 280.206 254.656C279.15 253.52 278.622 252.024 278.622 250.168C278.622 248.312 279.134 246.8 280.158 245.632C281.198 244.448 282.566 243.856 284.262 243.856C285.942 243.856 287.246 244.36 288.174 245.368C289.118 246.376 289.59 247.768 289.59 249.544C289.59 249.768 289.574 250.072 289.542 250.456H280.686C280.75 251.704 281.11 252.712 281.766 253.48C282.422 254.232 283.334 254.608 284.502 254.608C285.238 254.608 285.87 254.464 286.398 254.176C286.926 253.904 287.59 253.392 288.39 252.64ZM280.734 248.92H287.55C287.502 247.864 287.182 247.032 286.59 246.424C286.014 245.816 285.23 245.512 284.238 245.512C283.278 245.512 282.494 245.808 281.886 246.4C281.278 246.992 280.894 247.832 280.734 248.92Z" fill="white"/>
<path d="M284.495 399.608C285.583 400.76 286.127 402.256 286.127 404.096C286.127 405.936 285.583 407.44 284.495 408.608C283.407 409.76 282.007 410.336 280.295 410.336C278.583 410.336 277.175 409.76 276.071 408.608C274.983 407.44 274.439 405.936 274.439 404.096C274.439 402.256 274.983 400.76 276.071 399.608C277.175 398.44 278.583 397.856 280.295 397.856C282.007 397.856 283.407 398.44 284.495 399.608ZM277.559 400.832C276.887 401.664 276.551 402.752 276.551 404.096C276.551 405.44 276.887 406.528 277.559 407.36C278.247 408.192 279.159 408.608 280.295 408.608C281.431 408.608 282.335 408.2 283.007 407.384C283.679 406.552 284.015 405.456 284.015 404.096C284.015 402.736 283.679 401.648 283.007 400.832C282.335 400 281.431 399.584 280.295 399.584C279.159 399.584 278.247 400 277.559 400.832ZM298.398 399.872C299.342 400.912 299.814 402.344 299.814 404.168C299.814 405.992 299.278 407.472 298.206 408.608C297.134 409.744 295.75 410.312 294.054 410.312C292.198 410.312 290.758 409.664 289.734 408.368C288.71 407.056 288.198 405.184 288.198 402.752C288.198 399.52 288.694 397.168 289.686 395.696C290.694 394.208 292.478 393.344 295.038 393.104L298.95 392.768L299.094 394.712L295.23 395.048C293.358 395.192 292.046 395.696 291.294 396.56C290.558 397.408 290.118 398.904 289.974 401.048C290.358 400.2 290.95 399.528 291.75 399.032C292.55 398.536 293.478 398.288 294.534 398.288C296.166 398.288 297.454 398.816 298.398 399.872ZM297.702 404.216C297.702 402.92 297.382 401.896 296.742 401.144C296.118 400.392 295.254 400.016 294.15 400.016C293.046 400.016 292.126 400.408 291.39 401.192C290.67 401.96 290.31 402.968 290.31 404.216C290.31 405.544 290.646 406.608 291.318 407.408C291.99 408.192 292.894 408.584 294.03 408.584C295.15 408.584 296.038 408.192 296.694 407.408C297.366 406.608 297.702 405.544 297.702 404.216ZM311.4 406.616C311.4 407.72 310.944 408.624 310.032 409.328C309.12 410.016 307.912 410.36 306.408 410.36C304.376 410.36 302.584 409.68 301.032 408.32L302.16 406.928C303.52 408.064 304.936 408.632 306.408 408.632C307.352 408.632 308.08 408.448 308.592 408.08C309.12 407.696 309.384 407.184 309.384 406.544C309.384 405.36 308.472 404.768 306.648 404.768H304.44V403.16H306.696C307.464 403.16 308.048 403.008 308.448 402.704C308.848 402.384 309.048 401.936 309.048 401.36C309.048 400.784 308.808 400.336 308.328 400.016C307.864 399.68 307.208 399.512 306.36 399.512C305.176 399.512 303.88 400 302.472 400.976L301.488 399.584C303.184 398.416 304.832 397.832 306.432 397.832C307.728 397.832 308.824 398.128 309.72 398.72C310.632 399.296 311.088 400.12 311.088 401.192C311.088 402.456 310.416 403.344 309.072 403.856C310.624 404.352 311.4 405.272 311.4 406.616ZM323.378 399.608C324.466 400.76 325.01 402.256 325.01 404.096C325.01 405.936 324.466 407.44 323.378 408.608C322.29 409.76 320.89 410.336 319.178 410.336C317.466 410.336 316.058 409.76 314.954 408.608C313.866 407.44 313.322 405.936 313.322 404.096C313.322 402.256 313.866 400.76 314.954 399.608C316.058 398.44 317.466 397.856 319.178 397.856C320.89 397.856 322.29 398.44 323.378 399.608ZM316.442 400.832C315.77 401.664 315.434 402.752 315.434 404.096C315.434 405.44 315.77 406.528 316.442 407.36C317.13 408.192 318.042 408.608 319.178 408.608C320.314 408.608 321.218 408.2 321.89 407.384C322.562 406.552 322.898 405.456 322.898 404.096C322.898 402.736 322.562 401.648 321.89 400.832C321.218 400 320.314 399.584 319.178 399.584C318.042 399.584 317.13 400 316.442 400.832ZM338.679 404.072C338.679 405.928 338.191 407.432 337.215 408.584C336.239 409.736 334.991 410.312 333.471 410.312C331.695 410.312 330.391 409.68 329.559 408.416V414.32H327.495V398.192H329.439V400.016C330.319 398.592 331.663 397.88 333.471 397.88C334.991 397.88 336.239 398.456 337.215 399.608C338.191 400.76 338.679 402.248 338.679 404.072ZM335.631 407.312C336.255 406.496 336.567 405.416 336.567 404.072C336.567 402.728 336.255 401.656 335.631 400.856C335.023 400.04 334.199 399.632 333.159 399.632C332.055 399.632 331.167 400.032 330.495 400.832C329.823 401.632 329.487 402.712 329.487 404.072C329.487 405.448 329.823 406.536 330.495 407.336C331.167 408.136 332.055 408.536 333.159 408.536C334.183 408.536 335.007 408.128 335.631 407.312ZM350.565 399.608C351.653 400.76 352.197 402.256 352.197 404.096C352.197 405.936 351.653 407.44 350.565 408.608C349.477 409.76 348.077 410.336 346.365 410.336C344.653 410.336 343.245 409.76 342.141 408.608C341.053 407.44 340.509 405.936 340.509 404.096C340.509 402.256 341.053 400.76 342.141 399.608C343.245 398.44 344.653 397.856 346.365 397.856C348.077 397.856 349.477 398.44 350.565 399.608ZM343.629 400.832C342.957 401.664 342.621 402.752 342.621 404.096C342.621 405.44 342.957 406.528 343.629 407.36C344.317 408.192 345.229 408.608 346.365 408.608C347.501 408.608 348.405 408.2 349.077 407.384C349.749 406.552 350.085 405.456 350.085 404.096C350.085 402.736 349.749 401.648 349.077 400.832C348.405 400 347.501 399.584 346.365 399.584C345.229 399.584 344.317 400 343.629 400.832ZM364.954 406.688C364.954 407.696 364.602 408.504 363.898 409.112C363.194 409.704 362.226 410 360.994 410H354.73V398.192H360.706C361.89 398.192 362.842 398.472 363.562 399.032C364.282 399.576 364.642 400.328 364.642 401.288C364.642 401.912 364.458 402.456 364.09 402.92C363.738 403.384 363.25 403.712 362.626 403.904C363.346 404.08 363.914 404.416 364.33 404.912C364.746 405.392 364.954 405.984 364.954 406.688ZM356.77 399.824V403.232H360.418C361.138 403.232 361.682 403.08 362.05 402.776C362.418 402.456 362.602 402.016 362.602 401.456C362.602 400.368 361.874 399.824 360.418 399.824H356.77ZM362.89 406.568C362.89 405.992 362.674 405.544 362.242 405.224C361.826 404.888 361.21 404.72 360.394 404.72H356.77V408.344H360.442C362.074 408.344 362.89 407.752 362.89 406.568ZM273.121 439V427.192H282.865V439H280.801V428.872H275.185V439H273.121ZM297.335 433.072C297.335 434.928 296.847 436.432 295.871 437.584C294.895 438.736 293.647 439.312 292.127 439.312C290.351 439.312 289.047 438.68 288.215 437.416V443.32H286.151V427.192H288.095V429.016C288.975 427.592 290.319 426.88 292.127 426.88C293.647 426.88 294.895 427.456 295.871 428.608C296.847 429.76 297.335 431.248 297.335 433.072ZM294.287 436.312C294.911 435.496 295.223 434.416 295.223 433.072C295.223 431.728 294.911 430.656 294.287 429.856C293.679 429.04 292.855 428.632 291.815 428.632C290.711 428.632 289.823 429.032 289.151 429.832C288.479 430.632 288.143 431.712 288.143 433.072C288.143 434.448 288.479 435.536 289.151 436.336C289.823 437.136 290.711 437.536 291.815 437.536C292.839 437.536 293.663 437.128 294.287 436.312ZM309.221 428.608C310.309 429.76 310.853 431.256 310.853 433.096C310.853 434.936 310.309 436.44 309.221 437.608C308.133 438.76 306.733 439.336 305.021 439.336C303.309 439.336 301.901 438.76 300.797 437.608C299.709 436.44 299.165 434.936 299.165 433.096C299.165 431.256 299.709 429.76 300.797 428.608C301.901 427.44 303.309 426.856 305.021 426.856C306.733 426.856 308.133 427.44 309.221 428.608ZM302.285 429.832C301.613 430.664 301.277 431.752 301.277 433.096C301.277 434.44 301.613 435.528 302.285 436.36C302.973 437.192 303.885 437.608 305.021 437.608C306.157 437.608 307.061 437.2 307.733 436.384C308.405 435.552 308.741 434.456 308.741 433.096C308.741 431.736 308.405 430.648 307.733 429.832C307.061 429 306.157 428.584 305.021 428.584C303.885 428.584 302.973 429 302.285 429.832ZM322.386 435.64L323.61 436.888C322.762 437.784 321.946 438.416 321.162 438.784C320.378 439.152 319.482 439.336 318.474 439.336C316.698 439.336 315.274 438.776 314.202 437.656C313.146 436.52 312.618 435.024 312.618 433.168C312.618 431.312 313.13 429.8 314.154 428.632C315.194 427.448 316.562 426.856 318.258 426.856C319.938 426.856 321.242 427.36 322.17 428.368C323.114 429.376 323.586 430.768 323.586 432.544C323.586 432.768 323.57 433.072 323.538 433.456H314.682C314.746 434.704 315.106 435.712 315.762 436.48C316.418 437.232 317.33 437.608 318.498 437.608C319.234 437.608 319.866 437.464 320.394 437.176C320.922 436.904 321.586 436.392 322.386 435.64ZM314.73 431.92H321.546C321.498 430.864 321.178 430.032 320.586 429.424C320.01 428.816 319.226 428.512 318.234 428.512C317.274 428.512 316.49 428.808 315.882 429.4C315.274 429.992 314.89 430.832 314.73 431.92ZM334.271 439L330.455 433.744H328.271V439H326.207V427.192H328.271V432.04H330.455L334.007 427.192H336.239L332.087 432.808L336.599 439H334.271ZM347.178 428.872H343.242V439H341.178V428.872H337.218V427.192H347.178V428.872ZM358.089 428.608C359.177 429.76 359.721 431.256 359.721 433.096C359.721 434.936 359.177 436.44 358.089 437.608C357.001 438.76 355.601 439.336 353.889 439.336C352.177 439.336 350.769 438.76 349.665 437.608C348.577 436.44 348.033 434.936 348.033 433.096C348.033 431.256 348.577 429.76 349.665 428.608C350.769 427.44 352.177 426.856 353.889 426.856C355.601 426.856 357.001 427.44 358.089 428.608ZM351.153 429.832C350.481 430.664 350.145 431.752 350.145 433.096C350.145 434.44 350.481 435.528 351.153 436.36C351.841 437.192 352.753 437.608 353.889 437.608C355.025 437.608 355.929 437.2 356.601 436.384C357.273 435.552 357.609 434.456 357.609 433.096C357.609 431.736 357.273 430.648 356.601 429.832C355.929 429 355.025 428.584 353.889 428.584C352.753 428.584 351.841 429 351.153 429.832ZM372.478 435.688C372.478 436.696 372.126 437.504 371.422 438.112C370.718 438.704 369.75 439 368.518 439H362.254V427.192H368.23C369.414 427.192 370.366 427.472 371.086 428.032C371.806 428.576 372.166 429.328 372.166 430.288C372.166 430.912 371.982 431.456 371.614 431.92C371.262 432.384 370.774 432.712 370.15 432.904C370.87 433.08 371.438 433.416 371.854 433.912C372.27 434.392 372.478 434.984 372.478 435.688ZM364.294 428.824V432.232H367.942C368.662 432.232 369.206 432.08 369.574 431.776C369.942 431.456 370.126 431.016 370.126 430.456C370.126 429.368 369.398 428.824 367.942 428.824H364.294ZM370.414 435.568C370.414 434.992 370.198 434.544 369.766 434.224C369.35 433.888 368.734 433.72 367.918 433.72H364.294V437.344H367.966C369.598 437.344 370.414 436.752 370.414 435.568Z" fill="white"/>
<path d="M1007.24 216.584C1006.12 216.584 1005.24 217.024 1004.6 217.904C1003.96 218.768 1003.64 219.832 1003.64 221.096C1003.64 222.344 1003.95 223.408 1004.57 224.288C1005.21 225.152 1006.11 225.584 1007.26 225.584C1007.9 225.584 1008.48 225.448 1008.99 225.176C1009.52 224.888 1010.12 224.368 1010.79 223.616L1012.16 224.768C1011.4 225.712 1010.65 226.376 1009.9 226.76C1009.15 227.144 1008.27 227.336 1007.26 227.336C1005.53 227.336 1004.14 226.768 1003.08 225.632C1002.04 224.496 1001.52 222.984 1001.52 221.096C1001.52 219.224 1002.05 217.72 1003.11 216.584C1004.18 215.432 1005.56 214.856 1007.26 214.856C1008.24 214.856 1009.08 215.024 1009.8 215.36C1010.54 215.696 1011.27 216.272 1011.99 217.088L1010.64 218.36C1010.04 217.704 1009.47 217.248 1008.94 216.992C1008.43 216.72 1007.86 216.584 1007.24 216.584ZM1013.21 230V225.32H1014.36C1015.36 224.328 1015.86 222.448 1015.88 219.68L1015.92 215.192H1024.54V225.32H1026.29V230H1024.3V227H1015.2V230H1013.21ZM1016.5 225.32H1022.48V216.872H1017.8L1017.75 219.728C1017.7 222.624 1017.28 224.488 1016.5 225.32ZM1037.19 223.64L1038.42 224.888C1037.57 225.784 1036.75 226.416 1035.97 226.784C1035.18 227.152 1034.29 227.336 1033.28 227.336C1031.5 227.336 1030.08 226.776 1029.01 225.656C1027.95 224.52 1027.42 223.024 1027.42 221.168C1027.42 219.312 1027.94 217.8 1028.96 216.632C1030 215.448 1031.37 214.856 1033.06 214.856C1034.74 214.856 1036.05 215.36 1036.98 216.368C1037.92 217.376 1038.39 218.768 1038.39 220.544C1038.39 220.768 1038.38 221.072 1038.34 221.456H1029.49C1029.55 222.704 1029.91 223.712 1030.57 224.48C1031.22 225.232 1032.14 225.608 1033.3 225.608C1034.04 225.608 1034.67 225.464 1035.2 225.176C1035.73 224.904 1036.39 224.392 1037.19 223.64ZM1029.54 219.92H1036.35C1036.3 218.864 1035.98 218.032 1035.39 217.424C1034.82 216.816 1034.03 216.512 1033.04 216.512C1032.08 216.512 1031.3 216.808 1030.69 217.4C1030.08 217.992 1029.7 218.832 1029.54 219.92ZM1039.53 226.976L1039.75 225.272C1040.07 225.32 1040.37 225.344 1040.66 225.344C1041.36 225.28 1041.79 225 1041.95 224.504C1042.13 223.992 1042.24 222.728 1042.29 220.712L1042.34 215.192H1051.07V227H1049.01V216.872H1044.21L1044.16 220.784C1044.11 223.312 1043.89 224.984 1043.49 225.8C1043.09 226.616 1042.22 227.056 1040.87 227.12C1040.36 227.12 1039.91 227.072 1039.53 226.976ZM1063.92 218.792V227H1062.05V225.536C1061.22 226.768 1059.88 227.384 1058.04 227.384C1056.75 227.384 1055.71 227.104 1054.95 226.544C1054.19 225.984 1053.82 225.16 1053.82 224.072C1053.82 222.808 1054.29 221.888 1055.23 221.312C1056.21 220.72 1057.57 220.272 1059.31 219.968L1061.95 219.488V218.888C1061.95 218.168 1061.7 217.6 1061.19 217.184C1060.69 216.768 1060.03 216.56 1059.19 216.56C1058.47 216.56 1057.83 216.712 1057.25 217.016C1056.69 217.304 1056.04 217.816 1055.31 218.552L1053.99 217.376C1055.41 215.696 1057.12 214.856 1059.12 214.856C1060.63 214.856 1061.8 215.216 1062.65 215.936C1063.5 216.64 1063.92 217.592 1063.92 218.792ZM1061.95 222.584V221.024L1059.79 221.456C1058.32 221.76 1057.31 222.072 1056.75 222.392C1056.2 222.712 1055.9 223.248 1055.83 224C1055.83 224.544 1056.04 224.96 1056.46 225.248C1056.89 225.536 1057.49 225.68 1058.26 225.68C1059.33 225.68 1060.21 225.4 1060.9 224.84C1061.6 224.264 1061.95 223.512 1061.95 222.584ZM1077.03 227H1074.97V221.744H1069.23V227H1067.17V215.192H1069.23V220.04H1074.97V215.192H1077.03V227ZM1089.65 216.608C1090.74 217.76 1091.28 219.256 1091.28 221.096C1091.28 222.936 1090.74 224.44 1089.65 225.608C1088.56 226.76 1087.16 227.336 1085.45 227.336C1083.74 227.336 1082.33 226.76 1081.23 225.608C1080.14 224.44 1079.6 222.936 1079.6 221.096C1079.6 219.256 1080.14 217.76 1081.23 216.608C1082.33 215.44 1083.74 214.856 1085.45 214.856C1087.16 214.856 1088.56 215.44 1089.65 216.608ZM1082.72 217.832C1082.04 218.664 1081.71 219.752 1081.71 221.096C1081.71 222.44 1082.04 223.528 1082.72 224.36C1083.4 225.192 1084.32 225.608 1085.45 225.608C1086.59 225.608 1087.49 225.2 1088.16 224.384C1088.84 223.552 1089.17 222.456 1089.17 221.096C1089.17 219.736 1088.84 218.648 1088.16 217.832C1087.49 217 1086.59 216.584 1085.45 216.584C1084.32 216.584 1083.4 217 1082.72 217.832ZM1108.76 216.872C1109.7 217.912 1110.17 219.344 1110.17 221.168C1110.17 222.992 1109.64 224.472 1108.57 225.608C1107.49 226.744 1106.11 227.312 1104.41 227.312C1102.56 227.312 1101.12 226.664 1100.09 225.368C1099.07 224.056 1098.56 222.184 1098.56 219.752C1098.56 216.52 1099.05 214.168 1100.05 212.696C1101.05 211.208 1102.84 210.344 1105.4 210.104L1109.31 209.768L1109.45 211.712L1105.59 212.048C1103.72 212.192 1102.41 212.696 1101.65 213.56C1100.92 214.408 1100.48 215.904 1100.33 218.048C1100.72 217.2 1101.31 216.528 1102.11 216.032C1102.91 215.536 1103.84 215.288 1104.89 215.288C1106.53 215.288 1107.81 215.816 1108.76 216.872ZM1108.06 221.216C1108.06 219.92 1107.74 218.896 1107.1 218.144C1106.48 217.392 1105.61 217.016 1104.51 217.016C1103.41 217.016 1102.49 217.408 1101.75 218.192C1101.03 218.96 1100.67 219.968 1100.67 221.216C1100.67 222.544 1101.01 223.608 1101.68 224.408C1102.35 225.192 1103.25 225.584 1104.39 225.584C1105.51 225.584 1106.4 225.192 1107.05 224.408C1107.73 223.608 1108.06 222.544 1108.06 221.216ZM1120.79 215.192H1123.03V227H1121.08V222.152C1121.08 220.2 1121.11 218.568 1121.15 217.256C1120.16 218.904 1119.25 220.36 1118.42 221.624L1114.91 227H1112.71V215.192H1114.65V220.424C1114.65 221.976 1114.63 223.448 1114.58 224.84C1115.83 222.824 1116.73 221.4 1117.29 220.568L1120.79 215.192ZM1135.59 223.616C1135.59 224.72 1135.13 225.624 1134.22 226.328C1133.31 227.016 1132.1 227.36 1130.6 227.36C1128.56 227.36 1126.77 226.68 1125.22 225.32L1126.35 223.928C1127.71 225.064 1129.12 225.632 1130.6 225.632C1131.54 225.632 1132.27 225.448 1132.78 225.08C1133.31 224.696 1133.57 224.184 1133.57 223.544C1133.57 222.36 1132.66 221.768 1130.84 221.768H1128.63V220.16H1130.88C1131.65 220.16 1132.24 220.008 1132.64 219.704C1133.04 219.384 1133.24 218.936 1133.24 218.36C1133.24 217.784 1133 217.336 1132.52 217.016C1132.05 216.68 1131.4 216.512 1130.55 216.512C1129.36 216.512 1128.07 217 1126.66 217.976L1125.68 216.584C1127.37 215.416 1129.02 214.832 1130.62 214.832C1131.92 214.832 1133.01 215.128 1133.91 215.72C1134.82 216.296 1135.28 217.12 1135.28 218.192C1135.28 219.456 1134.6 220.344 1133.26 220.856C1134.81 221.352 1135.59 222.272 1135.59 223.616ZM1148.14 227H1146.08V221.744H1140.34V227H1138.28V215.192H1140.34V220.04H1146.08V215.192H1148.14V227ZM1160.47 223.64L1161.7 224.888C1160.85 225.784 1160.03 226.416 1159.25 226.784C1158.46 227.152 1157.57 227.336 1156.56 227.336C1154.78 227.336 1153.36 226.776 1152.29 225.656C1151.23 224.52 1150.7 223.024 1150.7 221.168C1150.7 219.312 1151.22 217.8 1152.24 216.632C1153.28 215.448 1154.65 214.856 1156.34 214.856C1158.02 214.856 1159.33 215.36 1160.26 216.368C1161.2 217.376 1161.67 218.768 1161.67 220.544C1161.67 220.768 1161.66 221.072 1161.62 221.456H1152.77C1152.83 222.704 1153.19 223.712 1153.85 224.48C1154.5 225.232 1155.42 225.608 1156.58 225.608C1157.32 225.608 1157.95 225.464 1158.48 225.176C1159.01 224.904 1159.67 224.392 1160.47 223.64ZM1152.82 219.92H1159.63C1159.58 218.864 1159.26 218.032 1158.67 217.424C1158.1 216.816 1157.31 216.512 1156.32 216.512C1155.36 216.512 1154.58 216.808 1153.97 217.4C1153.36 217.992 1152.98 218.832 1152.82 219.92ZM1169.24 216.584C1168.12 216.584 1167.24 217.024 1166.6 217.904C1165.96 218.768 1165.64 219.832 1165.64 221.096C1165.64 222.344 1165.95 223.408 1166.57 224.288C1167.21 225.152 1168.11 225.584 1169.26 225.584C1169.9 225.584 1170.48 225.448 1170.99 225.176C1171.52 224.888 1172.12 224.368 1172.79 223.616L1174.16 224.768C1173.4 225.712 1172.65 226.376 1171.9 226.76C1171.15 227.144 1170.27 227.336 1169.26 227.336C1167.53 227.336 1166.14 226.768 1165.08 225.632C1164.04 224.496 1163.52 222.984 1163.52 221.096C1163.52 219.224 1164.05 217.72 1165.11 216.584C1166.18 215.432 1167.56 214.856 1169.26 214.856C1170.24 214.856 1171.08 215.024 1171.8 215.36C1172.54 215.696 1173.27 216.272 1173.99 217.088L1172.64 218.36C1172.04 217.704 1171.47 217.248 1170.94 216.992C1170.43 216.72 1169.86 216.584 1169.24 216.584ZM1182.99 219.176V221.024H1176V219.176H1182.99ZM1054.63 256V244.192H1064.37V256H1062.31V245.872H1056.69V256H1054.63ZM1066.46 255.976L1066.67 254.272C1066.99 254.32 1067.3 254.344 1067.59 254.344C1068.29 254.28 1068.72 254 1068.88 253.504C1069.06 252.992 1069.17 251.728 1069.22 249.712L1069.27 244.192H1078V256H1075.94V245.872H1071.14L1071.09 249.784C1071.04 252.312 1070.82 253.984 1070.42 254.8C1070.02 255.616 1069.15 256.056 1067.8 256.12C1067.29 256.12 1066.84 256.072 1066.46 255.976ZM1090.85 247.792V256H1088.98V254.536C1088.15 255.768 1086.81 256.384 1084.97 256.384C1083.68 256.384 1082.64 256.104 1081.88 255.544C1081.12 254.984 1080.75 254.16 1080.75 253.072C1080.75 251.808 1081.22 250.888 1082.16 250.312C1083.14 249.72 1084.5 249.272 1086.24 248.968L1088.88 248.488V247.888C1088.88 247.168 1088.63 246.6 1088.12 246.184C1087.62 245.768 1086.96 245.56 1086.12 245.56C1085.4 245.56 1084.76 245.712 1084.18 246.016C1083.62 246.304 1082.97 246.816 1082.24 247.552L1080.92 246.376C1082.34 244.696 1084.05 243.856 1086.05 243.856C1087.56 243.856 1088.73 244.216 1089.58 244.936C1090.43 245.64 1090.85 246.592 1090.85 247.792ZM1088.88 251.584V250.024L1086.72 250.456C1085.25 250.76 1084.24 251.072 1083.68 251.392C1083.13 251.712 1082.83 252.248 1082.76 253C1082.76 253.544 1082.97 253.96 1083.39 254.248C1083.82 254.536 1084.42 254.68 1085.19 254.68C1086.26 254.68 1087.14 254.4 1087.83 253.84C1088.53 253.264 1088.88 252.512 1088.88 251.584ZM1103.96 256H1101.9V250.744H1096.16V256H1094.1V244.192H1096.16V249.04H1101.9V244.192H1103.96V256ZM1116.58 245.608C1117.67 246.76 1118.21 248.256 1118.21 250.096C1118.21 251.936 1117.67 253.44 1116.58 254.608C1115.49 255.76 1114.09 256.336 1112.38 256.336C1110.67 256.336 1109.26 255.76 1108.16 254.608C1107.07 253.44 1106.52 251.936 1106.52 250.096C1106.52 248.256 1107.07 246.76 1108.16 245.608C1109.26 244.44 1110.67 243.856 1112.38 243.856C1114.09 243.856 1115.49 244.44 1116.58 245.608ZM1109.64 246.832C1108.97 247.664 1108.64 248.752 1108.64 250.096C1108.64 251.44 1108.97 252.528 1109.64 253.36C1110.33 254.192 1111.24 254.608 1112.38 254.608C1113.52 254.608 1114.42 254.2 1115.09 253.384C1115.76 252.552 1116.1 251.456 1116.1 250.096C1116.1 248.736 1115.76 247.648 1115.09 246.832C1114.42 246 1113.52 245.584 1112.38 245.584C1111.24 245.584 1110.33 246 1109.64 246.832ZM1130.97 252.688C1130.97 253.696 1130.62 254.504 1129.91 255.112C1129.21 255.704 1128.24 256 1127.01 256H1120.75V244.192H1126.72C1127.91 244.192 1128.86 244.472 1129.58 245.032C1130.3 245.576 1130.66 246.328 1130.66 247.288C1130.66 247.912 1130.47 248.456 1130.11 248.92C1129.75 249.384 1129.27 249.712 1128.64 249.904C1129.36 250.08 1129.93 250.416 1130.35 250.912C1130.76 251.392 1130.97 251.984 1130.97 252.688ZM1122.79 245.824V249.232H1126.43C1127.15 249.232 1127.7 249.08 1128.07 248.776C1128.43 248.456 1128.62 248.016 1128.62 247.456C1128.62 246.368 1127.89 245.824 1126.43 245.824H1122.79ZM1128.91 252.568C1128.91 251.992 1128.69 251.544 1128.26 251.224C1127.84 250.888 1127.23 250.72 1126.41 250.72H1122.79V254.344H1126.46C1128.09 254.344 1128.91 253.752 1128.91 252.568Z" fill="white"/>
<path d="M871.683 418V406.192H881.427V418H879.363V407.872H873.747V418H871.683ZM895.897 412.072C895.897 413.928 895.409 415.432 894.433 416.584C893.457 417.736 892.209 418.312 890.689 418.312C888.913 418.312 887.609 417.68 886.777 416.416V422.32H884.713V406.192H886.657V408.016C887.537 406.592 888.881 405.88 890.689 405.88C892.209 405.88 893.457 406.456 894.433 407.608C895.409 408.76 895.897 410.248 895.897 412.072ZM892.849 415.312C893.473 414.496 893.785 413.416 893.785 412.072C893.785 410.728 893.473 409.656 892.849 408.856C892.241 408.04 891.417 407.632 890.377 407.632C889.273 407.632 888.385 408.032 887.713 408.832C887.041 409.632 886.705 410.712 886.705 412.072C886.705 413.448 887.041 414.536 887.713 415.336C888.385 416.136 889.273 416.536 890.377 416.536C891.401 416.536 892.225 416.128 892.849 415.312ZM906.584 406.192H908.816V418H906.872V413.152C906.872 411.2 906.896 409.568 906.944 408.256C905.952 409.904 905.04 411.36 904.208 412.624L900.704 418H898.496V406.192H900.44V411.424C900.44 412.976 900.416 414.448 900.368 415.84C901.616 413.824 902.52 412.4 903.08 411.568L906.584 406.192ZM917.08 407.584C915.96 407.584 915.08 408.024 914.44 408.904C913.8 409.768 913.48 410.832 913.48 412.096C913.48 413.344 913.792 414.408 914.416 415.288C915.056 416.152 915.952 416.584 917.104 416.584C917.744 416.584 918.32 416.448 918.832 416.176C919.36 415.888 919.96 415.368 920.632 414.616L922 415.768C921.248 416.712 920.496 417.376 919.744 417.76C918.992 418.144 918.112 418.336 917.104 418.336C915.376 418.336 913.984 417.768 912.928 416.632C911.888 415.496 911.368 413.984 911.368 412.096C911.368 410.224 911.896 408.72 912.952 407.584C914.024 406.432 915.408 405.856 917.104 405.856C918.08 405.856 918.928 406.024 919.648 406.36C920.384 406.696 921.112 407.272 921.832 408.088L920.488 409.36C919.88 408.704 919.312 408.248 918.784 407.992C918.272 407.72 917.704 407.584 917.08 407.584ZM934.36 414.688C934.36 415.696 934.008 416.504 933.304 417.112C932.6 417.704 931.632 418 930.4 418H924.136V406.192H930.112C931.296 406.192 932.248 406.472 932.968 407.032C933.688 407.576 934.048 408.328 934.048 409.288C934.048 409.912 933.864 410.456 933.496 410.92C933.144 411.384 932.656 411.712 932.032 411.904C932.752 412.08 933.32 412.416 933.736 412.912C934.152 413.392 934.36 413.984 934.36 414.688ZM926.176 407.824V411.232H929.824C930.544 411.232 931.088 411.08 931.456 410.776C931.824 410.456 932.008 410.016 932.008 409.456C932.008 408.368 931.28 407.824 929.824 407.824H926.176ZM932.296 414.568C932.296 413.992 932.08 413.544 931.648 413.224C931.232 412.888 930.616 412.72 929.8 412.72H926.176V416.344H929.848C931.48 416.344 932.296 415.752 932.296 414.568ZM946.362 407.608C947.45 408.76 947.994 410.256 947.994 412.096C947.994 413.936 947.45 415.44 946.362 416.608C945.274 417.76 943.874 418.336 942.162 418.336C940.45 418.336 939.042 417.76 937.938 416.608C936.85 415.44 936.306 413.936 936.306 412.096C936.306 410.256 936.85 408.76 937.938 407.608C939.042 406.44 940.45 405.856 942.162 405.856C943.874 405.856 945.274 406.44 946.362 407.608ZM939.426 408.832C938.754 409.664 938.418 410.752 938.418 412.096C938.418 413.44 938.754 414.528 939.426 415.36C940.114 416.192 941.026 416.608 942.162 416.608C943.298 416.608 944.202 416.2 944.874 415.384C945.546 414.552 945.882 413.456 945.882 412.096C945.882 410.736 945.546 409.648 944.874 408.832C944.202 408 943.298 407.584 942.162 407.584C941.026 407.584 940.114 408 939.426 408.832ZM959.527 414.64L960.751 415.888C959.903 416.784 959.087 417.416 958.303 417.784C957.519 418.152 956.623 418.336 955.615 418.336C953.839 418.336 952.415 417.776 951.343 416.656C950.287 415.52 949.759 414.024 949.759 412.168C949.759 410.312 950.271 408.8 951.295 407.632C952.335 406.448 953.703 405.856 955.399 405.856C957.079 405.856 958.383 406.36 959.311 407.368C960.255 408.376 960.727 409.768 960.727 411.544C960.727 411.768 960.711 412.072 960.679 412.456H951.823C951.887 413.704 952.247 414.712 952.903 415.48C953.559 416.232 954.471 416.608 955.639 416.608C956.375 416.608 957.007 416.464 957.535 416.176C958.063 415.904 958.727 415.392 959.527 414.64ZM951.871 410.92H958.687C958.639 409.864 958.319 409.032 957.727 408.424C957.151 407.816 956.367 407.512 955.375 407.512C954.415 407.512 953.631 407.808 953.023 408.4C952.415 408.992 952.031 409.832 951.871 410.92ZM973.211 418H971.147V412.744H965.411V418H963.347V406.192H965.411V411.04H971.147V406.192H973.211V418ZM986.407 418H984.343V412.744H978.607V418H976.543V406.192H978.607V411.04H984.343V406.192H986.407V418ZM999.026 407.608C1000.11 408.76 1000.66 410.256 1000.66 412.096C1000.66 413.936 1000.11 415.44 999.026 416.608C997.938 417.76 996.538 418.336 994.826 418.336C993.114 418.336 991.706 417.76 990.602 416.608C989.514 415.44 988.97 413.936 988.97 412.096C988.97 410.256 989.514 408.76 990.602 407.608C991.706 406.44 993.114 405.856 994.826 405.856C996.538 405.856 997.938 406.44 999.026 407.608ZM992.09 408.832C991.418 409.664 991.082 410.752 991.082 412.096C991.082 413.44 991.418 414.528 992.09 415.36C992.778 416.192 993.69 416.608 994.826 416.608C995.962 416.608 996.866 416.2 997.538 415.384C998.21 414.552 998.546 413.456 998.546 412.096C998.546 410.736 998.21 409.648 997.538 408.832C996.866 408 995.962 407.584 994.826 407.584C993.69 407.584 992.778 408 992.09 408.832ZM894.28 441.072C894.28 442.928 893.792 444.432 892.816 445.584C891.84 446.736 890.592 447.312 889.072 447.312C887.296 447.312 885.992 446.68 885.16 445.416V451.32H883.096V435.192H885.04V437.016C885.92 435.592 887.264 434.88 889.072 434.88C890.592 434.88 891.84 435.456 892.816 436.608C893.792 437.76 894.28 439.248 894.28 441.072ZM891.232 444.312C891.856 443.496 892.168 442.416 892.168 441.072C892.168 439.728 891.856 438.656 891.232 437.856C890.624 437.04 889.8 436.632 888.76 436.632C887.656 436.632 886.768 437.032 886.096 437.832C885.424 438.632 885.088 439.712 885.088 441.072C885.088 442.448 885.424 443.536 886.096 444.336C886.768 445.136 887.656 445.536 888.76 445.536C889.784 445.536 890.608 445.128 891.232 444.312ZM905.879 443.64L907.103 444.888C906.255 445.784 905.439 446.416 904.655 446.784C903.871 447.152 902.975 447.336 901.967 447.336C900.191 447.336 898.767 446.776 897.695 445.656C896.639 444.52 896.111 443.024 896.111 441.168C896.111 439.312 896.623 437.8 897.647 436.632C898.687 435.448 900.055 434.856 901.751 434.856C903.431 434.856 904.735 435.36 905.663 436.368C906.607 437.376 907.079 438.768 907.079 440.544C907.079 440.768 907.063 441.072 907.031 441.456H898.175C898.239 442.704 898.599 443.712 899.255 444.48C899.911 445.232 900.823 445.608 901.991 445.608C902.727 445.608 903.359 445.464 903.887 445.176C904.415 444.904 905.079 444.392 905.879 443.64ZM898.223 439.92H905.039C904.991 438.864 904.671 438.032 904.079 437.424C903.503 436.816 902.719 436.512 901.727 436.512C900.767 436.512 899.983 436.808 899.375 437.4C898.767 437.992 898.383 438.832 898.223 439.92ZM920.019 435.192V447H918.075V442.152C918.075 440.2 918.099 438.568 918.147 437.256C917.155 438.904 916.243 440.36 915.411 441.624L911.907 447H909.699V435.192H911.643V440.424C911.643 441.976 911.619 443.448 911.571 444.84C912.819 442.824 913.723 441.4 914.283 440.568L917.787 435.192H920.019ZM918.627 430.464H916.899C916.899 431.024 916.723 431.464 916.371 431.784C916.019 432.088 915.515 432.24 914.859 432.24C914.203 432.24 913.699 432.088 913.347 431.784C912.995 431.464 912.819 431.024 912.819 430.464H911.067C911.067 431.456 911.395 432.224 912.051 432.768C912.723 433.296 913.659 433.56 914.859 433.56C916.043 433.56 916.963 433.296 917.619 432.768C918.291 432.224 918.627 431.456 918.627 430.464ZM932.124 436.872H928.188V447H926.124V436.872H922.164V435.192H932.124V436.872ZM942.349 435.192H944.581V447H942.637V442.152C942.637 440.2 942.661 438.568 942.709 437.256C941.717 438.904 940.805 440.36 939.973 441.624L936.469 447H934.261V435.192H936.205V440.424C936.205 441.976 936.181 443.448 936.133 444.84C937.381 442.824 938.285 441.4 938.845 440.568L942.349 435.192ZM957.766 447H955.702V441.744H949.966V447H947.902V435.192H949.966V440.04H955.702V435.192H957.766V447ZM969.161 436.872H963.161V447H961.097V435.192H969.161V436.872ZM980.065 436.608C981.153 437.76 981.697 439.256 981.697 441.096C981.697 442.936 981.153 444.44 980.065 445.608C978.977 446.76 977.577 447.336 975.865 447.336C974.153 447.336 972.745 446.76 971.641 445.608C970.553 444.44 970.009 442.936 970.009 441.096C970.009 439.256 970.553 437.76 971.641 436.608C972.745 435.44 974.153 434.856 975.865 434.856C977.577 434.856 978.977 435.44 980.065 436.608ZM973.129 437.832C972.457 438.664 972.121 439.752 972.121 441.096C972.121 442.44 972.457 443.528 973.129 444.36C973.817 445.192 974.729 445.608 975.865 445.608C977.001 445.608 977.905 445.2 978.577 444.384C979.249 443.552 979.585 442.456 979.585 441.096C979.585 439.736 979.249 438.648 978.577 437.832C977.905 437 977.001 436.584 975.865 436.584C974.729 436.584 973.817 437 973.129 437.832ZM994.454 443.688C994.454 444.696 994.102 445.504 993.398 446.112C992.694 446.704 991.726 447 990.494 447H984.23V435.192H990.206C991.39 435.192 992.342 435.472 993.062 436.032C993.782 436.576 994.142 437.328 994.142 438.288C994.142 438.912 993.958 439.456 993.59 439.92C993.238 440.384 992.75 440.712 992.126 440.904C992.846 441.08 993.414 441.416 993.83 441.912C994.246 442.392 994.454 442.984 994.454 443.688ZM986.27 436.824V440.232H989.918C990.638 440.232 991.182 440.08 991.55 439.776C991.918 439.456 992.102 439.016 992.102 438.456C992.102 437.368 991.374 436.824 989.918 436.824H986.27ZM992.39 443.568C992.39 442.992 992.174 442.544 991.742 442.224C991.326 441.888 990.71 441.72 989.894 441.72H986.27V445.344H989.942C991.574 445.344 992.39 444.752 992.39 443.568Z" fill="white"/>
<path d="M500.543 238.004C503.183 239.132 504.503 241.04 504.503 243.728C504.503 246.104 503.579 247.976 501.731 249.344C499.907 250.688 497.435 251.36 494.315 251.36C491.363 251.36 488.879 250.64 486.863 249.2C484.847 247.736 483.623 245.708 483.191 243.116H486.863C487.463 244.82 488.375 246.068 489.599 246.86C490.847 247.652 492.419 248.048 494.315 248.048C496.379 248.048 497.975 247.652 499.103 246.86C500.231 246.068 500.795 245.012 500.795 243.692C500.795 242.612 500.351 241.736 499.463 241.064C498.599 240.368 497.135 240.02 495.071 240.02H491.039V236.744H495.071C496.703 236.744 497.951 236.36 498.815 235.592C499.703 234.824 500.147 233.9 500.147 232.82C500.147 231.524 499.607 230.516 498.527 229.796C497.447 229.076 495.935 228.716 493.991 228.716C492.287 228.716 490.811 229.112 489.563 229.904C488.315 230.672 487.547 231.824 487.259 233.36H483.551C483.839 231.68 484.487 230.24 485.495 229.04C486.503 227.84 487.739 226.94 489.203 226.34C490.691 225.74 492.275 225.44 493.955 225.44C495.947 225.44 497.687 225.74 499.175 226.34C500.687 226.916 501.851 227.732 502.667 228.788C503.507 229.844 503.927 231.068 503.927 232.46C503.927 233.636 503.639 234.704 503.063 235.664C502.511 236.6 501.671 237.38 500.543 238.004ZM525.972 245.24H512.364L509.88 251H505.956L517.26 225.8H521.292L532.596 251H528.456L525.972 245.24ZM524.568 241.928L519.204 229.508L513.804 241.928H524.568ZM567.877 225.8V251H564.277V240.128H549.877V251H546.277V225.8H549.877V236.672H564.277V225.8H567.877ZM591.503 245.24H577.895L575.411 251H571.487L582.791 225.8H586.823L598.127 251H593.987L591.503 245.24ZM590.099 241.928L584.735 229.508L579.335 241.928H590.099ZM599.009 238.4C599.009 236 599.573 233.816 600.701 231.848C601.853 229.856 603.413 228.296 605.381 227.168C607.349 226.016 609.533 225.44 611.933 225.44C613.781 225.44 615.509 225.8 617.117 226.52C618.725 227.216 620.105 228.224 621.257 229.544C622.433 230.84 623.297 232.352 623.849 234.08H619.853C619.109 232.472 618.053 231.212 616.685 230.3C615.341 229.364 613.757 228.896 611.933 228.896C610.229 228.896 608.681 229.316 607.289 230.156C605.897 230.996 604.793 232.148 603.977 233.612C603.185 235.052 602.789 236.648 602.789 238.4C602.789 240.152 603.185 241.76 603.977 243.224C604.793 244.664 605.897 245.804 607.289 246.644C608.681 247.484 610.229 247.904 611.933 247.904C613.757 247.904 615.341 247.448 616.685 246.536C618.053 245.6 619.109 244.328 619.853 242.72H623.849C623.297 244.448 622.433 245.972 621.257 247.292C620.105 248.588 618.725 249.596 617.117 250.316C615.509 251.012 613.781 251.36 611.933 251.36C609.533 251.36 607.349 250.796 605.381 249.668C603.413 248.516 601.853 246.956 600.701 244.988C599.573 242.996 599.009 240.8 599.009 238.4ZM655.342 229.256H642.022V251H638.422V225.8H655.342V229.256ZM668.856 251.36C666.432 251.36 664.212 250.796 662.196 249.668C660.18 248.516 658.596 246.956 657.444 244.988C656.292 242.996 655.716 240.8 655.716 238.4C655.716 236 656.292 233.816 657.444 231.848C658.596 229.856 660.18 228.296 662.196 227.168C664.212 226.016 666.432 225.44 668.856 225.44C671.28 225.44 673.5 226.016 675.516 227.168C677.532 228.296 679.116 229.856 680.268 231.848C681.42 233.816 681.996 236 681.996 238.4C681.996 240.8 681.42 242.996 680.268 244.988C679.116 246.956 677.532 248.516 675.516 249.668C673.5 250.796 671.28 251.36 668.856 251.36ZM668.856 247.904C670.584 247.904 672.156 247.484 673.572 246.644C675.012 245.804 676.14 244.664 676.956 243.224C677.796 241.76 678.216 240.152 678.216 238.4C678.216 236.648 677.796 235.052 676.956 233.612C676.14 232.148 675.012 230.996 673.572 230.156C672.156 229.316 670.584 228.896 668.856 228.896C667.128 228.896 665.544 229.316 664.104 230.156C662.688 230.996 661.56 232.148 660.72 233.612C659.904 235.052 659.496 236.648 659.496 238.4C659.496 240.152 659.904 241.76 660.72 243.224C661.56 244.664 662.688 245.804 664.104 246.644C665.544 247.484 667.128 247.904 668.856 247.904ZM702.743 238.148C703.919 238.772 704.807 239.576 705.407 240.56C706.007 241.52 706.307 242.624 706.307 243.872C706.307 245.24 705.983 246.464 705.335 247.544C704.711 248.6 703.787 249.44 702.563 250.064C701.339 250.688 699.875 251 698.171 251H686.867V225.8H698.135C699.767 225.8 701.171 226.1 702.347 226.7C703.523 227.3 704.411 228.116 705.011 229.148C705.635 230.18 705.947 231.344 705.947 232.64C705.947 233.84 705.683 234.908 705.155 235.844C704.627 236.78 703.823 237.548 702.743 238.148ZM697.955 236.816C699.395 236.816 700.475 236.48 701.195 235.808C701.939 235.112 702.311 234.116 702.311 232.82C702.311 230.348 700.859 229.112 697.955 229.112H690.467V236.816H697.955ZM697.991 247.688C699.479 247.688 700.607 247.352 701.375 246.68C702.143 246.008 702.527 245.024 702.527 243.728C702.527 242.48 702.143 241.544 701.375 240.92C700.607 240.272 699.479 239.948 697.991 239.948H690.467V247.688H697.991ZM722.328 251.36C719.904 251.36 717.684 250.796 715.668 249.668C713.652 248.516 712.068 246.956 710.916 244.988C709.764 242.996 709.188 240.8 709.188 238.4C709.188 236 709.764 233.816 710.916 231.848C712.068 229.856 713.652 228.296 715.668 227.168C717.684 226.016 719.904 225.44 722.328 225.44C724.752 225.44 726.972 226.016 728.988 227.168C731.004 228.296 732.588 229.856 733.74 231.848C734.892 233.816 735.468 236 735.468 238.4C735.468 240.8 734.892 242.996 733.74 244.988C732.588 246.956 731.004 248.516 728.988 249.668C726.972 250.796 724.752 251.36 722.328 251.36ZM722.328 247.904C724.056 247.904 725.628 247.484 727.044 246.644C728.484 245.804 729.612 244.664 730.428 243.224C731.268 241.76 731.688 240.152 731.688 238.4C731.688 236.648 731.268 235.052 730.428 233.612C729.612 232.148 728.484 230.996 727.044 230.156C725.628 229.316 724.056 228.896 722.328 228.896C720.6 228.896 719.016 229.316 717.576 230.156C716.16 230.996 715.032 232.148 714.192 233.612C713.376 235.052 712.968 236.648 712.968 238.4C712.968 240.152 713.376 241.76 714.192 243.224C715.032 244.664 716.16 245.804 717.576 246.644C719.016 247.484 720.6 247.904 722.328 247.904ZM751.356 225.8C753.036 225.8 754.476 226.124 755.676 226.772C756.9 227.396 757.824 228.272 758.448 229.4C759.096 230.504 759.42 231.764 759.42 233.18C759.42 234.596 759.096 235.868 758.448 236.996C757.824 238.1 756.9 238.976 755.676 239.624C754.476 240.248 753.036 240.56 751.356 240.56H743.94V251H740.34V225.8H751.356ZM751.248 237.212C752.688 237.212 753.78 236.876 754.524 236.204C755.268 235.508 755.64 234.5 755.64 233.18C755.64 231.86 755.268 230.864 754.524 230.192C753.78 229.52 752.688 229.184 751.248 229.184H743.94V237.212H751.248ZM782.978 251H779.378V240.56H778.118V240.596H769.874C768.122 240.596 767.246 241.472 767.246 243.224V247.94C767.246 249.98 766.226 251 764.186 251H761.954V247.544H762.746C763.346 247.544 763.646 247.244 763.646 246.644V243.08C763.646 242.072 763.814 241.232 764.15 240.56C764.51 239.888 765.038 239.36 765.734 238.976C764.846 238.304 764.162 237.476 763.682 236.492C763.226 235.508 762.998 234.404 762.998 233.18C762.998 231.764 763.31 230.504 763.934 229.4C764.582 228.272 765.506 227.396 766.706 226.772C767.93 226.124 769.382 225.8 771.062 225.8H782.978V251ZM779.378 237.284V229.076H771.278C769.838 229.076 768.722 229.436 767.93 230.156C767.162 230.852 766.778 231.86 766.778 233.18C766.778 234.5 767.162 235.52 767.93 236.24C768.722 236.936 769.838 237.284 771.278 237.284H779.378ZM808.353 229.256H799.353V251H795.753V229.256H786.753V225.8H808.353V229.256ZM599.691 290.544V299.4H596.235V294H575.211V268.8H578.811V290.544H593.211V268.8H596.811V290.544H599.691ZM603.828 268.8H607.428V285.756L622.188 272.58V268.8H625.788V294H622.188V277.044L607.428 290.22V294H603.828V268.8ZM651.997 272.94C653.917 272.94 655.573 273.312 656.965 274.056C658.381 274.776 659.449 275.784 660.169 277.08C660.889 278.352 661.249 279.792 661.249 281.4C661.249 283.008 660.889 284.46 660.169 285.756C659.449 287.028 658.381 288.036 656.965 288.78C655.573 289.5 653.917 289.86 651.997 289.86H647.569V294.36H643.969V289.86H639.541C637.621 289.86 635.953 289.5 634.537 288.78C633.145 288.036 632.089 287.028 631.369 285.756C630.649 284.46 630.289 283.008 630.289 281.4C630.289 279.792 630.649 278.352 631.369 277.08C632.089 275.784 633.145 274.776 634.537 274.056C635.953 273.312 637.621 272.94 639.541 272.94H643.969V268.44H647.569V272.94H651.997ZM643.969 286.404V276.396H639.541C637.765 276.396 636.409 276.84 635.473 277.728C634.537 278.592 634.069 279.816 634.069 281.4C634.069 282.984 634.537 284.22 635.473 285.108C636.409 285.972 637.765 286.404 639.541 286.404H643.969ZM651.997 286.404C653.773 286.404 655.129 285.972 656.065 285.108C657.001 284.22 657.469 282.984 657.469 281.4C657.469 279.816 657.001 278.592 656.065 277.728C655.129 276.84 653.773 276.396 651.997 276.396H647.569V286.404H651.997ZM676.754 268.8C678.434 268.8 679.874 269.124 681.074 269.772C682.298 270.396 683.222 271.272 683.846 272.4C684.494 273.504 684.818 274.764 684.818 276.18C684.818 277.596 684.494 278.868 683.846 279.996C683.222 281.1 682.298 281.976 681.074 282.624C679.874 283.248 678.434 283.56 676.754 283.56H669.338V294H665.738V268.8H676.754ZM676.646 280.212C678.086 280.212 679.178 279.876 679.922 279.204C680.666 278.508 681.038 277.5 681.038 276.18C681.038 274.86 680.666 273.864 679.922 273.192C679.178 272.52 678.086 272.184 676.646 272.184H669.338V280.212H676.646ZM700.168 279.24C701.848 279.24 703.288 279.564 704.488 280.212C705.712 280.836 706.636 281.712 707.26 282.84C707.908 283.944 708.232 285.204 708.232 286.62C708.232 288.036 707.908 289.308 707.26 290.436C706.636 291.54 705.712 292.416 704.488 293.064C703.288 293.688 701.848 294 700.168 294H689.152V268.8H692.752V279.24H700.168ZM700.06 290.616C701.5 290.616 702.592 290.28 703.336 289.608C704.08 288.912 704.452 287.904 704.452 286.584C704.452 285.264 704.08 284.268 703.336 283.596C702.592 282.924 701.5 282.588 700.06 282.588H692.752V290.616H700.06ZM715.792 268.8V294H712.192V268.8H715.792Z" fill="white"/>
<defs>
<linearGradient id="paint0_linear_480_155" x1="837.718" y1="316.315" x2="852.912" y2="234" gradientUnits="userSpaceOnUse">
<stop offset="0.0405605" stop-color="#E8B283"/>
<stop offset="1" stop-color="#428AFF"/>
</linearGradient>
</defs>
</svg>
