<svg width="406" height="455" viewBox="0 0 406 455" fill="none" xmlns="http://www.w3.org/2000/svg">
<g filter="url(#filter0_dd_480_587)">
<path d="M291.68 250.831L127.295 227.729C119.091 226.576 111.506 232.291 110.353 240.495L106.178 270.203C105.025 278.407 110.741 285.992 118.945 287.145L283.329 310.247C291.533 311.4 299.118 305.685 300.271 297.481L304.446 267.773C305.599 259.569 299.883 251.984 291.68 250.831Z" fill="url(#paint0_linear_480_587)"/>
<path d="M278.808 249C277.441 247.032 276.88 244.605 274.967 242.94C273.165 241.374 271.292 240.046 269 239.225C271.276 238.307 273.292 237.134 275.007 235.363C276.69 233.625 277.781 231.55 278.816 229C279.962 231.452 280.95 233.551 282.594 235.224C284.191 236.847 286 238.118 288 238.897C287.945 239.562 287.668 239.808 287.36 239.89C285.771 240.3 284.491 241.218 283.369 242.407C282.396 243.432 281.369 244.4 280.602 245.622C280.097 246.425 279.828 247.327 279.543 248.221C279.409 248.647 279.243 248.943 278.816 249H278.808Z" fill="#00FF75"/>
<path d="M128.711 295C127.775 293.721 127.391 292.143 126.083 291.061C124.85 290.043 123.568 289.18 122 288.647C123.557 288.05 124.936 287.287 126.11 286.136C127.262 285.006 128.008 283.658 128.716 282C129.5 283.594 130.176 284.958 131.301 286.046C132.394 287.101 133.632 287.927 135 288.433C134.962 288.865 134.773 289.025 134.562 289.078C133.475 289.345 132.599 289.942 131.831 290.715C131.166 291.381 130.463 292.01 129.938 292.804C129.592 293.326 129.408 293.913 129.214 294.494C129.122 294.771 129.008 294.963 128.716 295H128.711Z" fill="#00FF75"/>
<path d="M107.552 293C105.105 289.458 104.101 285.089 100.678 282.092C97.4534 279.273 94.1015 276.882 90 275.406C94.0732 273.753 97.6797 271.642 100.749 268.454C103.761 265.325 105.713 261.59 107.566 257C109.616 261.413 111.384 265.192 114.326 268.203C117.183 271.125 120.422 273.413 124 274.815C123.901 276.011 123.406 276.454 122.854 276.601C120.012 277.339 117.72 278.993 115.712 281.133C113.973 282.978 112.134 284.72 110.762 286.919C109.857 288.365 109.376 289.989 108.867 291.598C108.626 292.365 108.329 292.897 107.566 293H107.552Z" fill="#00FF75"/>
<path d="M127.469 254.78C129.009 255.44 129.669 256.58 129.669 257.96C129.669 260.62 127.449 262.2 124.009 262.2C120.769 262.2 118.329 260.54 117.829 257.62H119.869C120.549 259.54 121.929 260.36 124.009 260.36C126.349 260.36 127.609 259.38 127.609 257.94C127.609 256.9 126.929 255.9 124.429 255.9H122.189V254.08H124.429C126.349 254.08 127.249 253.02 127.249 251.9C127.249 250.48 126.009 249.62 123.829 249.62C122.069 249.62 120.429 250.4 120.089 252.2H118.029C118.509 249.28 121.089 247.8 123.809 247.8C127.169 247.8 129.389 249.38 129.349 251.76C129.329 253 128.729 254.1 127.469 254.78ZM142.975 262L141.595 258.8H134.035L132.655 262H130.475L136.755 248H138.995L145.275 262H142.975ZM134.835 256.96H140.815L137.835 250.06L134.835 256.96ZM162.876 248H164.876V262H162.876V255.96H154.876V262H152.876V248H154.876V254.04H162.876V248ZM179.382 262L178.002 258.8H170.442L169.062 262H166.882L173.162 248H175.402L181.682 262H179.382ZM171.242 256.96H177.222L174.242 250.06L171.242 256.96ZM182.171 255C182.171 250.94 185.291 247.8 189.351 247.8C192.451 247.8 195.051 249.7 195.971 252.6H193.751C192.951 250.88 191.451 249.72 189.351 249.72C186.471 249.72 184.271 252.02 184.271 255C184.271 257.98 186.471 260.28 189.351 260.28C191.451 260.28 192.951 259.12 193.751 257.4H195.971C195.051 260.3 192.451 262.2 189.351 262.2C185.291 262.2 182.171 259.06 182.171 255ZM213.468 248V249.92H206.068V262H204.068V248H213.468ZM220.975 262.2C216.855 262.2 213.675 259.06 213.675 255C213.675 250.94 216.855 247.8 220.975 247.8C225.095 247.8 228.275 250.94 228.275 255C228.275 259.06 225.095 262.2 220.975 262.2ZM220.975 260.28C223.915 260.28 226.175 257.98 226.175 255C226.175 252.02 223.915 249.72 220.975 249.72C218.035 249.72 215.775 252.02 215.775 255C215.775 257.98 218.035 260.28 220.975 260.28ZM239.802 254.86C241.142 255.56 241.782 256.68 241.782 258.04C241.782 260.28 240.162 262 237.262 262H230.982V248H237.242C240.022 248 241.582 249.66 241.582 251.8C241.582 253.08 241.042 254.18 239.802 254.86ZM232.982 254.12H237.142C238.742 254.12 239.562 253.32 239.562 251.9C239.562 250.54 238.742 249.84 237.142 249.84H232.982V254.12ZM237.162 260.16C238.822 260.16 239.682 259.38 239.682 257.96C239.682 256.58 238.822 255.86 237.162 255.86H232.982V260.16H237.162ZM250.682 262.2C246.562 262.2 243.382 259.06 243.382 255C243.382 250.94 246.562 247.8 250.682 247.8C254.802 247.8 257.982 250.94 257.982 255C257.982 259.06 254.802 262.2 250.682 262.2ZM250.682 260.28C253.622 260.28 255.882 257.98 255.882 255C255.882 252.02 253.622 249.72 250.682 249.72C247.742 249.72 245.482 252.02 245.482 255C245.482 257.98 247.742 260.28 250.682 260.28ZM266.809 248C269.689 248 271.289 249.78 271.289 252.1C271.289 254.42 269.689 256.2 266.809 256.2H262.689V262H260.689V248H266.809ZM266.749 254.34C268.349 254.34 269.189 253.56 269.189 252.1C269.189 250.64 268.349 249.88 266.749 249.88H262.689V254.34H266.749ZM284.376 248V262H282.376V256.2H281.676V256.22H277.096C276.136 256.22 275.636 256.72 275.636 257.68V260.3C275.636 261.42 275.056 262 273.936 262H272.696V260.08H273.136C273.456 260.08 273.636 259.9 273.636 259.58V257.6C273.636 256.46 274.016 255.74 274.796 255.32C273.796 254.58 273.276 253.44 273.276 252.1C273.276 249.78 274.876 248 277.756 248H284.376ZM277.876 254.38H282.376V249.82H277.876C276.276 249.82 275.376 250.64 275.376 252.1C275.376 253.56 276.276 254.38 277.876 254.38ZM298.474 248V249.92H293.474V262H291.474V249.92H286.474V248H298.474ZM180.95 284.08H182.55V289H180.63V286H168.95V272H170.95V284.08H178.95V272H180.95V284.08ZM184.849 286V272H186.849V281.42L195.049 274.1V272H197.049V286H195.049V276.58L186.849 283.9V286H184.849ZM211.61 274.3C214.91 274.3 216.75 276.34 216.75 279C216.75 281.66 214.91 283.7 211.61 283.7H209.15V286.2H207.15V283.7H204.69C201.39 283.7 199.55 281.66 199.55 279C199.55 276.34 201.39 274.3 204.69 274.3H207.15V271.8H209.15V274.3H211.61ZM204.69 281.78H207.15V276.22H204.69C202.71 276.22 201.65 277.24 201.65 279C201.65 280.76 202.71 281.78 204.69 281.78ZM211.61 281.78C213.59 281.78 214.65 280.76 214.65 279C214.65 277.24 213.59 276.22 211.61 276.22H209.15V281.78H211.61ZM225.363 272C228.243 272 229.843 273.78 229.843 276.1C229.843 278.42 228.243 280.2 225.363 280.2H221.243V286H219.243V272H225.363ZM225.303 278.34C226.903 278.34 227.743 277.56 227.743 276.1C227.743 274.64 226.903 273.88 225.303 273.88H221.243V278.34H225.303ZM238.371 277.8C241.251 277.8 242.851 279.58 242.851 281.9C242.851 284.22 241.251 286 238.371 286H232.251V272H234.251V277.8H238.371ZM245.051 272H247.051V286H245.051V272ZM238.311 284.12C239.911 284.12 240.751 283.34 240.751 281.88C240.751 280.42 239.911 279.66 238.311 279.66H234.251V284.12H238.311Z" fill="white"/>
<path d="M28.6397 121.048H50.8637L61.7597 125.896V134.056H40.3517L33.0077 137.224V140.776H61.7597V145.096H28.6397V134.392L39.4877 129.736H57.3917V128.536L50.0477 125.368H28.6397V121.048ZM63.7022 140.2V125.752L74.3582 121H85.5422L96.1982 125.752V140.2L85.5422 144.952H74.3582L63.7022 140.2ZM67.9742 137.416L75.1742 140.68H84.7262L91.9262 137.416V128.392L84.7262 125.272H75.1742L67.9742 128.392V137.416ZM98.1084 140.2V125.752L108.764 121H119.948L130.604 125.752V140.2L119.948 144.952H108.764L98.1084 140.2ZM102.38 137.416L109.58 140.68H119.132L126.332 137.416V128.392L119.132 125.272H109.58L102.38 128.392V137.416ZM132.515 136.456V130.504H137.555V125.416H143.507V130.504H148.355V136.456H143.507V141.256H137.555V136.456H132.515Z" fill="white"/>
<path d="M27.8598 157.924C27.2064 157.924 26.6931 158.181 26.3198 158.694C25.9464 159.198 25.7598 159.819 25.7598 160.556C25.7598 161.284 25.9418 161.905 26.3058 162.418C26.6791 162.922 27.2018 163.174 27.8738 163.174C28.2471 163.174 28.5831 163.095 28.8818 162.936C29.1898 162.768 29.5398 162.465 29.9318 162.026L30.7298 162.698C30.2911 163.249 29.8524 163.636 29.4138 163.86C28.9751 164.084 28.4618 164.196 27.8738 164.196C26.8658 164.196 26.0538 163.865 25.4378 163.202C24.8311 162.539 24.5278 161.657 24.5278 160.556C24.5278 159.464 24.8358 158.587 25.4518 157.924C26.0771 157.252 26.8844 156.916 27.8738 156.916C28.4431 156.916 28.9378 157.014 29.3578 157.21C29.7871 157.406 30.2118 157.742 30.6318 158.218L29.8478 158.96C29.4931 158.577 29.1618 158.311 28.8538 158.162C28.5551 158.003 28.2238 157.924 27.8598 157.924ZM37.0861 158.092H34.7901V164H33.5861V158.092H31.2761V157.112H37.0861V158.092ZM43.6724 159.212V164H42.5804V163.146C42.0951 163.865 41.3158 164.224 40.2424 164.224C39.4864 164.224 38.8844 164.061 38.4364 163.734C37.9978 163.407 37.7784 162.927 37.7784 162.292C37.7784 161.555 38.0538 161.018 38.6044 160.682C39.1738 160.337 39.9671 160.075 40.9844 159.898L42.5244 159.618V159.268C42.5244 158.848 42.3751 158.517 42.0764 158.274C41.7871 158.031 41.3998 157.91 40.9144 157.91C40.4944 157.91 40.1164 157.999 39.7804 158.176C39.4538 158.344 39.0758 158.643 38.6464 159.072L37.8764 158.386C38.7071 157.406 39.7058 156.916 40.8724 156.916C41.7498 156.916 42.4358 157.126 42.9304 157.546C43.4251 157.957 43.6724 158.512 43.6724 159.212ZM42.5244 161.424V160.514L41.2644 160.766C40.4058 160.943 39.8131 161.125 39.4864 161.312C39.1691 161.499 38.9918 161.811 38.9544 162.25C38.9544 162.567 39.0758 162.81 39.3184 162.978C39.5704 163.146 39.9204 163.23 40.3684 163.23C40.9938 163.23 41.5071 163.067 41.9084 162.74C42.3191 162.404 42.5244 161.965 42.5244 161.424ZM52.0616 160.542C52.0616 161.625 51.7769 162.502 51.2076 163.174C50.6383 163.846 49.9103 164.182 49.0236 164.182C47.9876 164.182 47.2269 163.813 46.7416 163.076V166.52H45.5376V157.112H46.6716V158.176C47.1849 157.345 47.9689 156.93 49.0236 156.93C49.9103 156.93 50.6383 157.266 51.2076 157.938C51.7769 158.61 52.0616 159.478 52.0616 160.542ZM50.2836 162.432C50.6476 161.956 50.8296 161.326 50.8296 160.542C50.8296 159.758 50.6476 159.133 50.2836 158.666C49.9289 158.19 49.4483 157.952 48.8416 157.952C48.1976 157.952 47.6796 158.185 47.2876 158.652C46.8956 159.119 46.6996 159.749 46.6996 160.542C46.6996 161.345 46.8956 161.979 47.2876 162.446C47.6796 162.913 48.1976 163.146 48.8416 163.146C49.4389 163.146 49.9196 162.908 50.2836 162.432ZM58.4005 158.092H56.1045V164H54.9005V158.092H52.5905V157.112H58.4005V158.092ZM64.9869 159.212V164H63.8949V163.146C63.4096 163.865 62.6302 164.224 61.5569 164.224C60.8009 164.224 60.1989 164.061 59.7509 163.734C59.3122 163.407 59.0929 162.927 59.0929 162.292C59.0929 161.555 59.3682 161.018 59.9189 160.682C60.4882 160.337 61.2816 160.075 62.2989 159.898L63.8389 159.618V159.268C63.8389 158.848 63.6896 158.517 63.3909 158.274C63.1016 158.031 62.7142 157.91 62.2289 157.91C61.8089 157.91 61.4309 157.999 61.0949 158.176C60.7682 158.344 60.3902 158.643 59.9609 159.072L59.1909 158.386C60.0216 157.406 61.0202 156.916 62.1869 156.916C63.0642 156.916 63.7502 157.126 64.2449 157.546C64.7396 157.957 64.9869 158.512 64.9869 159.212ZM63.8389 161.424V160.514L62.5789 160.766C61.7202 160.943 61.1276 161.125 60.8009 161.312C60.4836 161.499 60.3062 161.811 60.2689 162.25C60.2689 162.567 60.3902 162.81 60.6329 162.978C60.8849 163.146 61.2349 163.23 61.6829 163.23C62.3082 163.23 62.8216 163.067 63.2229 162.74C63.6336 162.404 63.8389 161.965 63.8389 161.424ZM66.8801 164V157.112H72.5641V164H71.3601V158.092H68.0841V164H66.8801ZM79.927 157.938C80.5616 158.61 80.879 159.483 80.879 160.556C80.879 161.629 80.5616 162.507 79.927 163.188C79.2923 163.86 78.4756 164.196 77.477 164.196C76.4783 164.196 75.657 163.86 75.013 163.188C74.3783 162.507 74.061 161.629 74.061 160.556C74.061 159.483 74.3783 158.61 75.013 157.938C75.657 157.257 76.4783 156.916 77.477 156.916C78.4756 156.916 79.2923 157.257 79.927 157.938ZM75.881 158.652C75.489 159.137 75.293 159.772 75.293 160.556C75.293 161.34 75.489 161.975 75.881 162.46C76.2823 162.945 76.8143 163.188 77.477 163.188C78.1396 163.188 78.667 162.95 79.059 162.474C79.451 161.989 79.647 161.349 79.647 160.556C79.647 159.763 79.451 159.128 79.059 158.652C78.667 158.167 78.1396 157.924 77.477 157.924C76.8143 157.924 76.2823 158.167 75.881 158.652ZM88.3206 162.068C88.3206 162.656 88.1153 163.127 87.7046 163.482C87.294 163.827 86.7293 164 86.0106 164H82.3566V157.112H85.8426C86.5333 157.112 87.0886 157.275 87.5086 157.602C87.9286 157.919 88.1386 158.358 88.1386 158.918C88.1386 159.282 88.0313 159.599 87.8166 159.87C87.6113 160.141 87.3266 160.332 86.9626 160.444C87.3826 160.547 87.714 160.743 87.9566 161.032C88.1993 161.312 88.3206 161.657 88.3206 162.068ZM83.5466 158.064V160.052H85.6746C86.0946 160.052 86.412 159.963 86.6266 159.786C86.8413 159.599 86.9486 159.343 86.9486 159.016C86.9486 158.381 86.524 158.064 85.6746 158.064H83.5466ZM87.1166 161.998C87.1166 161.662 86.9906 161.401 86.7386 161.214C86.496 161.018 86.1366 160.92 85.6606 160.92H83.5466V163.034H85.6886C86.6406 163.034 87.1166 162.689 87.1166 161.998ZM93.0754 164V157.112H98.7594V164H97.5554V158.092H94.2794V164H93.0754ZM106.122 157.938C106.757 158.61 107.074 159.483 107.074 160.556C107.074 161.629 106.757 162.507 106.122 163.188C105.488 163.86 104.671 164.196 103.672 164.196C102.674 164.196 101.852 163.86 101.208 163.188C100.574 162.507 100.256 161.629 100.256 160.556C100.256 159.483 100.574 158.61 101.208 157.938C101.852 157.257 102.674 156.916 103.672 156.916C104.671 156.916 105.488 157.257 106.122 157.938ZM102.076 158.652C101.684 159.137 101.488 159.772 101.488 160.556C101.488 161.34 101.684 161.975 102.076 162.46C102.478 162.945 103.01 163.188 103.672 163.188C104.335 163.188 104.862 162.95 105.254 162.474C105.646 161.989 105.842 161.349 105.842 160.556C105.842 159.763 105.646 159.128 105.254 158.652C104.862 158.167 104.335 157.924 103.672 157.924C103.01 157.924 102.478 158.167 102.076 158.652ZM107.441 163.986L107.567 162.992C107.754 163.02 107.931 163.034 108.099 163.034C108.51 162.997 108.762 162.833 108.855 162.544C108.958 162.245 109.023 161.508 109.051 160.332L109.079 157.112H114.175V164H112.971V158.092H110.171L110.143 160.374C110.115 161.849 109.984 162.824 109.751 163.3C109.518 163.776 109.009 164.033 108.225 164.07C107.926 164.07 107.665 164.042 107.441 163.986ZM120.452 157.112H121.67L118.912 164.952C118.679 165.605 118.418 166.058 118.128 166.31C117.839 166.571 117.41 166.702 116.84 166.702C116.439 166.702 116.084 166.655 115.776 166.562L115.986 165.638C116.238 165.694 116.486 165.722 116.728 165.722C117.018 165.722 117.246 165.643 117.414 165.484C117.592 165.325 117.75 165.041 117.89 164.63L117.974 164.364L115.384 157.112H116.658L117.428 159.394C117.634 159.991 117.974 161.009 118.45 162.446L118.562 162.796L118.982 161.522L119.682 159.366L120.452 157.112ZM126.966 157.112H128.17V164H126.966V161.214C126.462 161.447 125.842 161.564 125.104 161.564C124.227 161.564 123.588 161.391 123.186 161.046C122.785 160.691 122.584 160.15 122.584 159.422V157.112H123.788V159.366C123.788 159.777 123.9 160.08 124.124 160.276C124.358 160.472 124.736 160.57 125.258 160.57C125.93 160.57 126.5 160.458 126.966 160.234V157.112ZM134.817 157.112H136.119V164H134.985V161.172C134.985 160.033 134.999 159.081 135.027 158.316C134.448 159.277 133.916 160.127 133.431 160.864L131.387 164H130.099V157.112H131.233V160.164C131.233 161.069 131.219 161.928 131.191 162.74C131.919 161.564 132.446 160.733 132.773 160.248L134.817 157.112ZM137.328 163.986L137.454 162.992C137.641 163.02 137.818 163.034 137.986 163.034C138.397 162.997 138.649 162.833 138.742 162.544C138.845 162.245 138.91 161.508 138.938 160.332L138.966 157.112H144.062V164H142.858V158.092H140.058L140.03 160.374C140.002 161.849 139.871 162.824 139.638 163.3C139.405 163.776 138.896 164.033 138.112 164.07C137.813 164.07 137.552 164.042 137.328 163.986ZM150.717 157.112H152.019V164H150.885V161.172C150.885 160.033 150.899 159.081 150.927 158.316C150.349 159.277 149.817 160.127 149.331 160.864L147.287 164H145.999V157.112H147.133V160.164C147.133 161.069 147.119 161.928 147.091 162.74C147.819 161.564 148.347 160.733 148.673 160.248L150.717 157.112ZM38.0448 171.06H39.2068V173.916C40.3734 173.963 41.3114 174.308 42.0208 174.952C42.7394 175.587 43.0988 176.455 43.0988 177.556C43.0988 178.667 42.7394 179.544 42.0208 180.188C41.3114 180.823 40.3734 181.163 39.2068 181.21V183.52H38.0448V181.21C36.8781 181.163 35.9354 180.823 35.2168 180.188C34.5074 179.544 34.1528 178.667 34.1528 177.556C34.1528 176.455 34.5074 175.587 35.2168 174.952C35.9354 174.308 36.8781 173.963 38.0448 173.916V171.06ZM38.0868 180.23V174.896C37.2561 174.924 36.5981 175.171 36.1128 175.638C35.6274 176.095 35.3848 176.735 35.3848 177.556C35.3848 178.387 35.6228 179.031 36.0988 179.488C36.5748 179.945 37.2374 180.193 38.0868 180.23ZM39.1788 174.896V180.23C40.0094 180.193 40.6628 179.945 41.1388 179.488C41.6241 179.021 41.8668 178.377 41.8668 177.556C41.8668 176.735 41.6241 176.095 41.1388 175.638C40.6628 175.171 40.0094 174.924 39.1788 174.896ZM49.2992 174.112H50.6012V181H49.4672V178.172C49.4672 177.033 49.4812 176.081 49.5092 175.316C48.9306 176.277 48.3986 177.127 47.9132 177.864L45.8692 181H44.5812V174.112H45.7152V177.164C45.7152 178.069 45.7012 178.928 45.6732 179.74C46.4012 178.564 46.9286 177.733 47.2552 177.248L49.2992 174.112ZM58.2923 181H57.0883V177.934H53.7423V181H52.5383V174.112H53.7423V176.94H57.0883V174.112H58.2923V181ZM65.7935 176.212V181H64.7015V180.146C64.2162 180.865 63.4369 181.224 62.3635 181.224C61.6075 181.224 61.0055 181.061 60.5575 180.734C60.1189 180.407 59.8995 179.927 59.8995 179.292C59.8995 178.555 60.1749 178.018 60.7255 177.682C61.2949 177.337 62.0882 177.075 63.1055 176.898L64.6455 176.618V176.268C64.6455 175.848 64.4962 175.517 64.1975 175.274C63.9082 175.031 63.5209 174.91 63.0355 174.91C62.6155 174.91 62.2375 174.999 61.9015 175.176C61.5749 175.344 61.1969 175.643 60.7675 176.072L59.9975 175.386C60.8282 174.406 61.8269 173.916 62.9935 173.916C63.8709 173.916 64.5569 174.126 65.0515 174.546C65.5462 174.957 65.7935 175.512 65.7935 176.212ZM64.6455 178.424V177.514L63.3855 177.766C62.5269 177.943 61.9342 178.125 61.6075 178.312C61.2902 178.499 61.1129 178.811 61.0755 179.25C61.0755 179.567 61.1969 179.81 61.4395 179.978C61.6915 180.146 62.0415 180.23 62.4895 180.23C63.1149 180.23 63.6282 180.067 64.0295 179.74C64.4402 179.404 64.6455 178.965 64.6455 178.424ZM73.4407 181H72.2367V177.934H68.8907V181H67.6867V174.112H68.8907V176.94H72.2367V174.112H73.4407V181ZM78.268 174.924C77.6146 174.924 77.1013 175.181 76.728 175.694C76.3546 176.198 76.168 176.819 76.168 177.556C76.168 178.284 76.35 178.905 76.714 179.418C77.0873 179.922 77.61 180.174 78.282 180.174C78.6553 180.174 78.9913 180.095 79.29 179.936C79.598 179.768 79.948 179.465 80.34 179.026L81.138 179.698C80.6993 180.249 80.2606 180.636 79.822 180.86C79.3833 181.084 78.87 181.196 78.282 181.196C77.274 181.196 76.462 180.865 75.846 180.202C75.2393 179.539 74.936 178.657 74.936 177.556C74.936 176.464 75.244 175.587 75.86 174.924C76.4853 174.252 77.2926 173.916 78.282 173.916C78.8513 173.916 79.346 174.014 79.766 174.21C80.1953 174.406 80.62 174.742 81.04 175.218L80.256 175.96C79.9013 175.577 79.57 175.311 79.262 175.162C78.9633 175.003 78.632 174.924 78.268 174.924ZM87.102 174.112H88.404V181H87.27V178.172C87.27 177.033 87.284 176.081 87.312 175.316C86.7333 176.277 86.2013 177.127 85.716 177.864L83.672 181H82.384V174.112H83.518V177.164C83.518 178.069 83.504 178.928 83.476 179.74C84.204 178.564 84.7313 177.733 85.058 177.248L87.102 174.112ZM96.837 177.542C96.837 178.625 96.5523 179.502 95.983 180.174C95.4137 180.846 94.6857 181.182 93.799 181.182C92.763 181.182 92.0023 180.813 91.517 180.076V183.52H90.313V174.112H91.447V175.176C91.9603 174.345 92.7443 173.93 93.799 173.93C94.6857 173.93 95.4137 174.266 95.983 174.938C96.5523 175.61 96.837 176.478 96.837 177.542ZM95.059 179.432C95.423 178.956 95.605 178.326 95.605 177.542C95.605 176.758 95.423 176.133 95.059 175.666C94.7043 175.19 94.2237 174.952 93.617 174.952C92.973 174.952 92.455 175.185 92.063 175.652C91.671 176.119 91.475 176.749 91.475 177.542C91.475 178.345 91.671 178.979 92.063 179.446C92.455 179.913 92.973 180.146 93.617 180.146C94.2143 180.146 94.695 179.908 95.059 179.432ZM103.771 174.938C104.405 175.61 104.723 176.483 104.723 177.556C104.723 178.629 104.405 179.507 103.771 180.188C103.136 180.86 102.319 181.196 101.321 181.196C100.322 181.196 99.5007 180.86 98.8567 180.188C98.2221 179.507 97.9047 178.629 97.9047 177.556C97.9047 176.483 98.2221 175.61 98.8567 174.938C99.5007 174.257 100.322 173.916 101.321 173.916C102.319 173.916 103.136 174.257 103.771 174.938ZM99.7247 175.652C99.3327 176.137 99.1367 176.772 99.1367 177.556C99.1367 178.34 99.3327 178.975 99.7247 179.46C100.126 179.945 100.658 180.188 101.321 180.188C101.983 180.188 102.511 179.95 102.903 179.474C103.295 178.989 103.491 178.349 103.491 177.556C103.491 176.763 103.295 176.128 102.903 175.652C102.511 175.167 101.983 174.924 101.321 174.924C100.658 174.924 100.126 175.167 99.7247 175.652ZM112.164 179.068C112.164 179.656 111.959 180.127 111.548 180.482C111.138 180.827 110.573 181 109.854 181H106.2V174.112H109.686C110.377 174.112 110.932 174.275 111.352 174.602C111.772 174.919 111.982 175.358 111.982 175.918C111.982 176.282 111.875 176.599 111.66 176.87C111.455 177.141 111.17 177.332 110.806 177.444C111.226 177.547 111.558 177.743 111.8 178.032C112.043 178.312 112.164 178.657 112.164 179.068ZM107.39 175.064V177.052H109.518C109.938 177.052 110.256 176.963 110.47 176.786C110.685 176.599 110.792 176.343 110.792 176.016C110.792 175.381 110.368 175.064 109.518 175.064H107.39ZM110.96 178.998C110.96 178.662 110.834 178.401 110.582 178.214C110.34 178.018 109.98 177.92 109.504 177.92H107.39V180.034H109.532C110.484 180.034 110.96 179.689 110.96 178.998ZM119.305 176.212V181H118.213V180.146C117.728 180.865 116.949 181.224 115.875 181.224C115.119 181.224 114.517 181.061 114.069 180.734C113.631 180.407 113.411 179.927 113.411 179.292C113.411 178.555 113.687 178.018 114.237 177.682C114.807 177.337 115.6 177.075 116.617 176.898L118.157 176.618V176.268C118.157 175.848 118.008 175.517 117.709 175.274C117.42 175.031 117.033 174.91 116.547 174.91C116.127 174.91 115.749 174.999 115.413 175.176C115.087 175.344 114.709 175.643 114.279 176.072L113.509 175.386C114.34 174.406 115.339 173.916 116.505 173.916C117.383 173.916 118.069 174.126 118.563 174.546C119.058 174.957 119.305 175.512 119.305 176.212ZM118.157 178.424V177.514L116.897 177.766C116.039 177.943 115.446 178.125 115.119 178.312C114.802 178.499 114.625 178.811 114.587 179.25C114.587 179.567 114.709 179.81 114.951 179.978C115.203 180.146 115.553 180.23 116.001 180.23C116.627 180.23 117.14 180.067 117.541 179.74C117.952 179.404 118.157 178.965 118.157 178.424ZM126.952 181H125.748V177.934H122.402V181H121.198V174.112H122.402V176.94H125.748V174.112H126.952V181ZM133.614 174.112H134.916V181H133.782V178.172C133.782 177.033 133.796 176.081 133.824 175.316C133.245 176.277 132.713 177.127 132.228 177.864L130.184 181H128.896V174.112H130.03V177.164C130.03 178.069 130.016 178.928 129.988 179.74C130.716 178.564 131.243 177.733 131.57 177.248L133.614 174.112ZM142.103 179.04L142.817 179.768C142.322 180.291 141.846 180.659 141.389 180.874C140.931 181.089 140.409 181.196 139.821 181.196C138.785 181.196 137.954 180.869 137.329 180.216C136.713 179.553 136.405 178.681 136.405 177.598C136.405 176.515 136.703 175.633 137.301 174.952C137.907 174.261 138.705 173.916 139.695 173.916C140.675 173.916 141.435 174.21 141.977 174.798C142.527 175.386 142.803 176.198 142.803 177.234C142.803 177.365 142.793 177.542 142.775 177.766H137.609C137.646 178.494 137.856 179.082 138.239 179.53C138.621 179.969 139.153 180.188 139.835 180.188C140.264 180.188 140.633 180.104 140.941 179.936C141.249 179.777 141.636 179.479 142.103 179.04ZM137.637 176.87H141.613C141.585 176.254 141.398 175.769 141.053 175.414C140.717 175.059 140.259 174.882 139.681 174.882C139.121 174.882 138.663 175.055 138.309 175.4C137.954 175.745 137.73 176.235 137.637 176.87Z" fill="white"/>
<path d="M114.463 351.048V355.368H85.7108V358.872L93.0548 362.04H114.463V370.248L103.567 375.096H81.3428V370.776H102.751L110.095 367.416V366.408H92.1908L81.3428 361.56V351.048H114.463ZM116.405 370.2V355.752L127.061 351H138.245L148.901 355.752V370.2L138.245 374.952H127.061L116.405 370.2ZM120.677 367.416L127.877 370.68H137.429L144.629 367.416V358.392L137.429 355.272H127.877L120.677 358.392V367.416ZM150.812 366.456V360.504H155.852V355.416H161.804V360.504H166.652V366.456H161.804V371.256H155.852V366.456H150.812Z" fill="white"/>
<path d="M103.416 387.938C104.051 388.61 104.368 389.483 104.368 390.556C104.368 391.629 104.051 392.507 103.416 393.188C102.782 393.86 101.965 394.196 100.966 394.196C99.9676 394.196 99.1462 393.86 98.5022 393.188C97.8676 392.507 97.5502 391.629 97.5502 390.556C97.5502 389.483 97.8676 388.61 98.5022 387.938C99.1462 387.257 99.9676 386.916 100.966 386.916C101.965 386.916 102.782 387.257 103.416 387.938ZM99.3702 388.652C98.9782 389.137 98.7822 389.772 98.7822 390.556C98.7822 391.34 98.9782 391.975 99.3702 392.46C99.7716 392.945 100.304 393.188 100.966 393.188C101.629 393.188 102.156 392.95 102.548 392.474C102.94 391.989 103.136 391.349 103.136 390.556C103.136 389.763 102.94 389.128 102.548 388.652C102.156 388.167 101.629 387.924 100.966 387.924C100.304 387.924 99.7716 388.167 99.3702 388.652ZM111.527 388.092C112.077 388.699 112.353 389.534 112.353 390.598C112.353 391.662 112.04 392.525 111.415 393.188C110.789 393.851 109.982 394.182 108.993 394.182C107.91 394.182 107.07 393.804 106.473 393.048C105.875 392.283 105.577 391.191 105.577 389.772C105.577 387.887 105.866 386.515 106.445 385.656C107.033 384.788 108.073 384.284 109.567 384.144L111.849 383.948L111.933 385.082L109.679 385.278C108.587 385.362 107.821 385.656 107.383 386.16C106.953 386.655 106.697 387.527 106.613 388.778C106.837 388.283 107.182 387.891 107.649 387.602C108.115 387.313 108.657 387.168 109.273 387.168C110.225 387.168 110.976 387.476 111.527 388.092ZM111.121 390.626C111.121 389.87 110.934 389.273 110.561 388.834C110.197 388.395 109.693 388.176 109.049 388.176C108.405 388.176 107.868 388.405 107.439 388.862C107.019 389.31 106.809 389.898 106.809 390.626C106.809 391.401 107.005 392.021 107.397 392.488C107.789 392.945 108.316 393.174 108.979 393.174C109.632 393.174 110.15 392.945 110.533 392.488C110.925 392.021 111.121 391.401 111.121 390.626ZM119.111 392.026C119.111 392.67 118.845 393.197 118.313 393.608C117.781 394.009 117.076 394.21 116.199 394.21C115.014 394.21 113.968 393.813 113.063 393.02L113.721 392.208C114.514 392.871 115.34 393.202 116.199 393.202C116.75 393.202 117.174 393.095 117.473 392.88C117.781 392.656 117.935 392.357 117.935 391.984C117.935 391.293 117.403 390.948 116.339 390.948H115.051V390.01H116.367C116.815 390.01 117.156 389.921 117.389 389.744C117.622 389.557 117.739 389.296 117.739 388.96C117.739 388.624 117.599 388.363 117.319 388.176C117.048 387.98 116.666 387.882 116.171 387.882C115.48 387.882 114.724 388.167 113.903 388.736L113.329 387.924C114.318 387.243 115.28 386.902 116.213 386.902C116.969 386.902 117.608 387.075 118.131 387.42C118.663 387.756 118.929 388.237 118.929 388.862C118.929 389.599 118.537 390.117 117.753 390.416C118.658 390.705 119.111 391.242 119.111 392.026ZM126.098 387.938C126.733 388.61 127.05 389.483 127.05 390.556C127.05 391.629 126.733 392.507 126.098 393.188C125.463 393.86 124.647 394.196 123.648 394.196C122.649 394.196 121.828 393.86 121.184 393.188C120.549 392.507 120.232 391.629 120.232 390.556C120.232 389.483 120.549 388.61 121.184 387.938C121.828 387.257 122.649 386.916 123.648 386.916C124.647 386.916 125.463 387.257 126.098 387.938ZM122.052 388.652C121.66 389.137 121.464 389.772 121.464 390.556C121.464 391.34 121.66 391.975 122.052 392.46C122.453 392.945 122.985 393.188 123.648 393.188C124.311 393.188 124.838 392.95 125.23 392.474C125.622 391.989 125.818 391.349 125.818 390.556C125.818 389.763 125.622 389.128 125.23 388.652C124.838 388.167 124.311 387.924 123.648 387.924C122.985 387.924 122.453 388.167 122.052 388.652ZM135.024 390.542C135.024 391.625 134.739 392.502 134.17 393.174C133.6 393.846 132.872 394.182 131.986 394.182C130.95 394.182 130.189 393.813 129.704 393.076V396.52H128.5V387.112H129.634V388.176C130.147 387.345 130.931 386.93 131.986 386.93C132.872 386.93 133.6 387.266 134.17 387.938C134.739 388.61 135.024 389.478 135.024 390.542ZM133.246 392.432C133.61 391.956 133.792 391.326 133.792 390.542C133.792 389.758 133.61 389.133 133.246 388.666C132.891 388.19 132.41 387.952 131.804 387.952C131.16 387.952 130.642 388.185 130.25 388.652C129.858 389.119 129.662 389.749 129.662 390.542C129.662 391.345 129.858 391.979 130.25 392.446C130.642 392.913 131.16 393.146 131.804 393.146C132.401 393.146 132.882 392.908 133.246 392.432ZM141.957 387.938C142.592 388.61 142.909 389.483 142.909 390.556C142.909 391.629 142.592 392.507 141.957 393.188C141.323 393.86 140.506 394.196 139.507 394.196C138.509 394.196 137.687 393.86 137.043 393.188C136.409 392.507 136.091 391.629 136.091 390.556C136.091 389.483 136.409 388.61 137.043 387.938C137.687 387.257 138.509 386.916 139.507 386.916C140.506 386.916 141.323 387.257 141.957 387.938ZM137.911 388.652C137.519 389.137 137.323 389.772 137.323 390.556C137.323 391.34 137.519 391.975 137.911 392.46C138.313 392.945 138.845 393.188 139.507 393.188C140.17 393.188 140.697 392.95 141.089 392.474C141.481 391.989 141.677 391.349 141.677 390.556C141.677 389.763 141.481 389.128 141.089 388.652C140.697 388.167 140.17 387.924 139.507 387.924C138.845 387.924 138.313 388.167 137.911 388.652ZM150.351 392.068C150.351 392.656 150.146 393.127 149.735 393.482C149.324 393.827 148.76 394 148.041 394H144.387V387.112H147.873C148.564 387.112 149.119 387.275 149.539 387.602C149.959 387.919 150.169 388.358 150.169 388.918C150.169 389.282 150.062 389.599 149.847 389.87C149.642 390.141 149.357 390.332 148.993 390.444C149.413 390.547 149.744 390.743 149.987 391.032C150.23 391.312 150.351 391.657 150.351 392.068ZM145.577 388.064V390.052H147.705C148.125 390.052 148.442 389.963 148.657 389.786C148.872 389.599 148.979 389.343 148.979 389.016C148.979 388.381 148.554 388.064 147.705 388.064H145.577ZM149.147 391.998C149.147 391.662 149.021 391.401 148.769 391.214C148.526 391.018 148.167 390.92 147.691 390.92H145.577V393.034H147.719C148.671 393.034 149.147 392.689 149.147 391.998ZM95.1955 411V404.112H100.879V411H99.6755V405.092H96.3995V411H95.1955ZM109.32 407.542C109.32 408.625 109.036 409.502 108.466 410.174C107.897 410.846 107.169 411.182 106.282 411.182C105.246 411.182 104.486 410.813 104 410.076V413.52H102.796V404.112H103.93V405.176C104.444 404.345 105.228 403.93 106.282 403.93C107.169 403.93 107.897 404.266 108.466 404.938C109.036 405.61 109.32 406.478 109.32 407.542ZM107.542 409.432C107.906 408.956 108.088 408.326 108.088 407.542C108.088 406.758 107.906 406.133 107.542 405.666C107.188 405.19 106.707 404.952 106.1 404.952C105.456 404.952 104.938 405.185 104.546 405.652C104.154 406.119 103.958 406.749 103.958 407.542C103.958 408.345 104.154 408.979 104.546 409.446C104.938 409.913 105.456 410.146 106.1 410.146C106.698 410.146 107.178 409.908 107.542 409.432ZM116.254 404.938C116.889 405.61 117.206 406.483 117.206 407.556C117.206 408.629 116.889 409.507 116.254 410.188C115.619 410.86 114.803 411.196 113.804 411.196C112.805 411.196 111.984 410.86 111.34 410.188C110.705 409.507 110.388 408.629 110.388 407.556C110.388 406.483 110.705 405.61 111.34 404.938C111.984 404.257 112.805 403.916 113.804 403.916C114.803 403.916 115.619 404.257 116.254 404.938ZM112.208 405.652C111.816 406.137 111.62 406.772 111.62 407.556C111.62 408.34 111.816 408.975 112.208 409.46C112.609 409.945 113.141 410.188 113.804 410.188C114.467 410.188 114.994 409.95 115.386 409.474C115.778 408.989 115.974 408.349 115.974 407.556C115.974 406.763 115.778 406.128 115.386 405.652C114.994 405.167 114.467 404.924 113.804 404.924C113.141 404.924 112.609 405.167 112.208 405.652ZM123.934 409.04L124.648 409.768C124.153 410.291 123.677 410.659 123.22 410.874C122.762 411.089 122.24 411.196 121.652 411.196C120.616 411.196 119.785 410.869 119.16 410.216C118.544 409.553 118.236 408.681 118.236 407.598C118.236 406.515 118.534 405.633 119.132 404.952C119.738 404.261 120.536 403.916 121.526 403.916C122.506 403.916 123.266 404.21 123.808 404.798C124.358 405.386 124.634 406.198 124.634 407.234C124.634 407.365 124.624 407.542 124.606 407.766H119.44C119.477 408.494 119.687 409.082 120.07 409.53C120.452 409.969 120.984 410.188 121.666 410.188C122.095 410.188 122.464 410.104 122.772 409.936C123.08 409.777 123.467 409.479 123.934 409.04ZM119.468 406.87H123.444C123.416 406.254 123.229 405.769 122.884 405.414C122.548 405.059 122.09 404.882 121.512 404.882C120.952 404.882 120.494 405.055 120.14 405.4C119.785 405.745 119.561 406.235 119.468 406.87ZM130.866 411L128.64 407.934H127.366V411H126.162V404.112H127.366V406.94H128.64L130.712 404.112H132.014L129.592 407.388L132.224 411H130.866ZM138.396 405.092H136.1V411H134.896V405.092H132.586V404.112H138.396V405.092ZM144.76 404.938C145.395 405.61 145.712 406.483 145.712 407.556C145.712 408.629 145.395 409.507 144.76 410.188C144.125 410.86 143.309 411.196 142.31 411.196C141.311 411.196 140.49 410.86 139.846 410.188C139.211 409.507 138.894 408.629 138.894 407.556C138.894 406.483 139.211 405.61 139.846 404.938C140.49 404.257 141.311 403.916 142.31 403.916C143.309 403.916 144.125 404.257 144.76 404.938ZM140.714 405.652C140.322 406.137 140.126 406.772 140.126 407.556C140.126 408.34 140.322 408.975 140.714 409.46C141.115 409.945 141.647 410.188 142.31 410.188C142.973 410.188 143.5 409.95 143.892 409.474C144.284 408.989 144.48 408.349 144.48 407.556C144.48 406.763 144.284 406.128 143.892 405.652C143.5 405.167 142.973 404.924 142.31 404.924C141.647 404.924 141.115 405.167 140.714 405.652ZM153.154 409.068C153.154 409.656 152.948 410.127 152.538 410.482C152.127 410.827 151.562 411 150.844 411H147.19V404.112H150.676C151.366 404.112 151.922 404.275 152.342 404.602C152.762 404.919 152.972 405.358 152.972 405.918C152.972 406.282 152.864 406.599 152.65 406.87C152.444 407.141 152.16 407.332 151.796 407.444C152.216 407.547 152.547 407.743 152.79 408.032C153.032 408.312 153.154 408.657 153.154 409.068ZM148.38 405.064V407.052H150.508C150.928 407.052 151.245 406.963 151.46 406.786C151.674 406.599 151.782 406.343 151.782 406.016C151.782 405.381 151.357 405.064 150.508 405.064H148.38ZM151.95 408.998C151.95 408.662 151.824 408.401 151.572 408.214C151.329 408.018 150.97 407.92 150.494 407.92H148.38V410.034H150.522C151.474 410.034 151.95 409.689 151.95 408.998Z" fill="white"/>
<path d="M105.189 39.904H117.957V36.784H121.269V39.904H127.077V36.784H131.349V44.176H121.269V48.784H127.077L137.781 53.584V63.904H121.269V67.216H117.957V63.904H105.189V59.632H117.957V53.056H105.189V39.904ZM133.461 59.632V56.368L126.261 53.056H121.269V59.632H133.461ZM109.461 44.176V48.784H117.957V44.176H109.461ZM139.689 40.048H161.913L172.809 44.896V53.056H151.401L144.057 56.224V59.776H172.809V64.096H139.689V53.392L150.537 48.736H168.441V47.536L161.097 44.368H139.689V40.048ZM174.751 59.2V44.752L185.407 40H196.591L207.247 44.752V59.2L196.591 63.952H185.407L174.751 59.2ZM179.023 56.416L186.223 59.68H195.775L202.975 56.416V47.392L195.775 44.272H186.223L179.023 47.392V56.416ZM209.157 59.2V44.752L219.813 40H230.997L241.653 44.752V59.2L230.997 63.952H219.813L209.157 59.2ZM213.429 56.416L220.629 59.68H230.181L237.381 56.416V47.392L230.181 44.272H220.629L213.429 47.392V56.416ZM255.004 64V55.98L259.444 54H266.784L271.224 55.98V64H269.444V57.08L266.444 55.78H263.964V64H262.264V55.78H259.804L256.784 57.08V64H255.004ZM272.015 62.26H273.315V56.02L277.795 54.02H286.915V64.04H285.135V55.8H278.195L275.115 57.12V64.04H272.015V62.26ZM287.757 64V53.98H289.537V58.86L292.217 57.68H296.897L299.577 58.86V53.98H301.377V64H299.577V60.78L296.557 59.48H292.577L289.537 60.78V64H287.757Z" fill="white"/>
<path d="M131.676 83V76.112H137.36V83H136.156V77.092H132.88V83H131.676ZM145.801 79.542C145.801 80.6247 145.516 81.502 144.947 82.174C144.378 82.846 143.65 83.182 142.763 83.182C141.727 83.182 140.966 82.8133 140.481 82.076V85.52H139.277V76.112H140.411V77.176C140.924 76.3453 141.708 75.93 142.763 75.93C143.65 75.93 144.378 76.266 144.947 76.938C145.516 77.61 145.801 78.478 145.801 79.542ZM144.023 81.432C144.387 80.956 144.569 80.326 144.569 79.542C144.569 78.758 144.387 78.1327 144.023 77.666C143.668 77.19 143.188 76.952 142.581 76.952C141.937 76.952 141.419 77.1853 141.027 77.652C140.635 78.1187 140.439 78.7487 140.439 79.542C140.439 80.3447 140.635 80.9793 141.027 81.446C141.419 81.9127 141.937 82.146 142.581 82.146C143.178 82.146 143.659 81.908 144.023 81.432ZM152.035 76.112H153.337V83H152.203V80.172C152.203 79.0333 152.217 78.0813 152.245 77.316C151.666 78.2773 151.134 79.1267 150.649 79.864L148.605 83H147.317V76.112H148.451V79.164C148.451 80.0693 148.437 80.928 148.409 81.74C149.137 80.564 149.664 79.7333 149.991 79.248L152.035 76.112ZM161.238 81.068C161.238 81.656 161.032 82.1273 160.622 82.482C160.211 82.8273 159.646 83 158.928 83H155.274V76.112H158.76C159.45 76.112 160.006 76.2753 160.426 76.602C160.846 76.9193 161.056 77.358 161.056 77.918C161.056 78.282 160.948 78.5993 160.734 78.87C160.528 79.1407 160.244 79.332 159.88 79.444C160.3 79.5467 160.631 79.7427 160.874 80.032C161.116 80.312 161.238 80.6573 161.238 81.068ZM156.464 77.064V79.052H158.592C159.012 79.052 159.329 78.9633 159.544 78.786C159.758 78.5993 159.866 78.3427 159.866 78.016C159.866 77.3813 159.441 77.064 158.592 77.064H156.464ZM160.034 80.998C160.034 80.662 159.908 80.4007 159.656 80.214C159.413 80.018 159.054 79.92 158.578 79.92H156.464V82.034H158.606C159.558 82.034 160.034 81.6887 160.034 80.998ZM161.819 82.986L161.945 81.992C162.132 82.02 162.309 82.034 162.477 82.034C162.888 81.9967 163.14 81.8333 163.233 81.544C163.336 81.2453 163.401 80.508 163.429 79.332L163.457 76.112H168.553V83H167.349V77.092H164.549L164.521 79.374C164.493 80.8487 164.362 81.824 164.129 82.3C163.896 82.776 163.387 83.0327 162.603 83.07C162.304 83.07 162.043 83.042 161.819 82.986ZM175.74 81.04L176.454 81.768C175.96 82.2907 175.484 82.6593 175.026 82.874C174.569 83.0887 174.046 83.196 173.458 83.196C172.422 83.196 171.592 82.8693 170.966 82.216C170.35 81.5533 170.042 80.6807 170.042 79.598C170.042 78.5153 170.341 77.6333 170.938 76.952C171.545 76.2613 172.343 75.916 173.332 75.916C174.312 75.916 175.073 76.21 175.614 76.798C176.165 77.386 176.44 78.198 176.44 79.234C176.44 79.3647 176.431 79.542 176.412 79.766H171.246C171.284 80.494 171.494 81.082 171.876 81.53C172.259 81.9687 172.791 82.188 173.472 82.188C173.902 82.188 174.27 82.104 174.578 81.936C174.886 81.7773 175.274 81.4787 175.74 81.04ZM171.274 78.87H175.25C175.222 78.254 175.036 77.7687 174.69 77.414C174.354 77.0593 173.897 76.882 173.318 76.882C172.758 76.882 172.301 77.0547 171.946 77.4C171.592 77.7453 171.368 78.2353 171.274 78.87ZM181.987 76.112H183.191V83H181.987V80.214C181.483 80.4473 180.862 80.564 180.125 80.564C179.248 80.564 178.608 80.3913 178.207 80.046C177.806 79.6913 177.605 79.15 177.605 78.422V76.112H178.809V78.366C178.809 78.7767 178.921 79.08 179.145 79.276C179.378 79.472 179.756 79.57 180.279 79.57C180.951 79.57 181.52 79.458 181.987 79.234V76.112ZM190.369 81.04L191.083 81.768C190.589 82.2907 190.113 82.6593 189.655 82.874C189.198 83.0887 188.675 83.196 188.087 83.196C187.051 83.196 186.221 82.8693 185.595 82.216C184.979 81.5533 184.671 80.6807 184.671 79.598C184.671 78.5153 184.97 77.6333 185.567 76.952C186.174 76.2613 186.972 75.916 187.961 75.916C188.941 75.916 189.702 76.21 190.243 76.798C190.794 77.386 191.069 78.198 191.069 79.234C191.069 79.3647 191.06 79.542 191.041 79.766H185.875C185.913 80.494 186.123 81.082 186.505 81.53C186.888 81.9687 187.42 82.188 188.101 82.188C188.531 82.188 188.899 82.104 189.207 81.936C189.515 81.7773 189.903 81.4787 190.369 81.04ZM185.903 78.87H189.879C189.851 78.254 189.665 77.7687 189.319 77.414C188.983 77.0593 188.526 76.882 187.947 76.882C187.387 76.882 186.93 77.0547 186.575 77.4C186.221 77.7453 185.997 78.2353 185.903 78.87ZM198.352 83H197.148V79.934H193.802V83H192.598V76.112H193.802V78.94H197.148V76.112H198.352V83ZM205.713 76.938C206.348 77.61 206.665 78.4827 206.665 79.556C206.665 80.6293 206.348 81.5067 205.713 82.188C205.078 82.86 204.262 83.196 203.263 83.196C202.264 83.196 201.443 82.86 200.799 82.188C200.164 81.5067 199.847 80.6293 199.847 79.556C199.847 78.4827 200.164 77.61 200.799 76.938C201.443 76.2567 202.264 75.916 203.263 75.916C204.262 75.916 205.078 76.2567 205.713 76.938ZM201.667 77.652C201.275 78.1373 201.079 78.772 201.079 79.556C201.079 80.34 201.275 80.9747 201.667 81.46C202.068 81.9453 202.6 82.188 203.263 82.188C203.926 82.188 204.453 81.95 204.845 81.474C205.237 80.9887 205.433 80.3493 205.433 79.556C205.433 78.7627 205.237 78.128 204.845 77.652C204.453 77.1667 203.926 76.924 203.263 76.924C202.6 76.924 202.068 77.1667 201.667 77.652ZM217.279 81.068C217.279 81.656 217.073 82.1273 216.663 82.482C216.252 82.8273 215.687 83 214.969 83H211.315V76.112H214.801C215.491 76.112 216.047 76.2753 216.467 76.602C216.887 76.9193 217.097 77.358 217.097 77.918C217.097 78.282 216.989 78.5993 216.775 78.87C216.569 79.1407 216.285 79.332 215.921 79.444C216.341 79.5467 216.672 79.7427 216.915 80.032C217.157 80.312 217.279 80.6573 217.279 81.068ZM212.505 77.064V79.052H214.633C215.053 79.052 215.37 78.9633 215.585 78.786C215.799 78.5993 215.907 78.3427 215.907 78.016C215.907 77.3813 215.482 77.064 214.633 77.064H212.505ZM216.075 80.998C216.075 80.662 215.949 80.4007 215.697 80.214C215.454 80.018 215.095 79.92 214.619 79.92H212.505V82.034H214.647C215.599 82.034 216.075 81.6887 216.075 80.998ZM222.033 83V76.112H227.717V83H226.513V77.092H223.237V83H222.033ZM236.158 79.542C236.158 80.6247 235.874 81.502 235.304 82.174C234.735 82.846 234.007 83.182 233.12 83.182C232.084 83.182 231.324 82.8133 230.838 82.076V85.52H229.634V76.112H230.768V77.176C231.282 76.3453 232.066 75.93 233.12 75.93C234.007 75.93 234.735 76.266 235.304 76.938C235.874 77.61 236.158 78.478 236.158 79.542ZM234.38 81.432C234.744 80.956 234.926 80.326 234.926 79.542C234.926 78.758 234.744 78.1327 234.38 77.666C234.026 77.19 233.545 76.952 232.938 76.952C232.294 76.952 231.776 77.1853 231.384 77.652C230.992 78.1187 230.796 78.7487 230.796 79.542C230.796 80.3447 230.992 80.9793 231.384 81.446C231.776 81.9127 232.294 82.146 232.938 82.146C233.536 82.146 234.016 81.908 234.38 81.432ZM243.092 76.938C243.727 77.61 244.044 78.4827 244.044 79.556C244.044 80.6293 243.727 81.5067 243.092 82.188C242.457 82.86 241.641 83.196 240.642 83.196C239.643 83.196 238.822 82.86 238.178 82.188C237.543 81.5067 237.226 80.6293 237.226 79.556C237.226 78.4827 237.543 77.61 238.178 76.938C238.822 76.2567 239.643 75.916 240.642 75.916C241.641 75.916 242.457 76.2567 243.092 76.938ZM239.046 77.652C238.654 78.1373 238.458 78.772 238.458 79.556C238.458 80.34 238.654 80.9747 239.046 81.46C239.447 81.9453 239.979 82.188 240.642 82.188C241.305 82.188 241.832 81.95 242.224 81.474C242.616 80.9887 242.812 80.3493 242.812 79.556C242.812 78.7627 242.616 78.128 242.224 77.652C241.832 77.1667 241.305 76.924 240.642 76.924C239.979 76.924 239.447 77.1667 239.046 77.652ZM250.772 81.04L251.486 81.768C250.991 82.2907 250.515 82.6593 250.058 82.874C249.6 83.0887 249.078 83.196 248.49 83.196C247.454 83.196 246.623 82.8693 245.998 82.216C245.382 81.5533 245.074 80.6807 245.074 79.598C245.074 78.5153 245.372 77.6333 245.97 76.952C246.576 76.2613 247.374 75.916 248.364 75.916C249.344 75.916 250.104 76.21 250.646 76.798C251.196 77.386 251.472 78.198 251.472 79.234C251.472 79.3647 251.462 79.542 251.444 79.766H246.278C246.315 80.494 246.525 81.082 246.908 81.53C247.29 81.9687 247.822 82.188 248.504 82.188C248.933 82.188 249.302 82.104 249.61 81.936C249.918 81.7773 250.305 81.4787 250.772 81.04ZM246.306 78.87H250.282C250.254 78.254 250.067 77.7687 249.722 77.414C249.386 77.0593 248.928 76.882 248.35 76.882C247.79 76.882 247.332 77.0547 246.978 77.4C246.623 77.7453 246.399 78.2353 246.306 78.87ZM257.704 83L255.478 79.934H254.204V83H253V76.112H254.204V78.94H255.478L257.55 76.112H258.852L256.43 79.388L259.062 83H257.704ZM265.234 77.092H262.938V83H261.734V77.092H259.424V76.112H265.234V77.092ZM266.481 83V76.112H267.685V78.422H269.645C270.419 78.422 271.04 78.632 271.507 79.052C271.983 79.4627 272.221 80.018 272.221 80.718C272.221 81.418 271.983 81.9733 271.507 82.384C271.04 82.7947 270.419 83 269.645 83H266.481ZM267.685 82.006H269.449C270.475 82.006 270.989 81.5767 270.989 80.718C270.989 79.85 270.475 79.416 269.449 79.416H267.685V82.006ZM274.321 76.112V83H273.117V76.112H274.321Z" fill="white"/>
<path d="M260.312 133.864V129.496H289.112V128.488L281.72 125.32H260.312V120.952H282.584L293.432 125.8V145.048H260.312V140.728H289.112V133.864H260.312ZM328.494 121.048V125.368H299.742V128.872L307.086 132.04H328.494V140.248L317.598 145.096H295.374V140.776H316.782L324.126 137.416V136.408H306.222L295.374 131.56V121.048H328.494ZM330.437 140.2V125.752L341.093 121H352.277L362.933 125.752V140.2L352.277 144.952H341.093L330.437 140.2ZM334.709 137.416L341.909 140.68H351.461L358.661 137.416V128.392L351.461 125.272H341.909L334.709 128.392V137.416ZM364.843 136.456V130.504H369.883V125.416H375.835V130.504H380.683V136.456H375.835V141.256H369.883V136.456H364.843Z" fill="white"/>
<path d="M270.763 157.924C270.11 157.924 269.596 158.181 269.223 158.694C268.85 159.198 268.663 159.819 268.663 160.556C268.663 161.284 268.845 161.905 269.209 162.418C269.582 162.922 270.105 163.174 270.777 163.174C271.15 163.174 271.486 163.095 271.785 162.936C272.093 162.768 272.443 162.465 272.835 162.026L273.633 162.698C273.194 163.249 272.756 163.636 272.317 163.86C271.878 164.084 271.365 164.196 270.777 164.196C269.769 164.196 268.957 163.865 268.341 163.202C267.734 162.539 267.431 161.657 267.431 160.556C267.431 159.464 267.739 158.587 268.355 157.924C268.98 157.252 269.788 156.916 270.777 156.916C271.346 156.916 271.841 157.014 272.261 157.21C272.69 157.406 273.115 157.742 273.535 158.218L272.751 158.96C272.396 158.577 272.065 158.311 271.757 158.162C271.458 158.003 271.127 157.924 270.763 157.924ZM274.249 165.75V163.02H274.921C275.5 162.441 275.794 161.345 275.803 159.73L275.831 157.112H280.857V163.02H281.879V165.75H280.717V164H275.411V165.75H274.249ZM276.167 163.02H279.653V158.092H276.923L276.895 159.758C276.867 161.447 276.624 162.535 276.167 163.02ZM288.237 162.04L288.951 162.768C288.456 163.291 287.98 163.659 287.523 163.874C287.065 164.089 286.543 164.196 285.955 164.196C284.919 164.196 284.088 163.869 283.463 163.216C282.847 162.553 282.539 161.681 282.539 160.598C282.539 159.515 282.837 158.633 283.435 157.952C284.041 157.261 284.839 156.916 285.829 156.916C286.809 156.916 287.569 157.21 288.111 157.798C288.661 158.386 288.937 159.198 288.937 160.234C288.937 160.365 288.927 160.542 288.909 160.766H283.743C283.78 161.494 283.99 162.082 284.373 162.53C284.755 162.969 285.287 163.188 285.969 163.188C286.398 163.188 286.767 163.104 287.075 162.936C287.383 162.777 287.77 162.479 288.237 162.04ZM283.771 159.87H287.747C287.719 159.254 287.532 158.769 287.187 158.414C286.851 158.059 286.393 157.882 285.815 157.882C285.255 157.882 284.797 158.055 284.443 158.4C284.088 158.745 283.864 159.235 283.771 159.87ZM289.6 163.986L289.726 162.992C289.913 163.02 290.09 163.034 290.258 163.034C290.669 162.997 290.921 162.833 291.014 162.544C291.117 162.245 291.182 161.508 291.21 160.332L291.238 157.112H296.334V164H295.13V158.092H292.33L292.302 160.374C292.274 161.849 292.144 162.824 291.91 163.3C291.677 163.776 291.168 164.033 290.384 164.07C290.086 164.07 289.824 164.042 289.6 163.986ZM303.83 159.212V164H302.738V163.146C302.252 163.865 301.473 164.224 300.4 164.224C299.644 164.224 299.042 164.061 298.594 163.734C298.155 163.407 297.936 162.927 297.936 162.292C297.936 161.555 298.211 161.018 298.762 160.682C299.331 160.337 300.124 160.075 301.142 159.898L302.682 159.618V159.268C302.682 158.848 302.532 158.517 302.234 158.274C301.944 158.031 301.557 157.91 301.072 157.91C300.652 157.91 300.274 157.999 299.938 158.176C299.611 158.344 299.233 158.643 298.804 159.072L298.034 158.386C298.864 157.406 299.863 156.916 301.03 156.916C301.907 156.916 302.593 157.126 303.088 157.546C303.582 157.957 303.83 158.512 303.83 159.212ZM302.682 161.424V160.514L301.422 160.766C300.563 160.943 299.97 161.125 299.644 161.312C299.326 161.499 299.149 161.811 299.112 162.25C299.112 162.567 299.233 162.81 299.476 162.978C299.728 163.146 300.078 163.23 300.526 163.23C301.151 163.23 301.664 163.067 302.066 162.74C302.476 162.404 302.682 161.965 302.682 161.424ZM311.477 164H310.273V160.934H306.927V164H305.723V157.112H306.927V159.94H310.273V157.112H311.477V164ZM318.838 157.938C319.473 158.61 319.79 159.483 319.79 160.556C319.79 161.629 319.473 162.507 318.838 163.188C318.203 163.86 317.387 164.196 316.388 164.196C315.389 164.196 314.568 163.86 313.924 163.188C313.289 162.507 312.972 161.629 312.972 160.556C312.972 159.483 313.289 158.61 313.924 157.938C314.568 157.257 315.389 156.916 316.388 156.916C317.387 156.916 318.203 157.257 318.838 157.938ZM314.792 158.652C314.4 159.137 314.204 159.772 314.204 160.556C314.204 161.34 314.4 161.975 314.792 162.46C315.193 162.945 315.725 163.188 316.388 163.188C317.051 163.188 317.578 162.95 317.97 162.474C318.362 161.989 318.558 161.349 318.558 160.556C318.558 159.763 318.362 159.128 317.97 158.652C317.578 158.167 317.051 157.924 316.388 157.924C315.725 157.924 315.193 158.167 314.792 158.652ZM329.984 158.092C330.534 158.699 330.81 159.534 330.81 160.598C330.81 161.662 330.497 162.525 329.872 163.188C329.246 163.851 328.439 164.182 327.45 164.182C326.367 164.182 325.527 163.804 324.93 163.048C324.332 162.283 324.034 161.191 324.034 159.772C324.034 157.887 324.323 156.515 324.902 155.656C325.49 154.788 326.53 154.284 328.024 154.144L330.306 153.948L330.39 155.082L328.136 155.278C327.044 155.362 326.278 155.656 325.84 156.16C325.41 156.655 325.154 157.527 325.07 158.778C325.294 158.283 325.639 157.891 326.106 157.602C326.572 157.313 327.114 157.168 327.73 157.168C328.682 157.168 329.433 157.476 329.984 158.092ZM329.578 160.626C329.578 159.87 329.391 159.273 329.018 158.834C328.654 158.395 328.15 158.176 327.506 158.176C326.862 158.176 326.325 158.405 325.896 158.862C325.476 159.31 325.266 159.898 325.266 160.626C325.266 161.401 325.462 162.021 325.854 162.488C326.246 162.945 326.773 163.174 327.436 163.174C328.089 163.174 328.607 162.945 328.99 162.488C329.382 162.021 329.578 161.401 329.578 160.626ZM337.005 157.112H338.307V164H337.173V161.172C337.173 160.033 337.187 159.081 337.215 158.316C336.637 159.277 336.105 160.127 335.619 160.864L333.575 164H332.287V157.112H333.421V160.164C333.421 161.069 333.407 161.928 333.379 162.74C334.107 161.564 334.635 160.733 334.961 160.248L337.005 157.112ZM345.634 162.026C345.634 162.67 345.368 163.197 344.836 163.608C344.304 164.009 343.6 164.21 342.722 164.21C341.537 164.21 340.492 163.813 339.586 163.02L340.244 162.208C341.038 162.871 341.864 163.202 342.722 163.202C343.273 163.202 343.698 163.095 343.996 162.88C344.304 162.656 344.458 162.357 344.458 161.984C344.458 161.293 343.926 160.948 342.862 160.948H341.574V160.01H342.89C343.338 160.01 343.679 159.921 343.912 159.744C344.146 159.557 344.262 159.296 344.262 158.96C344.262 158.624 344.122 158.363 343.842 158.176C343.572 157.98 343.189 157.882 342.694 157.882C342.004 157.882 341.248 158.167 340.426 158.736L339.852 157.924C340.842 157.243 341.803 156.902 342.736 156.902C343.492 156.902 344.132 157.075 344.654 157.42C345.186 157.756 345.452 158.237 345.452 158.862C345.452 159.599 345.06 160.117 344.276 160.416C345.182 160.705 345.634 161.242 345.634 162.026ZM352.957 164H351.753V160.934H348.407V164H347.203V157.112H348.407V159.94H351.753V157.112H352.957V164ZM360.151 162.04L360.865 162.768C360.37 163.291 359.894 163.659 359.437 163.874C358.979 164.089 358.457 164.196 357.869 164.196C356.833 164.196 356.002 163.869 355.377 163.216C354.761 162.553 354.453 161.681 354.453 160.598C354.453 159.515 354.751 158.633 355.349 157.952C355.955 157.261 356.753 156.916 357.743 156.916C358.723 156.916 359.483 157.21 360.025 157.798C360.575 158.386 360.851 159.198 360.851 160.234C360.851 160.365 360.841 160.542 360.823 160.766H355.657C355.694 161.494 355.904 162.082 356.287 162.53C356.669 162.969 357.201 163.188 357.883 163.188C358.312 163.188 358.681 163.104 358.989 162.936C359.297 162.777 359.684 162.479 360.151 162.04ZM355.685 159.87H359.661C359.633 159.254 359.446 158.769 359.101 158.414C358.765 158.059 358.307 157.882 357.729 157.882C357.169 157.882 356.711 158.055 356.357 158.4C356.002 158.745 355.778 159.235 355.685 159.87ZM365.263 157.924C364.61 157.924 364.096 158.181 363.723 158.694C363.35 159.198 363.163 159.819 363.163 160.556C363.163 161.284 363.345 161.905 363.709 162.418C364.082 162.922 364.605 163.174 365.277 163.174C365.65 163.174 365.986 163.095 366.285 162.936C366.593 162.768 366.943 162.465 367.335 162.026L368.133 162.698C367.694 163.249 367.256 163.636 366.817 163.86C366.378 164.084 365.865 164.196 365.277 164.196C364.269 164.196 363.457 163.865 362.841 163.202C362.234 162.539 361.931 161.657 361.931 160.556C361.931 159.464 362.239 158.587 362.855 157.924C363.48 157.252 364.288 156.916 365.277 156.916C365.846 156.916 366.341 157.014 366.761 157.21C367.19 157.406 367.615 157.742 368.035 158.218L367.251 158.96C366.896 158.577 366.565 158.311 366.257 158.162C365.958 158.003 365.627 157.924 365.263 157.924ZM373.285 159.436V160.514H369.211V159.436H373.285ZM298.408 181V174.112H304.092V181H302.888V175.092H299.612V181H298.408ZM305.309 180.986L305.435 179.992C305.622 180.02 305.799 180.034 305.967 180.034C306.378 179.997 306.63 179.833 306.723 179.544C306.826 179.245 306.891 178.508 306.919 177.332L306.947 174.112H312.043V181H310.839V175.092H308.039L308.011 177.374C307.983 178.849 307.853 179.824 307.619 180.3C307.386 180.776 306.877 181.033 306.093 181.07C305.795 181.07 305.533 181.042 305.309 180.986ZM319.539 176.212V181H318.447V180.146C317.961 180.865 317.182 181.224 316.109 181.224C315.353 181.224 314.751 181.061 314.303 180.734C313.864 180.407 313.645 179.927 313.645 179.292C313.645 178.555 313.92 178.018 314.471 177.682C315.04 177.337 315.833 177.075 316.851 176.898L318.391 176.618V176.268C318.391 175.848 318.241 175.517 317.943 175.274C317.653 175.031 317.266 174.91 316.781 174.91C316.361 174.91 315.983 174.999 315.647 175.176C315.32 175.344 314.942 175.643 314.513 176.072L313.743 175.386C314.573 174.406 315.572 173.916 316.739 173.916C317.616 173.916 318.302 174.126 318.797 174.546C319.291 174.957 319.539 175.512 319.539 176.212ZM318.391 178.424V177.514L317.131 177.766C316.272 177.943 315.679 178.125 315.353 178.312C315.035 178.499 314.858 178.811 314.821 179.25C314.821 179.567 314.942 179.81 315.185 179.978C315.437 180.146 315.787 180.23 316.235 180.23C316.86 180.23 317.373 180.067 317.775 179.74C318.185 179.404 318.391 178.965 318.391 178.424ZM327.186 181H325.982V177.934H322.636V181H321.432V174.112H322.636V176.94H325.982V174.112H327.186V181ZM334.547 174.938C335.182 175.61 335.499 176.483 335.499 177.556C335.499 178.629 335.182 179.507 334.547 180.188C333.912 180.86 333.096 181.196 332.097 181.196C331.098 181.196 330.277 180.86 329.633 180.188C328.998 179.507 328.681 178.629 328.681 177.556C328.681 176.483 328.998 175.61 329.633 174.938C330.277 174.257 331.098 173.916 332.097 173.916C333.096 173.916 333.912 174.257 334.547 174.938ZM330.501 175.652C330.109 176.137 329.913 176.772 329.913 177.556C329.913 178.34 330.109 178.975 330.501 179.46C330.902 179.945 331.434 180.188 332.097 180.188C332.76 180.188 333.287 179.95 333.679 179.474C334.071 178.989 334.267 178.349 334.267 177.556C334.267 176.763 334.071 176.128 333.679 175.652C333.287 175.167 332.76 174.924 332.097 174.924C331.434 174.924 330.902 175.167 330.501 175.652ZM342.941 179.068C342.941 179.656 342.735 180.127 342.325 180.482C341.914 180.827 341.349 181 340.631 181H336.977V174.112H340.463C341.153 174.112 341.709 174.275 342.129 174.602C342.549 174.919 342.759 175.358 342.759 175.918C342.759 176.282 342.651 176.599 342.437 176.87C342.231 177.141 341.947 177.332 341.583 177.444C342.003 177.547 342.334 177.743 342.577 178.032C342.819 178.312 342.941 178.657 342.941 179.068ZM338.167 175.064V177.052H340.295C340.715 177.052 341.032 176.963 341.247 176.786C341.461 176.599 341.569 176.343 341.569 176.016C341.569 175.381 341.144 175.064 340.295 175.064H338.167ZM341.737 178.998C341.737 178.662 341.611 178.401 341.359 178.214C341.116 178.018 340.757 177.92 340.281 177.92H338.167V180.034H340.309C341.261 180.034 341.737 179.689 341.737 178.998Z" fill="white"/>
<path d="M272.463 351.048V355.368H243.711V358.872L251.055 362.04H272.463V370.248L261.567 375.096H239.343V370.776H260.751L268.095 367.416V366.408H250.191L239.343 361.56V351.048H272.463ZM274.405 370.2V355.752L285.061 351H296.245L306.901 355.752V370.2L296.245 374.952H285.061L274.405 370.2ZM278.677 367.416L285.877 370.68H295.429L302.629 367.416V358.392L295.429 355.272H285.877L278.677 358.392V367.416ZM308.812 366.456V360.504H313.852V355.416H319.804V360.504H324.652V366.456H319.804V371.256H313.852V366.456H308.812Z" fill="white"/>
<path d="M248.458 394V387.112H254.142V394H252.938V388.092H249.662V394H248.458ZM262.583 390.542C262.583 391.625 262.298 392.502 261.729 393.174C261.16 393.846 260.432 394.182 259.545 394.182C258.509 394.182 257.748 393.813 257.263 393.076V396.52H256.059V387.112H257.193V388.176C257.706 387.345 258.49 386.93 259.545 386.93C260.432 386.93 261.16 387.266 261.729 387.938C262.298 388.61 262.583 389.478 262.583 390.542ZM260.805 392.432C261.169 391.956 261.351 391.326 261.351 390.542C261.351 389.758 261.169 389.133 260.805 388.666C260.45 388.19 259.97 387.952 259.363 387.952C258.719 387.952 258.201 388.185 257.809 388.652C257.417 389.119 257.221 389.749 257.221 390.542C257.221 391.345 257.417 391.979 257.809 392.446C258.201 392.913 258.719 393.146 259.363 393.146C259.96 393.146 260.441 392.908 260.805 392.432ZM268.817 387.112H270.119V394H268.985V391.172C268.985 390.033 268.999 389.081 269.027 388.316C268.448 389.277 267.916 390.127 267.431 390.864L265.387 394H264.099V387.112H265.233V390.164C265.233 391.069 265.219 391.928 265.191 392.74C265.919 391.564 266.446 390.733 266.773 390.248L268.817 387.112ZM274.94 387.924C274.287 387.924 273.773 388.181 273.4 388.694C273.027 389.198 272.84 389.819 272.84 390.556C272.84 391.284 273.022 391.905 273.386 392.418C273.759 392.922 274.282 393.174 274.954 393.174C275.327 393.174 275.663 393.095 275.962 392.936C276.27 392.768 276.62 392.465 277.012 392.026L277.81 392.698C277.371 393.249 276.933 393.636 276.494 393.86C276.055 394.084 275.542 394.196 274.954 394.196C273.946 394.196 273.134 393.865 272.518 393.202C271.911 392.539 271.608 391.657 271.608 390.556C271.608 389.464 271.916 388.587 272.532 387.924C273.157 387.252 273.965 386.916 274.954 386.916C275.523 386.916 276.018 387.014 276.438 387.21C276.867 387.406 277.292 387.742 277.712 388.218L276.928 388.96C276.573 388.577 276.242 388.311 275.934 388.162C275.635 388.003 275.304 387.924 274.94 387.924ZM285.02 392.068C285.02 392.656 284.815 393.127 284.404 393.482C283.993 393.827 283.429 394 282.71 394H279.056V387.112H282.542C283.233 387.112 283.788 387.275 284.208 387.602C284.628 387.919 284.838 388.358 284.838 388.918C284.838 389.282 284.731 389.599 284.516 389.87C284.311 390.141 284.026 390.332 283.662 390.444C284.082 390.547 284.413 390.743 284.656 391.032C284.899 391.312 285.02 391.657 285.02 392.068ZM280.246 388.064V390.052H282.374C282.794 390.052 283.111 389.963 283.326 389.786C283.541 389.599 283.648 389.343 283.648 389.016C283.648 388.381 283.223 388.064 282.374 388.064H280.246ZM283.816 391.998C283.816 391.662 283.69 391.401 283.438 391.214C283.195 391.018 282.836 390.92 282.36 390.92H280.246V393.034H282.388C283.34 393.034 283.816 392.689 283.816 391.998ZM292.021 387.938C292.655 388.61 292.973 389.483 292.973 390.556C292.973 391.629 292.655 392.507 292.021 393.188C291.386 393.86 290.569 394.196 289.571 394.196C288.572 394.196 287.751 393.86 287.107 393.188C286.472 392.507 286.155 391.629 286.155 390.556C286.155 389.483 286.472 388.61 287.107 387.938C287.751 387.257 288.572 386.916 289.571 386.916C290.569 386.916 291.386 387.257 292.021 387.938ZM287.975 388.652C287.583 389.137 287.387 389.772 287.387 390.556C287.387 391.34 287.583 391.975 287.975 392.46C288.376 392.945 288.908 393.188 289.571 393.188C290.233 393.188 290.761 392.95 291.153 392.474C291.545 391.989 291.741 391.349 291.741 390.556C291.741 389.763 291.545 389.128 291.153 388.652C290.761 388.167 290.233 387.924 289.571 387.924C288.908 387.924 288.376 388.167 287.975 388.652ZM299.7 392.04L300.414 392.768C299.92 393.291 299.444 393.659 298.986 393.874C298.529 394.089 298.006 394.196 297.418 394.196C296.382 394.196 295.552 393.869 294.926 393.216C294.31 392.553 294.002 391.681 294.002 390.598C294.002 389.515 294.301 388.633 294.898 387.952C295.505 387.261 296.303 386.916 297.292 386.916C298.272 386.916 299.033 387.21 299.574 387.798C300.125 388.386 300.4 389.198 300.4 390.234C300.4 390.365 300.391 390.542 300.372 390.766H295.206C295.244 391.494 295.454 392.082 295.836 392.53C296.219 392.969 296.751 393.188 297.432 393.188C297.862 393.188 298.23 393.104 298.538 392.936C298.846 392.777 299.234 392.479 299.7 392.04ZM295.234 389.87H299.21C299.182 389.254 298.996 388.769 298.65 388.414C298.314 388.059 297.857 387.882 297.278 387.882C296.718 387.882 296.261 388.055 295.906 388.4C295.552 388.745 295.328 389.235 295.234 389.87ZM307.683 394H306.479V390.934H303.133V394H301.929V387.112H303.133V389.94H306.479V387.112H307.683V394ZM315.044 387.938C315.679 388.61 315.996 389.483 315.996 390.556C315.996 391.629 315.679 392.507 315.044 393.188C314.409 393.86 313.593 394.196 312.594 394.196C311.595 394.196 310.774 393.86 310.13 393.188C309.495 392.507 309.178 391.629 309.178 390.556C309.178 389.483 309.495 388.61 310.13 387.938C310.774 387.257 311.595 386.916 312.594 386.916C313.593 386.916 314.409 387.257 315.044 387.938ZM310.998 388.652C310.606 389.137 310.41 389.772 310.41 390.556C310.41 391.34 310.606 391.975 310.998 392.46C311.399 392.945 311.931 393.188 312.594 393.188C313.257 393.188 313.784 392.95 314.176 392.474C314.568 391.989 314.764 391.349 314.764 390.556C314.764 389.763 314.568 389.128 314.176 388.652C313.784 388.167 313.257 387.924 312.594 387.924C311.931 387.924 311.399 388.167 310.998 388.652ZM256.205 407.542C256.205 408.625 255.92 409.502 255.351 410.174C254.782 410.846 254.054 411.182 253.167 411.182C252.131 411.182 251.37 410.813 250.885 410.076V413.52H249.681V404.112H250.815V405.176C251.328 404.345 252.112 403.93 253.167 403.93C254.054 403.93 254.782 404.266 255.351 404.938C255.92 405.61 256.205 406.478 256.205 407.542ZM254.427 409.432C254.791 408.956 254.973 408.326 254.973 407.542C254.973 406.758 254.791 406.133 254.427 405.666C254.072 405.19 253.592 404.952 252.985 404.952C252.341 404.952 251.823 405.185 251.431 405.652C251.039 406.119 250.843 406.749 250.843 407.542C250.843 408.345 251.039 408.979 251.431 409.446C251.823 409.913 252.341 410.146 252.985 410.146C253.582 410.146 254.063 409.908 254.427 409.432ZM262.971 409.04L263.685 409.768C263.19 410.291 262.714 410.659 262.257 410.874C261.8 411.089 261.277 411.196 260.689 411.196C259.653 411.196 258.822 410.869 258.197 410.216C257.581 409.553 257.273 408.681 257.273 407.598C257.273 406.515 257.572 405.633 258.169 404.952C258.776 404.261 259.574 403.916 260.563 403.916C261.543 403.916 262.304 404.21 262.845 404.798C263.396 405.386 263.671 406.198 263.671 407.234C263.671 407.365 263.662 407.542 263.643 407.766H258.477C258.514 408.494 258.724 409.082 259.107 409.53C259.49 409.969 260.022 410.188 260.703 410.188C261.132 410.188 261.501 410.104 261.809 409.936C262.117 409.777 262.504 409.479 262.971 409.04ZM258.505 406.87H262.481C262.453 406.254 262.266 405.769 261.921 405.414C261.585 405.059 261.128 404.882 260.549 404.882C259.989 404.882 259.532 405.055 259.177 405.4C258.822 405.745 258.598 406.235 258.505 406.87ZM271.219 404.112V411H270.085V408.172C270.085 407.033 270.099 406.081 270.127 405.316C269.549 406.277 269.017 407.127 268.531 407.864L266.487 411H265.199V404.112H266.333V407.164C266.333 408.069 266.319 408.928 266.291 409.74C267.019 408.564 267.547 407.733 267.873 407.248L269.917 404.112H271.219ZM270.407 401.354H269.399C269.399 401.681 269.297 401.937 269.091 402.124C268.886 402.301 268.592 402.39 268.209 402.39C267.827 402.39 267.533 402.301 267.327 402.124C267.122 401.937 267.019 401.681 267.019 401.354H265.997C265.997 401.933 266.189 402.381 266.571 402.698C266.963 403.006 267.509 403.16 268.209 403.16C268.9 403.16 269.437 403.006 269.819 402.698C270.211 402.381 270.407 401.933 270.407 401.354ZM278.28 405.092H275.984V411H274.78V405.092H272.47V404.112H278.28V405.092ZM284.246 404.112H285.548V411H284.414V408.172C284.414 407.033 284.428 406.081 284.456 405.316C283.877 406.277 283.345 407.127 282.86 407.864L280.816 411H279.528V404.112H280.662V407.164C280.662 408.069 280.648 408.928 280.62 409.74C281.348 408.564 281.875 407.733 282.202 407.248L284.246 404.112ZM293.239 411H292.035V407.934H288.689V411H287.485V404.112H288.689V406.94H292.035V404.112H293.239V411ZM299.886 405.092H296.386V411H295.182V404.112H299.886V405.092ZM306.246 404.938C306.881 405.61 307.198 406.483 307.198 407.556C307.198 408.629 306.881 409.507 306.246 410.188C305.612 410.86 304.795 411.196 303.796 411.196C302.798 411.196 301.976 410.86 301.332 410.188C300.698 409.507 300.38 408.629 300.38 407.556C300.38 406.483 300.698 405.61 301.332 404.938C301.976 404.257 302.798 403.916 303.796 403.916C304.795 403.916 305.612 404.257 306.246 404.938ZM302.2 405.652C301.808 406.137 301.612 406.772 301.612 407.556C301.612 408.34 301.808 408.975 302.2 409.46C302.602 409.945 303.134 410.188 303.796 410.188C304.459 410.188 304.986 409.95 305.378 409.474C305.77 408.989 305.966 408.349 305.966 407.556C305.966 406.763 305.77 406.128 305.378 405.652C304.986 405.167 304.459 404.924 303.796 404.924C303.134 404.924 302.602 405.167 302.2 405.652ZM314.64 409.068C314.64 409.656 314.435 410.127 314.024 410.482C313.613 410.827 313.049 411 312.33 411H308.676V404.112H312.162C312.853 404.112 313.408 404.275 313.828 404.602C314.248 404.919 314.458 405.358 314.458 405.918C314.458 406.282 314.351 406.599 314.136 406.87C313.931 407.141 313.646 407.332 313.282 407.444C313.702 407.547 314.033 407.743 314.276 408.032C314.519 408.312 314.64 408.657 314.64 409.068ZM309.866 405.064V407.052H311.994C312.414 407.052 312.731 406.963 312.946 406.786C313.161 406.599 313.268 406.343 313.268 406.016C313.268 405.381 312.843 405.064 311.994 405.064H309.866ZM313.436 408.998C313.436 408.662 313.31 408.401 313.058 408.214C312.815 408.018 312.456 407.92 311.98 407.92H309.866V410.034H312.008C312.96 410.034 313.436 409.689 313.436 408.998Z" fill="white"/>
</g>
<defs>
<filter id="filter0_dd_480_587" x="16.5278" y="32.784" width="372.155" height="392.736" filterUnits="userSpaceOnUse" color-interpolation-filters="sRGB">
<feFlood flood-opacity="0" result="BackgroundImageFix"/>
<feColorMatrix in="SourceAlpha" type="matrix" values="0 0 0 0 0 0 0 0 0 0 0 0 0 0 0 0 0 0 127 0" result="hardAlpha"/>
<feOffset dy="1"/>
<feGaussianBlur stdDeviation="1.5"/>
<feColorMatrix type="matrix" values="0 0 0 0 0 0 0 0 0 0 0 0 0 0 0 0 0 0 0.3 0"/>
<feBlend mode="normal" in2="BackgroundImageFix" result="effect1_dropShadow_480_587"/>
<feColorMatrix in="SourceAlpha" type="matrix" values="0 0 0 0 0 0 0 0 0 0 0 0 0 0 0 0 0 0 127 0" result="hardAlpha"/>
<feOffset dy="4"/>
<feGaussianBlur stdDeviation="4"/>
<feColorMatrix type="matrix" values="0 0 0 0 0 0 0 0 0 0 0 0 0 0 0 0 0 0 0.15 0"/>
<feBlend mode="normal" in2="effect1_dropShadow_480_587" result="effect2_dropShadow_480_587"/>
<feBlend mode="normal" in="SourceGraphic" in2="effect2_dropShadow_480_587" result="shape"/>
</filter>
<linearGradient id="paint0_linear_480_587" x1="309.017" y1="333.918" x2="326.29" y2="285.16" gradientUnits="userSpaceOnUse">
<stop offset="0.0405605" stop-color="#E8B283"/>
<stop offset="1" stop-color="#428AFF"/>
</linearGradient>
</defs>
</svg>
